<svg width="251" height="91" viewBox="0 0 251 91" fill="none" xmlns="http://www.w3.org/2000/svg"><path fill-rule="evenodd" clip-rule="evenodd" d="M21.65 32.908H.36V1.038h21.29v31.87zm27.229 48.969h21.523V54.03H48.879v27.847zM.36 81.995h7.445L36.631 54.03H.36v27.965zM70.401.695h-7.563L29.634 32.908H70.4V.695zM94.972 54.03L83.429 78.877v3h21.562V71.62h7.455v10.257h2.066c0-1.517.005-3.029-.005-4.546-.019-6.157-.059-12.319-.088-18.48v-.636h4.275V82.01h1.706V58.215h1.538V82.01h1.706V58.215h.69c.276-.04.558-.02.848-.02V82.01h1.706V58.215h1.539V82.01h1.706V58.215h.577v-.02h3.57c.113 0 .227.02.369.03v23.652h2.101V71.62h6.918v10.257h22.134v-3L154.225 54.03H94.972zm29.348-43.689c-.498.348-.913.641-1.425 1.004 1.025.606 1.883.611 2.869-.01-.517-.358-.971-.67-1.444-.994zm2.82-1.811l-1.829 1.18c.399.48.256 1.067.784 1.424.862-.656 1.158-1.459 1.045-2.604z" fill="#0B2867"/><path fill-rule="evenodd" clip-rule="evenodd" d="M122.391 30.857c.158-.73.158-1.488.212-2.237.148-1.957.272-3.91.434-5.868.148-1.805.336-3.616.498-5.422.084-.95.148-1.9.227-2.848.035-.387.005-.74-.35-1.023-.108-.084-.202-.26-.187-.382.054-.524-.276-.793-.72-1.013-.109-.054-.202-.137-.301-.21-1.41-1.033-1.721-2.903-.286-4.288a41.19 41.19 0 00-.271.925c.646.025 1.297.054 1.997.078l.7-1.796c.187.495.35.852.449 1.219.108.401.34.587.798.568.439-.025.873-.005 1.391-.005-.049-.328-.084-.563-.128-.813 1.232 1.224 1.089 3.118-.587 4.22-.488.322-.897.62-.863 1.228.005.102-.054.25-.143.308-.532.367-.399.851-.34 1.34.103.892.197 1.777.266 2.668.153 1.958.266 3.915.429 5.868.153 1.87.345 3.734.518 5.599.074.802.138 1.61.207 2.413.044.528-.049 1.032-.222 1.522h18.259L129.038 0h-8.959l-15.29 32.908h17.76c-.241-.656-.32-1.327-.158-2.051z" fill="#0B2867"/><path fill-rule="evenodd" clip-rule="evenodd" d="M121.642 8.506c-.424.905.044 2.085 1.104 2.633.178-.49.35-.96.528-1.459-.577-.416-1.11-.792-1.632-1.174zm76.155-7.468h-21.296v31.87h21.296V1.038zm44.91 0h-21.291v31.87h21.291V1.038zm0 62.942v-9.95h-21.291v8.795h-23.619V54.03h-21.296v27.847h57.365V91h17.1V63.98h-8.259zm-43.62-28.506c.346.354.856.526 1.54.526.698 0 1.228-.177 1.584-.53.362-.35.545-.84.545-1.47h-1.218c-.025.32-.109.536-.258.654-.148.118-.366.177-.653.177-.283 0-.486-.06-.619-.177-.134-.118-.213-.335-.233-.654h-1.238c.02.634.203 1.126.55 1.474zM3.734 43.658l.812-3.092v8.881H6.54V36.811H4.145L2.51 42.026l-.728 2.787V36.81H0v12.636h2.05l1.684-5.79zm10.289 5.789V36.811h-1.995v5.421H9.755v-5.42H7.759v12.635h1.996v-5.411h2.273v5.411h1.995zM21.07 38.36h.742c.99 0 1.738.27 2.238.8.5.531.753 1.303.753 2.315v3.431c0 1.008-.253 1.78-.753 2.31s-1.248.791-2.238.791h-.743v1.44h-1.995v-1.44h-.743c-.99 0-1.733-.26-2.233-.791-.5-.53-.753-1.303-.753-2.31v-3.43c0-1.013.253-1.785.753-2.315.5-.531 1.243-.802 2.233-.802h.743v-1.548h1.995v1.548zm-1.996 1.72h-.743c-.327 0-.574.098-.738.294-.168.197-.247.512-.247.95v3.7c0 .845.326 1.268.985 1.268h.743V40.08zm1.995 0v6.212h.738c.664 0 .995-.423.995-1.268v-3.7c0-.831-.331-1.244-.995-1.244h-.738zm5.655 8.68c-.525-.556-.788-1.338-.788-2.345v-6.571c0-1.013.263-1.794.788-2.345.525-.555 1.272-.83 2.253-.83.98 0 1.728.275 2.248.83.52.55.782 1.332.782 2.345v6.57c0 1.008-.262 1.79-.782 2.345-.52.55-1.268.826-2.248.826-.98 0-1.728-.275-2.253-.826zm1.208-2.222c0 .835.352 1.253 1.045 1.253.688 0 1.035-.418 1.035-1.253V39.72c0-.83-.347-1.244-1.035-1.244-.693 0-1.045.413-1.045 1.244v6.817zm10.543-8.926c.5.536.752 1.313.752 2.325v1.642c0 1.017-.252 1.789-.752 2.32-.495.53-1.238.796-2.229.796h-.945v4.752h-1.996V36.811h2.941c.986 0 1.729.266 2.229.801zm-1.248 2.192c0-.432-.08-.737-.238-.919-.158-.177-.406-.27-.738-.27h-.95v4.286h.95c.332 0 .58-.094.738-.276.159-.181.238-.491.238-.923v-1.898zm7.165 6.006l-1.48-8.999h-2.774v12.636h1.738v-8.915l1.496 8.915h1.891l1.382-9.058v9.058h2V36.811h-2.882l-1.371 9zm7.096-8.999h3.084l2.026 12.636h-2l-.347-2.29h-2.447l-.346 2.29h-1.996l2.026-12.636zm.574 8.626h1.926l-.965-6.36-.961 6.36zm12.453 5.711v-3.475h-.871V36.811h-1.996V47.64h-2.273V36.81h-2v12.636h5.14v1.7h2zm3.64-9.122l-.728 2.787V36.81h-1.788v12.636h2.05l1.689-5.79.807-3.09v8.88h1.995V36.811h-2.396l-1.63 5.215zM78.518 37.5c.52.55.783 1.331.783 2.344v6.57c0 1.008-.263 1.79-.783 2.345-.52.55-1.267.826-2.248.826-.975 0-1.728-.275-2.253-.826-.525-.555-.787-1.337-.787-2.344v-6.571c0-1.013.262-1.794.787-2.345.525-.555 1.278-.83 2.253-.83.98 0 1.728.275 2.248.83zm-1.213 2.22c0-.83-.346-1.243-1.035-1.243-.693 0-1.044.413-1.044 1.244v6.817c0 .835.351 1.253 1.044 1.253.689 0 1.035-.418 1.035-1.253V39.72zm7.562 9.727h2V36.811h-2v5.421h-2.273v-5.42h-1.996v12.635h1.996v-5.411h2.273v5.411zm5.486-5.411h2.273v5.411h1.995V36.811h-1.995v5.421h-2.273v-5.42h-1.996v12.635h1.996v-5.411zm6.377 4.724c-.524-.556-.787-1.338-.787-2.345v-6.571c0-1.013.263-1.794.788-2.345.525-.555 1.277-.83 2.253-.83.98 0 1.728.275 2.248.83.525.55.782 1.332.782 2.345v6.57c0 1.008-.257 1.79-.782 2.345-.52.55-1.268.826-2.248.826-.976 0-1.728-.275-2.253-.826zm1.214-2.222c0 .835.346 1.253 1.04 1.253.688 0 1.035-.418 1.035-1.253V39.72c0-.83-.347-1.244-1.035-1.244-.694 0-1.04.413-1.04 1.244v6.817zm8.908-4.306h-3.63v1.804h3.63v-1.804zm2.862-5.421h3.085l2.025 12.636h-1.995l-.347-2.29h-2.451l-.347 2.29h-1.995l2.025-12.636zm.58 8.626h1.926l-.966-6.36-.96 6.36zm11.581 4.01V36.811h-2v5.421h-2.273v-5.42h-1.996v12.635h1.996v-5.411h2.273v5.411h2zm2.991-12.636h3.085l.728 4.532 1.297 8.104h-1.995l-.347-2.29h-2.451l-.347 2.29h-1.995l2.025-12.636zm.579 8.626h1.927l-.847-5.564-.119-.796-.099.639-.862 5.72zm5.076 4.025c.594 0 1.079-.098 1.48-.27.273-.118.515-.27.699-.467.45-.497.693-1.317.728-2.468l.222-7.642h1.733v10.832h1.996V36.811h-5.724l-.223 9.55c-.01.295-.04.526-.079.698a.73.73 0 01-.218.393.704.704 0 01-.357.167 3.26 3.26 0 01-.569.04v1.803h.312zm14.954-.015V36.811h-2.397l-1.634 5.215-.728 2.787V36.81h-1.782v12.636h2.05l1.688-5.79.807-3.09v8.88h1.996zm2.724 0h2V38.615h2.095v-1.804h-6.19v1.804h2.095v10.832zm8.7-5.789l.807-3.092v8.881h2V36.811h-2.396l-1.634 5.215-.728 2.787V36.81h-1.783v12.636h2.05l1.684-5.79zm8.095-1.721c0 .418-.089.738-.272.964-.183.22-.441.334-.767.334-.337 0-.614-.108-.832-.32-.218-.21-.332-.516-.332-.923v-5.18h-1.996v5.347c0 .89.213 1.592.644 2.113.431.526 1.045.786 1.842.786.292 0 .594-.064.921-.187.322-.122.584-.294.792-.52v5.096h2.001V36.811h-2.001v5.126zm3.462 7.51h5.451V47.64h-3.451v-3.701h2.743v-1.8h-2.743v-3.523h3.451v-1.804h-5.451v12.636zm11.78-.683c.54-.55.807-1.332.807-2.35v-1.68h-1.996v1.804c0 .82-.346 1.233-1.034 1.233-.699 0-1.045-.413-1.045-1.233V39.72c0-.83.346-1.244 1.045-1.244.688 0 1.034.413 1.034 1.244v1.356h1.996v-1.233c0-1.018-.267-1.8-.807-2.35-.535-.55-1.298-.825-2.273-.825-.98 0-1.723.275-2.233.825-.505.55-.758 1.332-.758 2.35v6.57c0 1.018.253 1.8.758 2.35.51.546 1.253.82 2.233.82.975 0 1.738-.274 2.273-.82zm6.531-11.953l-2.614 5.505V36.81h-2.001v12.636h2.001V45.57l.619-1.155 1.946 5.033h2.05l-2.778-7.003 2.778-5.633h-2.001zm9.448 12.636V36.811h-2.397l-1.634 5.215-.728 2.787V36.81h-1.782v12.636h2.05l1.683-5.79.808-3.09v8.88h2zm7.561 0V36.826h-2.203l-1.624 5.205-.733 2.782V36.83h-1.788v12.616h2.05l1.748-5.77.807-3.116-.059 8.886h1.802zm9.398 1.701h2.001v-3.475h-.872V36.811h-1.995V47.64h-2.273V36.81h-2v12.636h5.139v1.7zm8.577-3.509h-3.452v-3.701h2.744v-1.8h-2.744v-3.523h3.452v-1.804h-5.452v12.636h5.452V47.64zm7.501 1.808V36.811h-1.995v5.421h-2.273v-5.42h-2.001v12.635h2.001v-5.411h2.273v5.411h1.995zm4.997 0V38.615h2.094v-1.804h-6.184v1.804h2.094v10.832h1.996zm5.907-12.636c.986 0 1.728.266 2.228.801.5.536.748 1.313.748 2.325v1.642c0 1.017-.248 1.789-.748 2.32-.495.53-1.238.796-2.223.796h-.951v4.752h-1.995V36.811h2.941zm.005 1.804h-.951v4.286h.951c.332 0 .574-.094.738-.276.158-.181.238-.491.238-.923v-1.898c0-.432-.08-.737-.238-.919-.164-.177-.406-.27-.738-.27z" fill="#0B2867"/></svg>