<svg width="231" height="104" viewBox="0 0 231 104" fill="none" xmlns="http://www.w3.org/2000/svg">
<path d="M88.4905 43.2761L89.6197 38.9859V51.2828H92.1037V33.8227H89.0676L86.8094 41.0312L85.8058 44.8724V33.8227H83.3468V51.2828H86.1821L88.4905 43.2761Z" fill="white"/>
<path d="M96.8148 43.7999H99.9512V51.2828H102.761V33.8227H99.9512V41.3056H96.8148V33.8227H94.0548V51.2828H96.8148V43.7999Z" fill="white"/>
<path d="M109.681 51.2828H112.391V49.3123H113.419C116.179 49.3123 117.534 47.7908 117.534 44.9972V40.2331C117.534 37.4394 116.179 35.9179 113.419 35.9179H112.391V33.8227H109.681V35.9179H108.652C105.892 35.9179 104.537 37.4394 104.537 40.2331V44.9972C104.537 47.7908 105.892 49.3123 108.652 49.3123H109.681V51.2828ZM113.419 38.3374C114.297 38.3374 114.799 38.8113 114.799 40.0585V45.1718C114.799 46.4189 114.297 46.9178 113.419 46.9178H112.391V38.3374H113.419ZM109.681 46.9178H108.652C107.774 46.9178 107.272 46.4189 107.272 45.1718V40.0585C107.272 38.8113 107.774 38.3374 108.652 38.3374H109.681V46.9178Z" fill="white"/>
<path d="M121.925 37.8385C121.925 36.5914 122.477 36.1175 123.356 36.1175C124.234 36.1175 124.786 36.5914 124.786 37.8385V47.267C124.786 48.5141 124.234 48.988 123.356 48.988C122.477 48.988 121.925 48.5141 121.925 47.267V37.8385ZM119.165 47.0924C119.165 49.886 120.646 51.4823 123.356 51.4823C126.066 51.4823 127.546 49.886 127.546 47.0924V38.0131C127.546 35.2195 126.066 33.6232 123.356 33.6232C120.646 33.6232 119.165 35.2195 119.165 38.0131V47.0924Z" fill="white"/>
<path d="M133.404 33.8227H129.34V51.2828H132.1V44.7228H133.404C136.164 44.7228 137.519 43.2013 137.519 40.4077V38.1378C137.519 35.3442 136.164 33.8227 133.404 33.8227ZM133.404 36.317C134.283 36.317 134.759 36.7161 134.759 37.9632V40.5823C134.759 41.8294 134.283 42.2285 133.404 42.2285H132.1V36.317H133.404Z" fill="white"/>
<path d="M142.612 33.8227H138.773V51.2828H141.182V38.936L143.239 51.2828H145.849L147.756 38.7614V51.2828H150.365V33.8227H146.526L144.644 46.2194L142.612 33.8227Z" fill="white"/>
<path d="M158.495 33.8227H154.455L151.645 51.2828H154.179L154.656 48.115H158.043L158.52 51.2828H161.305L158.495 33.8227ZM156.337 36.9156L157.667 45.7454H155.007L156.337 36.9156Z" fill="white"/>
<path d="M162.591 51.2828H169.817V53.6274H172.502V48.8384H171.297V33.8227H168.487V48.7885H165.351V33.8227H162.591V51.2828Z" fill="white"/>
<path d="M179.153 43.2761L180.282 38.9859V51.2828H182.766V33.8227H179.73L177.472 41.0312L176.468 44.8724V33.8227H174.009V51.2828H176.845L179.153 43.2761Z" fill="white"/>
<path d="M187.251 37.8385C187.251 36.5914 187.803 36.1175 188.682 36.1175C189.56 36.1175 190.112 36.5914 190.112 37.8385V47.267C190.112 48.5141 189.56 48.988 188.682 48.988C187.803 48.988 187.251 48.5141 187.251 47.267V37.8385ZM184.491 47.0924C184.491 49.886 185.972 51.4823 188.682 51.4823C191.391 51.4823 192.872 49.886 192.872 47.0924V38.0131C192.872 35.2195 191.391 33.6232 188.682 33.6232C185.972 33.6232 184.491 35.2195 184.491 38.0131V47.0924Z" fill="white"/>
<path d="M197.426 43.7999H200.562V51.2828H203.372V33.8227H200.562V41.3056H197.426V33.8227H194.666V51.2828H197.426V43.7999Z" fill="white"/>
<path d="M208.134 43.7999H211.27V51.2828H214.08V33.8227H211.27V41.3056H208.134V33.8227H205.373V51.2828H208.134V43.7999Z" fill="white"/>
<path d="M218.616 37.8385C218.616 36.5914 219.168 36.1175 220.046 36.1175C220.924 36.1175 221.476 36.5914 221.476 37.8385V47.267C221.476 48.5141 220.924 48.988 220.046 48.988C219.168 48.988 218.616 48.5141 218.616 47.267V37.8385ZM215.856 47.0924C215.856 49.886 217.336 51.4823 220.046 51.4823C222.756 51.4823 224.236 49.886 224.236 47.0924V38.0131C224.236 35.2195 222.756 33.6232 220.046 33.6232C217.336 33.6232 215.856 35.2195 215.856 38.0131V47.0924Z" fill="white"/>
<path d="M225.904 43.7999H230.923V41.3056H225.904V43.7999Z" fill="white"/>
<path d="M89.4691 58.7657H85.4294L82.6191 76.2257H85.1534L85.6301 73.058H89.0175L89.4942 76.2257H92.2793L89.4691 58.7657ZM87.3112 61.8586L88.6411 70.6884H85.9814L87.3112 61.8586Z" fill="white"/>
<path d="M96.3247 68.7429H99.4612V76.2257H102.271V58.7657H99.4612V66.2486H96.3247V58.7657H93.5647V76.2257H96.3247V68.7429Z" fill="white"/>
<path d="M110.395 58.7657H106.355L103.545 76.2257H106.079L106.556 73.058H109.943L110.42 76.2257H113.205L110.395 58.7657ZM108.237 61.8586L109.567 70.6884H106.907L108.237 61.8586Z" fill="white"/>
<path d="M113.713 76.2507H114.139C116.899 76.2507 118.054 75.0035 118.154 71.8108L118.455 61.26H120.864V76.2257H123.674V58.7657H115.871L115.419 71.9605C115.369 73.5818 114.967 73.7564 113.713 73.7564V76.2507Z" fill="white"/>
<path d="M130.93 68.2191L132.059 63.9289V76.2257H134.544V58.7657H131.507L129.249 65.9742L128.246 69.8154V58.7657H125.787V76.2257H128.622L130.93 68.2191Z" fill="white"/>
<path d="M135.692 61.26H138.577V76.2257H141.337V61.26H144.223V58.7657H135.692V61.26Z" fill="white"/>
<path d="M150.582 68.2191L151.711 63.9289V76.2257H154.195V58.7657H151.159L148.901 65.9742L147.897 69.8154V58.7657H145.438V76.2257H148.274L150.582 68.2191Z" fill="white"/>
<path d="M161.767 58.7657V65.8495C161.767 67.0218 161.215 67.6454 160.337 67.6454C159.458 67.6454 158.731 67.0966 158.731 65.9243V58.7657H155.971V66.1488C155.971 68.5433 157.15 70.1646 159.408 70.1646C160.161 70.1646 161.165 69.8403 161.767 69.1918V76.2257H164.527V58.7657H161.767Z" fill="white"/>
<path d="M169.32 61.26H174.088V58.7657H166.56V76.2257H174.088V73.7314H169.32V68.6181H173.109V66.1238H169.32V61.26Z" fill="white"/>
<path d="M181.193 69.7156V72.2099C181.193 73.4571 180.641 73.906 179.762 73.906C178.884 73.906 178.332 73.4571 178.332 72.2099V62.7815C178.332 61.5343 178.884 61.0604 179.762 61.0604C180.641 61.0604 181.193 61.5343 181.193 62.7815V64.6522H183.802V62.9561C183.802 60.1625 182.397 58.5661 179.687 58.5661C176.977 58.5661 175.572 60.1625 175.572 62.9561V72.0353C175.572 74.8289 176.977 76.4253 179.687 76.4253C182.397 76.4253 183.802 74.8289 183.802 72.0353V69.7156H181.193Z" fill="white"/>
<path d="M191.775 76.2257H194.61L190.771 66.5479L194.61 58.7657H191.85L188.237 66.3733V58.7657H185.477V76.2257H188.237V70.863L189.09 69.2667L191.775 76.2257Z" fill="white"/>
<path d="M201.01 68.2191L202.139 63.9289V76.2257H204.623V58.7657H201.587L199.329 65.9742L198.325 69.8154V58.7657H195.866V76.2257H198.702L201.01 68.2191Z" fill="white"/>
<path d="M209.409 76.2257H206.574V58.7657H209.033V69.8154L210.037 65.9742L212.295 58.7657H215.331V76.2257H212.847V63.9289L211.718 68.2191L209.409 76.2257ZM212.245 54.8746C212.17 55.7975 211.743 56.0219 210.99 56.0219C210.263 56.0219 209.886 55.7975 209.811 54.8746H208.105C208.155 56.5707 209.058 57.6432 210.99 57.6432C212.947 57.6432 213.926 56.5707 213.926 54.8746H212.245Z" fill="white"/>
<path d="M83.3468 101.169H90.5731V103.513H93.2579V98.7243H92.0535V83.7086H89.2433V98.6744H86.1068V83.7086H83.3468V101.169Z" fill="white"/>
<path d="M97.5254 86.2029H102.293V83.7086H94.7654V101.169H102.293V98.6744H97.5254V93.5611H101.314V91.0668H97.5254V86.2029Z" fill="white"/>
<path d="M106.763 93.6858H109.9V101.169H112.71V83.7086H109.9V91.1915H106.763V83.7086H104.003V101.169H106.763V93.6858Z" fill="white"/>
<path d="M113.908 86.2029H116.794V101.169H119.554V86.2029H122.439V83.7086H113.908V86.2029Z" fill="white"/>
<path d="M127.72 83.7086H123.655V101.169H126.415V94.6087H127.72C130.48 94.6087 131.835 93.0872 131.835 90.2936V88.0238C131.835 85.2301 130.48 83.7086 127.72 83.7086ZM127.72 86.2029C128.598 86.2029 129.075 86.602 129.075 87.8492V90.4682C129.075 91.7153 128.598 92.1144 127.72 92.1144H126.415V86.2029H127.72Z" fill="white"/>
<path d="M140.823 83.7086H136.984V101.169H139.393V88.8219L141.45 101.169H144.06L145.967 88.6473V101.169H148.576V83.7086H144.737L142.855 96.1053L140.823 83.7086Z" fill="white"/>
<path d="M153.369 101.169V86.2029H157.886V83.7086H150.609V101.169H153.369Z" fill="white"/>
<path d="M168.831 83.7086H165.946L164.691 89.6949L164.039 93.7606L163.186 89.67L161.68 83.7086H158.945L162.759 97.1778L162.734 97.3275C162.508 98.5996 161.705 98.849 160.3 98.7492V101.194C164.139 101.443 165.218 99.8717 165.871 96.7289L168.831 83.7086Z" fill="white"/>
<path d="M41.7648 26.9546L70.0758 42.5356V80.923L35.3917 100.012L0.707031 80.923V42.5356L29.0449 26.9393L28.7021 32.9153L5.77353 45.5337V77.9255L35.3917 94.2272L65.01 77.9255V45.5337L50.2503 37.4101L42.1485 32.9521L41.7648 26.9546Z" fill="white" stroke="white" stroke-miterlimit="22.9256"/>
<path fill-rule="evenodd" clip-rule="evenodd" d="M37.7982 39.878L36.8233 25.3243C36.7371 24.4588 36.6417 24.202 37.219 23.4762C37.9755 22.8406 38.5969 21.7735 38.5853 20.6205C38.6214 19.6882 38.973 18.7823 39.6647 18.2882C41.53 17.0434 42.8559 15.7715 43.6436 14.4708C45.9248 10.38 45.627 6.54605 42.7489 2.96644C44.3182 7.12221 43.8344 10.7037 41.3007 13.7089C38.6905 16.252 36.1738 17.1984 33.7465 16.5469C27.4864 14.5646 25.5911 9.8345 28.0619 2.35718C24.4328 6.77406 24.3661 11.2896 27.8613 15.9094C28.9676 17.0587 29.94 17.8549 30.7791 18.2993C31.557 18.9184 31.9546 19.7035 31.9674 20.6554C31.9448 21.6012 32.4836 22.8118 33.2193 23.467C33.5422 24.1523 33.6627 24.8474 33.5765 25.5468L32.7203 39.878L31.1938 86.3338L35.3788 88.5631L39.68 86.2762L37.8 39.878H37.7982Z" fill="white"/>
<path fill-rule="evenodd" clip-rule="evenodd" d="M35.3902 0L36.974 5.28359L42.1259 5.27368L37.9519 8.52903L39.5527 13.8064L35.3902 10.5343L31.2277 13.8064L32.8303 8.52903L28.6562 5.27368L33.8082 5.28359L35.3902 0Z" fill="white"/>
<path fill-rule="evenodd" clip-rule="evenodd" d="M28.6571 44.7866L27.3692 84.1854L22.5957 81.6916L22.7385 47.8699L28.6571 44.7866Z" fill="white"/>
<path fill-rule="evenodd" clip-rule="evenodd" d="M18.7357 55.6101L18.8914 55.5624L18.808 79.4711L12.8301 76.3554L12.8319 58.6806L18.7357 55.6101Z" fill="white"/>
<path fill-rule="evenodd" clip-rule="evenodd" d="M42.126 44.7866L43.7528 84.1854L48.1873 81.876L48.1384 47.9166L42.126 44.7866Z" fill="white"/>
<path fill-rule="evenodd" clip-rule="evenodd" d="M51.9147 55.5624L51.8916 55.5643L51.9228 79.8079L57.953 76.6609L57.9299 58.6996L51.9147 55.5624Z" fill="white"/>
<path d="M35.3917 24.2454C37.4374 24.2454 39.0958 22.6624 39.0958 20.7096C39.0958 18.7569 37.4374 17.1738 35.3917 17.1738C33.3459 17.1738 31.6875 18.7569 31.6875 20.7096C31.6875 22.6624 33.3459 24.2454 35.3917 24.2454Z" fill="white"/>
<path d="M0 85.7931L28.4385 101.099H0V85.7931Z" fill="white"/>
<path d="M70.6611 85.7931L42.2226 101.099H70.6611V85.7931Z" fill="white"/>
</svg>
