<svg width="20" height="15" viewBox="0 0 20 15" fill="none" xmlns="http://www.w3.org/2000/svg"><path d="M18.611 0H.639A.64.64 0 000 .64v1.285c0 .06.064.128.117.155l9.446 5.396a.158.158 0 00.16-.001l9.162-5.39c.051-.028.188-.105.239-.14.062-.042.126-.08.126-.156V.64a.64.64 0 00-.639-.64zm.559 3.864a.161.161 0 00-.161.001l-5.184 3.05a.16.16 0 00-.037.247l5.185 5.589a.158.158 0 00.117.05.16.16 0 00.16-.159v-8.64a.16.16 0 00-.08-.138zM12.33 7.94a.159.159 0 00-.197-.03l-2.078 1.223a.81.81 0 01-.802.005L7.424 8.093a.16.16 0 00-.188.022L.292 14.556a.16.16 0 00.028.255.618.618 0 00.319.094h17.788a.158.158 0 00.146-.096.159.159 0 00-.03-.172L12.332 7.94zm-6.622-.587a.16.16 0 00-.028-.256L.238 3.99A.16.16 0 000 4.13v8.154a.16.16 0 00.268.117l5.44-5.047z" fill="#84AACB"/></svg>