<svg width="24" height="24" viewBox="0 0 24 24" fill="none" xmlns="http://www.w3.org/2000/svg"><circle cx="12" cy="12" r="12" fill="#F7931E"/><path d="M11.639 14.759c-1.047-.11-1.99-.367-2.798-.999-.1-.079-.204-.154-.296-.242-.353-.34-.389-.729-.11-1.13.24-.342.642-.434 1.06-.237.08.038.158.085.232.137 1.505 1.034 3.574 1.063 5.085.046.15-.115.31-.208.495-.256.36-.093.697.04.89.355.222.36.22.713-.053.992-.418.43-.921.74-1.48.956-.527.205-1.106.308-1.678.377.086.094.127.14.18.194.778.781 1.559 1.559 2.334 2.342.264.267.319.598.173.909-.159.34-.514.562-.863.538-.221-.015-.393-.125-.547-.279-.586-.59-1.184-1.17-1.759-1.771-.167-.175-.247-.142-.395.01-.59.607-1.19 1.206-1.793 1.8-.271.267-.593.316-.908.163-.334-.162-.546-.503-.53-.845.012-.232.126-.41.285-.568.769-.768 1.536-1.538 2.304-2.308.05-.05.098-.105.172-.184z" fill="#fff"/><path d="M12.276 12.083C10.41 12.077 8.878 10.53 8.89 8.66a3.422 3.422 0 013.428-3.409c1.89.005 3.406 1.55 3.396 3.46-.01 1.867-1.55 3.38-3.437 3.373zm1.697-3.42a1.664 1.664 0 00-1.67-1.668 1.667 1.667 0 00-1.673 1.689 1.664 1.664 0 001.682 1.655 1.66 1.66 0 001.661-1.675z" fill="#fff"/></svg>