<svg width="13" height="14" viewBox="0 0 13 14" fill="none" xmlns="http://www.w3.org/2000/svg">
<path d="M12.7716 12.1684L9.83125 9.22812C10.5391 8.28573 10.9213 7.13865 10.92 5.96C10.92 2.94938 8.47062 0.5 5.46 0.5C2.44938 0.5 0 2.94938 0 5.96C0 8.97062 2.44938 11.42 5.46 11.42C6.63865 11.4213 7.78573 11.0391 8.72812 10.3313L11.6684 13.2716C11.8173 13.4046 12.0114 13.4756 12.211 13.47C12.4105 13.4645 12.6004 13.3827 12.7415 13.2415C12.8827 13.1004 12.9645 12.9105 12.97 12.711C12.9756 12.5114 12.9046 12.3173 12.7716 12.1684ZM1.56 5.96C1.56 5.18865 1.78873 4.43463 2.21727 3.79328C2.64581 3.15192 3.2549 2.65205 3.96753 2.35687C4.68017 2.06169 5.46433 1.98446 6.22085 2.13494C6.97738 2.28542 7.67229 2.65686 8.21772 3.20228C8.76314 3.74771 9.13458 4.44262 9.28506 5.19915C9.43554 5.95567 9.35831 6.73983 9.06313 7.45247C8.76795 8.1651 8.26808 8.77419 7.62672 9.20273C6.98537 9.63127 6.23135 9.86 5.46 9.86C4.42604 9.85876 3.43478 9.44747 2.70365 8.71635C1.97253 7.98522 1.56124 6.99396 1.56 5.96Z" fill="#84AACB"/>
</svg>
