<svg width="24" height="24" viewBox="0 0 24 24" fill="none" xmlns="http://www.w3.org/2000/svg"><rect width="24" height="24" rx="12" fill="#4AA2D7"/><path d="M16.773 8.902c.005.125.007.251.007.38 0 3.886-2.476 8.368-7.005 8.368-1.392 0-2.685-.486-3.775-1.321.193.026.39.04.587.04 1.155 0 2.215-.469 3.058-1.258-1.077-.025-1.986-.874-2.3-2.043a2.047 2.047 0 001.112-.05c-1.125-.271-1.975-1.46-1.975-2.884v-.037c.333.22.712.353 1.116.368-.66-.527-1.095-1.428-1.095-2.449 0-.539.121-1.044.333-1.479 1.214 1.78 3.029 2.95 5.074 3.073a3.538 3.538 0 01-.063-.67c0-1.624 1.102-2.94 2.462-2.94.708 0 1.348.357 1.796.927a4.485 4.485 0 001.564-.713c-.184.687-.574 1.264-1.083 1.627.498-.07.973-.229 1.414-.462a5.642 5.642 0 01-1.227 1.523z" fill="#fff"/></svg>