<?xml version="1.0" encoding="utf-8"?><svg viewBox="0 0 231 104" xmlns="http://www.w3.org/2000/svg" xmlns:xlink="http://www.w3.org/1999/xlink"><style>:root>svg{display:none}:root>svg:target{display:block}</style><svg fill="none" viewBox="0 0 5 7" id="arrow" xmlns="http://www.w3.org/2000/svg"><path d="M1.862 6.711l2.82-2.526c.1-.09.18-.198.235-.316a.885.885 0 000-.744.972.972 0 00-.235-.316L1.862.282C1.176-.322 0 .107 0 .975v5.043c0 .878 1.176 1.308 1.862.693z" fill="#84AACB"/></svg><svg fill="none" viewBox="0 0 21 16" id="arrow-prev" xmlns="http://www.w3.org/2000/svg"><path d="M.293 7.293a1 1 0 000 1.414l6.364 6.364a1 1 0 001.414-1.414L2.414 8l5.657-5.657A1 1 0 006.657.93L.293 7.293zM21 7H1v2h20V7z" fill="#84AACB"/></svg><svg fill="none" viewBox="0 0 18 17" id="checkbox" xmlns="http://www.w3.org/2000/svg"><path d="M2 9l5 6 9-13" stroke="#84AACB" stroke-width="3" stroke-linecap="round" stroke-linejoin="round"/></svg><svg fill="none" viewBox="0 0 7 5" id="drop" xmlns="http://www.w3.org/2000/svg"><path d="M.289 1.862l2.526 2.82c.09.1.198.18.316.235a.885.885 0 00.744 0 .972.972 0 00.316-.235l2.527-2.82C7.322 1.176 6.893 0 6.025 0H.98C.104 0-.326 1.176.29 1.862z" fill="#fff"/></svg><svg fill="none" viewBox="0 0 24 24" id="fb" xmlns="http://www.w3.org/2000/svg"><rect width="24" height="24" rx="12" fill="#414F91"/><path d="M14.774 6.003L13.334 6c-1.616 0-2.66 1.16-2.66 2.953v1.362H9.225c-.125 0-.226.11-.226.245v1.973c0 .135.101.244.226.244h1.447v4.978c0 .136.101.245.227.245h1.887c.125 0 .227-.11.227-.245v-4.978h1.692c.125 0 .226-.11.226-.244V10.56a.256.256 0 00-.066-.173.218.218 0 00-.16-.072h-1.692V9.16c0-.555.122-.837.79-.837h.97c.125 0 .226-.11.226-.245V6.247c0-.135-.101-.244-.226-.244z" fill="#fff"/></svg><svg fill="none" viewBox="0 0 231 104" id="logo" xmlns="http://www.w3.org/2000/svg"><path d="M88.49 43.276l1.13-4.29v12.297h2.484v-17.46h-3.036l-2.259 7.208-1.003 3.841v-11.05h-2.46v17.46h2.836l2.308-8.006zM96.815 43.8h3.136v7.483h2.81v-17.46h-2.81v7.483h-3.136v-7.483h-2.76v17.46h2.76V43.8zM109.681 51.283h2.71v-1.97h1.028c2.76 0 4.115-1.522 4.115-4.316v-4.764c0-2.794-1.355-4.315-4.115-4.315h-1.028v-2.095h-2.71v2.095h-1.029c-2.76 0-4.115 1.521-4.115 4.315v4.764c0 2.794 1.355 4.315 4.115 4.315h1.029v1.97zm3.738-12.946c.878 0 1.38.474 1.38 1.721v5.114c0 1.247-.502 1.746-1.38 1.746h-1.028v-8.58h1.028zm-3.738 8.58h-1.029c-.878 0-1.38-.498-1.38-1.745v-5.113c0-1.248.502-1.722 1.38-1.722h1.029v8.58zM121.925 37.839c0-1.248.552-1.721 1.431-1.721.878 0 1.43.473 1.43 1.72v9.429c0 1.247-.552 1.721-1.43 1.721-.879 0-1.431-.474-1.431-1.721v-9.428zm-2.76 9.253c0 2.794 1.481 4.39 4.191 4.39s4.19-1.596 4.19-4.39v-9.079c0-2.794-1.48-4.39-4.19-4.39-2.71 0-4.191 1.596-4.191 4.39v9.08zM133.404 33.823h-4.064v17.46h2.76v-6.56h1.304c2.76 0 4.115-1.522 4.115-4.315v-2.27c0-2.794-1.355-4.315-4.115-4.315zm0 2.494c.879 0 1.355.4 1.355 1.646v2.62c0 1.246-.476 1.645-1.355 1.645H132.1v-5.911h1.304zM142.612 33.823h-3.839v17.46h2.409V38.936l2.057 12.347h2.61l1.907-12.522v12.522h2.609v-17.46h-3.839l-1.882 12.396-2.032-12.396zM158.495 33.823h-4.04l-2.81 17.46h2.534l.477-3.168h3.387l.477 3.168h2.785l-2.81-17.46zm-2.158 3.093l1.33 8.83h-2.66l1.33-8.83zM162.591 51.283h7.226v2.344h2.685v-4.789h-1.205V33.823h-2.81v14.965h-3.136V33.823h-2.76v17.46zM179.153 43.276l1.129-4.29v12.297h2.484v-17.46h-3.036l-2.258 7.208-1.004 3.841v-11.05h-2.459v17.46h2.836l2.308-8.006zM187.251 37.839c0-1.248.552-1.721 1.431-1.721.878 0 1.43.473 1.43 1.72v9.429c0 1.247-.552 1.721-1.43 1.721-.879 0-1.431-.474-1.431-1.721v-9.428zm-2.76 9.253c0 2.794 1.481 4.39 4.191 4.39 2.709 0 4.19-1.596 4.19-4.39v-9.079c0-2.794-1.481-4.39-4.19-4.39-2.71 0-4.191 1.596-4.191 4.39v9.08zM197.426 43.8h3.136v7.483h2.81v-17.46h-2.81v7.483h-3.136v-7.483h-2.76v17.46h2.76V43.8zM208.134 43.8h3.136v7.483h2.81v-17.46h-2.81v7.483h-3.136v-7.483h-2.761v17.46h2.761V43.8zM218.616 37.839c0-1.248.552-1.721 1.43-1.721.878 0 1.43.473 1.43 1.72v9.429c0 1.247-.552 1.721-1.43 1.721-.878 0-1.43-.474-1.43-1.721v-9.428zm-2.76 9.253c0 2.794 1.48 4.39 4.19 4.39 2.71 0 4.19-1.596 4.19-4.39v-9.079c0-2.794-1.48-4.39-4.19-4.39-2.71 0-4.19 1.596-4.19 4.39v9.08zM225.904 43.8h5.019v-2.494h-5.019V43.8zM89.47 58.766h-4.04l-2.81 17.46h2.533l.477-3.168h3.388l.476 3.168h2.785l-2.81-17.46zm-2.159 3.093l1.33 8.83h-2.66l1.33-8.83zM96.325 68.743h3.136v7.483h2.81v-17.46h-2.81v7.483h-3.136v-7.483h-2.76v17.46h2.76v-7.483zM110.395 58.766h-4.04l-2.81 17.46h2.534l.477-3.168h3.387l.477 3.168h2.785l-2.81-17.46zm-2.158 3.093l1.33 8.83h-2.66l1.33-8.83zM113.713 76.25h.426c2.76 0 3.915-1.246 4.015-4.44l.301-10.55h2.409v14.966h2.81v-17.46h-7.803l-.452 13.194c-.05 1.622-.452 1.796-1.706 1.796v2.495zM130.93 68.22l1.129-4.291v12.297h2.485v-17.46h-3.037l-2.258 7.208-1.003 3.841v-11.05h-2.459v17.46h2.835l2.308-8.006zM135.692 61.26h2.885v14.966h2.76V61.26h2.886v-2.494h-8.531v2.494zM150.582 68.22l1.129-4.291v12.297h2.484v-17.46h-3.036l-2.258 7.208-1.004 3.841v-11.05h-2.459v17.46h2.836l2.308-8.006zM161.767 58.766v7.084c0 1.172-.552 1.795-1.43 1.795-.879 0-1.606-.548-1.606-1.72v-7.16h-2.76v7.384c0 2.394 1.179 4.016 3.437 4.016.753 0 1.757-.325 2.359-.973v7.034h2.76v-17.46h-2.76zM169.32 61.26h4.768v-2.494h-7.528v17.46h7.528V73.73h-4.768v-5.113h3.789v-2.494h-3.789V61.26zM181.193 69.716v2.494c0 1.247-.552 1.696-1.431 1.696-.878 0-1.43-.449-1.43-1.696v-9.428c0-1.248.552-1.722 1.43-1.722.879 0 1.431.474 1.431 1.721v1.871h2.609v-1.696c0-2.794-1.405-4.39-4.115-4.39s-4.115 1.596-4.115 4.39v9.08c0 2.793 1.405 4.39 4.115 4.39s4.115-1.597 4.115-4.39v-2.32h-2.609zM191.775 76.226h2.835l-3.839-9.678 3.839-7.782h-2.76l-3.613 7.607v-7.607h-2.76v17.46h2.76v-5.363l.853-1.596 2.685 6.959zM201.01 68.22l1.129-4.291v12.297h2.484v-17.46h-3.036l-2.258 7.208-1.004 3.841v-11.05h-2.459v17.46h2.836l2.308-8.006zM209.409 76.226h-2.835v-17.46h2.459v11.05l1.004-3.842 2.258-7.208h3.036v17.46h-2.484V63.929l-1.129 4.29-2.309 8.007zm2.836-21.351c-.075.922-.502 1.147-1.255 1.147-.727 0-1.104-.224-1.179-1.147h-1.706c.05 1.696.953 2.768 2.885 2.768 1.957 0 2.936-1.072 2.936-2.768h-1.681zM83.347 101.169h7.226v2.344h2.685v-4.789h-1.204V83.71h-2.81v14.965h-3.137V83.71h-2.76v17.46zM97.525 86.203h4.768v-2.494h-7.528v17.46h7.528v-2.495h-4.768v-5.113h3.789v-2.494h-3.789v-4.864zM106.763 93.686h3.137v7.483h2.81v-17.46h-2.81v7.483h-3.137v-7.483h-2.76v17.46h2.76v-7.483zM113.908 86.203h2.886v14.966h2.76V86.203h2.885v-2.494h-8.531v2.494zM127.72 83.709h-4.065v17.46h2.76v-6.56h1.305c2.76 0 4.115-1.522 4.115-4.315v-2.27c0-2.794-1.355-4.315-4.115-4.315zm0 2.494c.878 0 1.355.399 1.355 1.646v2.62c0 1.246-.477 1.645-1.355 1.645h-1.305v-5.911h1.305zM140.823 83.709h-3.839v17.46h2.409V88.822l2.057 12.347h2.61l1.907-12.522v12.522h2.609v-17.46h-3.839l-1.882 12.396-2.032-12.396zM153.369 101.169V86.203h4.517v-2.494h-7.277v17.46h2.76zM168.831 83.709h-2.885l-1.255 5.986-.652 4.066-.853-4.091-1.506-5.961h-2.735l3.814 13.469-.025.15c-.226 1.272-1.029 1.521-2.434 1.421v2.445c3.839.249 4.918-1.322 5.571-4.465l2.96-13.02z" fill="#CC0202"/><path d="M41.765 26.955l28.31 15.58v38.388l-34.683 19.089L.707 80.923V42.536l28.338-15.597-.343 5.976L5.774 45.534v32.392l29.618 16.301L65.01 77.925V45.535L50.25 37.41l-8.102-4.458-.383-5.997z" fill="#0B2867" stroke="#0B2867" stroke-miterlimit="22.926"/><path fill-rule="evenodd" clip-rule="evenodd" d="M37.798 39.878l-.975-14.554c-.086-.865-.181-1.122.396-1.848.756-.635 1.378-1.703 1.366-2.855.036-.933.388-1.839 1.08-2.333 1.865-1.245 3.19-2.517 3.979-3.817 2.28-4.091 1.983-7.925-.895-11.505 1.57 4.156 1.085 7.738-1.448 10.743-2.61 2.543-5.127 3.49-7.555 2.838-6.26-1.982-8.155-6.713-5.684-14.19-3.63 4.417-3.696 8.933-.2 13.552 1.106 1.15 2.078 1.946 2.917 2.39.778.62 1.176 1.404 1.188 2.356-.022.946.517 2.157 1.252 2.812.323.685.444 1.38.358 2.08l-.857 14.331-1.526 46.456 4.185 2.23 4.301-2.288-1.88-46.398h-.002z" fill="#CC0202"/><path fill-rule="evenodd" clip-rule="evenodd" d="M35.39 0l1.584 5.284 5.152-.01-4.174 3.255 1.601 5.277-4.162-3.272-4.163 3.272 1.603-5.277-4.174-3.255 5.152.01L35.39 0z" fill="#CC0202"/><path fill-rule="evenodd" clip-rule="evenodd" d="M28.657 44.787l-1.288 39.398-4.774-2.493.143-33.822 5.919-3.083zM18.735 55.61l.156-.048-.083 23.909-5.978-3.116.002-17.675 5.903-3.07zM42.127 44.787l1.626 39.398 4.435-2.309-.05-33.96-6.011-3.13zM51.915 55.562l-.023.002.03 24.244 6.031-3.147L57.93 58.7l-6.015-3.138z" fill="#0B2867"/><path d="M35.392 24.245c2.045 0 3.704-1.583 3.704-3.535 0-1.953-1.659-3.536-3.704-3.536-2.046 0-3.705 1.583-3.705 3.536 0 1.952 1.659 3.535 3.705 3.535zM0 85.793L28.439 101.1H0V85.793zM70.66 85.793L42.223 101.1h28.439V85.793z" fill="#CC0202"/></svg><svg fill="none" viewBox="0 0 20 15" id="mail" xmlns="http://www.w3.org/2000/svg"><path d="M18.611 0H.639A.64.64 0 000 .64v1.285c0 .06.064.128.117.155l9.446 5.396a.158.158 0 00.16-.001l9.162-5.39c.051-.028.188-.105.239-.14.062-.042.126-.08.126-.156V.64A.64.64 0 0018.611 0zM19.17 3.864a.161.161 0 00-.161.001l-5.184 3.05a.16.16 0 00-.037.247l5.185 5.589a.158.158 0 00.117.05.16.16 0 00.16-.159v-8.64a.16.16 0 00-.08-.138zM12.33 7.94a.159.159 0 00-.197-.03l-2.078 1.223a.81.81 0 01-.802.005L7.424 8.093a.16.16 0 00-.188.022L.292 14.556a.16.16 0 00.028.255.618.618 0 00.319.094h17.788a.158.158 0 00.146-.096.159.159 0 00-.03-.172L12.332 7.94zM5.708 7.353a.16.16 0 00-.028-.256L.238 3.99A.16.16 0 000 4.13v8.154a.16.16 0 00.268.117l5.44-5.047z" fill="#84AACB"/></svg><svg fill="none" viewBox="0 0 16 20" id="marker" xmlns="http://www.w3.org/2000/svg"><path d="M8 0C3.59 0 0 3.589 0 7.995-.029 14.44 7.696 19.784 8 20c0 0 8.03-5.56 8-12 0-4.411-3.589-8-8-8zm0 12c-2.21 0-4-1.79-4-4s1.79-4 4-4 4 1.79 4 4-1.79 4-4 4z" fill="#84AACB"/></svg><svg fill="none" viewBox="0 0 24 24" id="ok" xmlns="http://www.w3.org/2000/svg"><circle cx="12" cy="12" r="12" fill="#F7931E"/><path d="M11.639 14.759c-1.047-.11-1.99-.367-2.798-.999-.1-.079-.204-.154-.296-.242-.353-.34-.389-.729-.11-1.13.24-.342.642-.434 1.06-.237.08.038.158.085.232.137 1.505 1.034 3.574 1.063 5.085.046.15-.115.31-.208.495-.256.36-.093.697.04.89.355.222.36.22.713-.053.992-.418.43-.921.74-1.48.956-.527.205-1.106.308-1.678.377.086.094.127.14.18.194.778.781 1.559 1.559 2.334 2.342.264.267.319.598.173.909-.159.34-.514.562-.863.538-.221-.015-.393-.125-.547-.279-.586-.59-1.184-1.17-1.759-1.771-.167-.175-.247-.142-.395.01-.59.607-1.19 1.206-1.793 1.8-.271.267-.593.316-.908.163-.334-.162-.546-.503-.53-.845.012-.232.126-.41.285-.568.769-.768 1.536-1.538 2.304-2.308.05-.05.098-.105.172-.184z" fill="#fff"/><path d="M12.276 12.083C10.41 12.077 8.878 10.53 8.89 8.66a3.422 3.422 0 013.428-3.409c1.89.005 3.406 1.55 3.396 3.46-.01 1.867-1.55 3.38-3.437 3.373zm1.697-3.42a1.664 1.664 0 00-1.67-1.668 1.667 1.667 0 00-1.673 1.689 1.664 1.664 0 001.682 1.655 1.66 1.66 0 001.661-1.675z" fill="#fff"/></svg><svg fill="none" viewBox="0 0 13 14" id="search" xmlns="http://www.w3.org/2000/svg"><path d="M12.772 12.168l-2.94-2.94A5.432 5.432 0 0010.92 5.96C10.92 2.95 8.47.5 5.46.5S0 2.95 0 5.96s2.45 5.46 5.46 5.46a5.432 5.432 0 003.268-1.089l2.94 2.94a.782.782 0 001.104-1.103zM1.56 5.96a3.9 3.9 0 117.8 0 3.9 3.9 0 01-7.8 0z" fill="#84AACB"/></svg><svg fill="none" viewBox="0 0 24 24" id="tg" xmlns="http://www.w3.org/2000/svg"><path fill="#fff" d="M4 6h16v13H4z"/><path d="M12 0C5.371 0 0 5.371 0 12s5.371 12 12 12 12-5.371 12-12S18.629 0 12 0zm5.893 8.221l-1.969 9.28c-.145.659-.537.818-1.084.509l-3-2.212-1.447 1.394c-.16.16-.295.295-.604.295l.213-3.053 5.56-5.023c.241-.213-.054-.334-.373-.12l-6.871 4.325-2.962-.924c-.643-.203-.658-.644.136-.953l11.57-4.462c.536-.193 1.006.131.831.944z" fill="#31A8E0"/></svg><svg fill="none" viewBox="0 0 24 24" id="twitter" xmlns="http://www.w3.org/2000/svg"><rect width="24" height="24" rx="12" fill="#4AA2D7"/><path d="M16.773 8.902c.005.125.007.251.007.38 0 3.886-2.476 8.368-7.005 8.368-1.392 0-2.685-.486-3.775-1.321.193.026.39.04.587.04 1.155 0 2.215-.469 3.058-1.258-1.077-.025-1.986-.874-2.3-2.043a2.047 2.047 0 001.112-.05c-1.125-.271-1.975-1.46-1.975-2.884v-.037c.333.22.712.353 1.116.368-.66-.527-1.095-1.428-1.095-2.449 0-.539.121-1.044.333-1.479 1.214 1.78 3.029 2.95 5.074 3.073a3.538 3.538 0 01-.063-.67c0-1.624 1.102-2.94 2.462-2.94.708 0 1.348.357 1.796.927a4.485 4.485 0 001.564-.713c-.184.687-.574 1.264-1.083 1.627.498-.07.973-.229 1.414-.462a5.642 5.642 0 01-1.227 1.523z" fill="#fff"/></svg><svg fill="none" viewBox="0 0 24 24" id="vk" xmlns="http://www.w3.org/2000/svg"><rect width="24" height="24" rx="12" fill="#497BAB"/><path d="M18.926 15.225a.977.977 0 00-.048-.091c-.243-.438-.707-.976-1.392-1.614l-.014-.014-.008-.008-.007-.007h-.007a8.429 8.429 0 01-.59-.599c-.152-.194-.185-.391-.103-.591.058-.15.277-.47.656-.956.2-.258.357-.465.474-.62.84-1.12 1.205-1.836 1.093-2.147l-.043-.073c-.03-.044-.105-.084-.226-.12a1.146 1.146 0 00-.467-.019l-2.099.015a.272.272 0 00-.146.004l-.095.021-.036.019-.029.022a.325.325 0 00-.08.076.499.499 0 00-.073.128 11.93 11.93 0 01-.78 1.643c-.18.301-.345.563-.496.784-.15.222-.277.385-.379.49a2.652 2.652 0 01-.277.251c-.082.064-.146.09-.19.08a5.403 5.403 0 01-.123-.028.484.484 0 01-.164-.18.802.802 0 01-.084-.284 3.16 3.16 0 01-.022-.646c.005-.151.008-.253.008-.307 0-.185.003-.386.01-.602l.019-.515c.005-.126.007-.26.007-.401 0-.141-.009-.252-.026-.333a1.14 1.14 0 00-.076-.233.393.393 0 00-.15-.175.84.84 0 00-.244-.099 4.843 4.843 0 00-.984-.095c-.903-.01-1.484.049-1.742.175a.982.982 0 00-.277.22c-.087.106-.1.165-.036.175.291.043.498.148.62.313l.043.088c.034.063.068.175.102.336.034.16.056.338.066.533.024.355.024.66 0 .912-.025.254-.048.45-.07.592a1.184 1.184 0 01-.186.503.126.126 0 01-.036.037.546.546 0 01-.197.037c-.068 0-.15-.035-.248-.103a1.75 1.75 0 01-.302-.28 3.761 3.761 0 01-.354-.501 8.727 8.727 0 01-.408-.76l-.116-.211a18.19 18.19 0 01-.3-.595c-.126-.26-.237-.512-.335-.756a.481.481 0 00-.174-.233l-.037-.022a.773.773 0 00-.284-.11l-1.997.015c-.204 0-.343.046-.416.139l-.03.043A.236.236 0 005 8.665c0 .054.015.12.044.197.291.687.608 1.349.951 1.986.343.638.64 1.151.893 1.54.253.39.51.757.772 1.103.263.345.437.567.522.664.085.098.152.17.2.22l.182.174c.117.117.288.257.514.42.226.163.477.324.751.482.275.158.594.287.959.387.364.1.719.14 1.064.12h.838c.17-.014.299-.068.386-.16l.03-.037a.481.481 0 00.054-.135.74.74 0 00.026-.2 2.41 2.41 0 01.047-.566c.036-.168.078-.294.124-.38a.934.934 0 01.28-.32.47.47 0 01.059-.027c.117-.038.254 0 .412.114.158.114.306.255.444.423.139.168.306.357.5.566.194.21.364.365.51.467l.146.088c.097.058.223.112.379.16.155.05.291.061.408.037l1.866-.03c.185 0 .328-.03.43-.09.102-.061.163-.128.182-.201a.565.565 0 00.004-.249.924.924 0 00-.051-.193z" fill="#fff"/></svg></svg>