<?xml version="1.0" encoding="utf-8"?><svg viewBox="0 0 473.93 473.93" xmlns="http://www.w3.org/2000/svg" xmlns:xlink="http://www.w3.org/1999/xlink"><style>:root>svg{display:none}:root>svg:target{display:block}</style><svg fill="none" viewBox="0 0 5 7" id="arrow" xmlns="http://www.w3.org/2000/svg"><path d="M1.862 6.711l2.82-2.526c.1-.09.18-.198.235-.316a.885.885 0 000-.744.972.972 0 00-.235-.316L1.862.282C1.176-.322 0 .107 0 .975v5.043c0 .878 1.176 1.308 1.862.693z" fill="#84AACB"/></svg><svg fill="none" viewBox="0 0 21 16" id="arrow-prev" xmlns="http://www.w3.org/2000/svg"><path d="M.293 7.293a1 1 0 000 1.414l6.364 6.364a1 1 0 001.414-1.414L2.414 8l5.657-5.657A1 1 0 006.657.93L.293 7.293zM21 7H1v2h20V7z" fill="#84AACB"/></svg><svg fill="none" viewBox="0 0 18 17" id="checkbox" xmlns="http://www.w3.org/2000/svg"><path d="M2 9l5 6 9-13" stroke="#84AACB" stroke-width="3" stroke-linecap="round" stroke-linejoin="round"/></svg><svg fill="none" viewBox="0 0 7 5" id="drop" xmlns="http://www.w3.org/2000/svg"><path d="M.289 1.862l2.526 2.82c.09.1.198.18.316.235a.885.885 0 00.744 0 .972.972 0 00.316-.235l2.527-2.82C7.322 1.176 6.893 0 6.025 0H.98C.104 0-.326 1.176.29 1.862z" fill="#fff"/></svg><svg fill="none" viewBox="0 0 24 24" id="fb" xmlns="http://www.w3.org/2000/svg"><rect width="24" height="24" rx="12" fill="#414F91"/><path d="M14.774 6.003L13.334 6c-1.616 0-2.66 1.16-2.66 2.953v1.362H9.225c-.125 0-.226.11-.226.245v1.973c0 .135.101.244.226.244h1.447v4.978c0 .136.101.245.227.245h1.887c.125 0 .227-.11.227-.245v-4.978h1.692c.125 0 .226-.11.226-.244V10.56a.256.256 0 00-.066-.173.218.218 0 00-.16-.072h-1.692V9.16c0-.555.122-.837.79-.837h.97c.125 0 .226-.11.226-.245V6.247c0-.135-.101-.244-.226-.244z" fill="#fff"/></svg><svg fill="none" viewBox="0 0 251 91" id="logo" xmlns="http://www.w3.org/2000/svg"><path fill-rule="evenodd" clip-rule="evenodd" d="M21.65 32.908H.36V1.038h21.29v31.87zM48.879 81.877h21.523V54.03H48.879v27.847zM.36 81.995h7.445L36.631 54.03H.36v27.965zM70.401.695h-7.563L29.634 32.908H70.4V.695zM94.972 54.03L83.429 78.877v3h21.562V71.62h7.455v10.257h2.066c0-1.517.005-3.029-.005-4.546-.019-6.157-.059-12.319-.088-18.48v-.636h4.275V82.01h1.706V58.215h1.538V82.01h1.706V58.215h.69c.276-.04.558-.02.848-.02V82.01h1.706V58.215h1.539V82.01h1.706V58.215h.577v-.02h3.57c.113 0 .227.02.369.03v23.652h2.101V71.62h6.918v10.257h22.134v-3L154.225 54.03H94.972zM124.32 10.341c-.498.348-.913.641-1.425 1.004 1.025.606 1.883.611 2.869-.01-.517-.358-.971-.67-1.444-.994zM127.14 8.53l-1.829 1.18c.399.48.256 1.067.784 1.424.862-.656 1.158-1.459 1.045-2.604z" fill="#0B2867"/><path fill-rule="evenodd" clip-rule="evenodd" d="M122.391 30.857c.158-.73.158-1.488.212-2.237.148-1.957.272-3.91.434-5.868.148-1.805.336-3.616.498-5.422.084-.95.148-1.9.227-2.848.035-.387.005-.74-.35-1.023-.108-.084-.202-.26-.187-.382.054-.524-.276-.793-.72-1.013-.109-.054-.202-.137-.301-.21-1.41-1.033-1.721-2.903-.286-4.288a41.19 41.19 0 00-.271.925c.646.025 1.297.054 1.997.078l.7-1.796c.187.495.35.852.449 1.219.108.401.34.587.798.568.439-.025.873-.005 1.391-.005-.049-.328-.084-.563-.128-.813 1.232 1.224 1.089 3.118-.587 4.22-.488.322-.897.62-.863 1.228.005.102-.054.25-.143.308-.532.367-.399.851-.34 1.34.103.892.197 1.777.266 2.668.153 1.958.266 3.915.429 5.868.153 1.87.345 3.734.518 5.599.074.802.138 1.61.207 2.413.044.528-.049 1.032-.222 1.522h18.259L129.038 0h-8.959l-15.29 32.908h17.76c-.241-.656-.32-1.327-.158-2.051z" fill="#0B2867"/><path fill-rule="evenodd" clip-rule="evenodd" d="M121.642 8.506c-.424.905.044 2.085 1.104 2.633.178-.49.35-.96.528-1.459-.577-.416-1.11-.792-1.632-1.174zM197.797 1.038h-21.296v31.87h21.296V1.038zM242.707 1.038h-21.291v31.87h21.291V1.038zM242.707 63.98v-9.95h-21.291v8.795h-23.619V54.03h-21.296v27.847h57.365V91h17.1V63.98h-8.259zM199.087 35.474c.346.354.856.526 1.54.526.698 0 1.228-.177 1.584-.53.362-.35.545-.84.545-1.47h-1.218c-.025.32-.109.536-.258.654-.148.118-.366.177-.653.177-.283 0-.486-.06-.619-.177-.134-.118-.213-.335-.233-.654h-1.238c.02.634.203 1.126.55 1.474zM3.734 43.658l.812-3.092v8.881H6.54V36.811H4.145L2.51 42.026l-.728 2.787V36.81H0v12.636h2.05l1.684-5.79zM14.023 49.447V36.811h-1.995v5.421H9.755v-5.42H7.759v12.635h1.996v-5.411h2.273v5.411h1.995zM21.07 38.36h.742c.99 0 1.738.27 2.238.8.5.531.753 1.303.753 2.315v3.431c0 1.008-.253 1.78-.753 2.31s-1.248.791-2.238.791h-.743v1.44h-1.995v-1.44h-.743c-.99 0-1.733-.26-2.233-.791-.5-.53-.753-1.303-.753-2.31v-3.43c0-1.013.253-1.785.753-2.315.5-.531 1.243-.802 2.233-.802h.743v-1.548h1.995v1.548zm-1.996 1.72h-.743c-.327 0-.574.098-.738.294-.168.197-.247.512-.247.95v3.7c0 .845.326 1.268.985 1.268h.743V40.08zm1.995 0v6.212h.738c.664 0 .995-.423.995-1.268v-3.7c0-.831-.331-1.244-.995-1.244h-.738zM26.724 48.76c-.525-.556-.788-1.338-.788-2.345v-6.571c0-1.013.263-1.794.788-2.345.525-.555 1.272-.83 2.253-.83.98 0 1.728.275 2.248.83.52.55.782 1.332.782 2.345v6.57c0 1.008-.262 1.79-.782 2.345-.52.55-1.268.826-2.248.826-.98 0-1.728-.275-2.253-.826zm1.208-2.222c0 .835.352 1.253 1.045 1.253.688 0 1.035-.418 1.035-1.253V39.72c0-.83-.347-1.244-1.035-1.244-.693 0-1.045.413-1.045 1.244v6.817zM38.475 37.612c.5.536.752 1.313.752 2.325v1.642c0 1.017-.252 1.789-.752 2.32-.495.53-1.238.796-2.229.796h-.945v4.752h-1.996V36.811h2.941c.986 0 1.729.266 2.229.801zm-1.248 2.192c0-.432-.08-.737-.238-.919-.158-.177-.406-.27-.738-.27h-.95v4.286h.95c.332 0 .58-.094.738-.276.159-.181.238-.491.238-.923v-1.898zM44.392 45.81l-1.48-8.999h-2.774v12.636h1.738v-8.915l1.496 8.915h1.891l1.382-9.058v9.058h2V36.811h-2.882l-1.371 9zM51.488 36.811h3.084l2.026 12.636h-2l-.347-2.29h-2.447l-.346 2.29h-1.996l2.026-12.636zm.574 8.626h1.926l-.965-6.36-.961 6.36zM64.515 51.148v-3.475h-.871V36.811h-1.996V47.64h-2.273V36.81h-2v12.636h5.14v1.7h2zM68.155 42.026l-.728 2.787V36.81h-1.788v12.636h2.05l1.689-5.79.807-3.09v8.88h1.995V36.811h-2.396l-1.63 5.215zM78.518 37.5c.52.55.783 1.331.783 2.344v6.57c0 1.008-.263 1.79-.783 2.345-.52.55-1.267.826-2.248.826-.975 0-1.728-.275-2.253-.826-.525-.555-.787-1.337-.787-2.344v-6.571c0-1.013.262-1.794.787-2.345.525-.555 1.278-.83 2.253-.83.98 0 1.728.275 2.248.83zm-1.213 2.22c0-.83-.346-1.243-1.035-1.243-.693 0-1.044.413-1.044 1.244v6.817c0 .835.351 1.253 1.044 1.253.689 0 1.035-.418 1.035-1.253V39.72zM84.867 49.447h2V36.811h-2v5.421h-2.273v-5.42h-1.996v12.635h1.996v-5.411h2.273v5.411zM90.353 44.036h2.273v5.411h1.995V36.811h-1.995v5.421h-2.273v-5.42h-1.996v12.635h1.996v-5.411zM96.73 48.76c-.524-.556-.787-1.338-.787-2.345v-6.571c0-1.013.263-1.794.788-2.345.525-.555 1.277-.83 2.253-.83.98 0 1.728.275 2.248.83.525.55.782 1.332.782 2.345v6.57c0 1.008-.257 1.79-.782 2.345-.52.55-1.268.826-2.248.826-.976 0-1.728-.275-2.253-.826zm1.214-2.222c0 .835.346 1.253 1.04 1.253.688 0 1.035-.418 1.035-1.253V39.72c0-.83-.347-1.244-1.035-1.244-.694 0-1.04.413-1.04 1.244v6.817zM106.852 42.232h-3.63v1.804h3.63v-1.804zM109.714 36.811h3.085l2.025 12.636h-1.995l-.347-2.29h-2.451l-.347 2.29h-1.995l2.025-12.636zm.58 8.626h1.926l-.966-6.36-.96 6.36zM121.875 49.447V36.811h-2v5.421h-2.273v-5.42h-1.996v12.635h1.996v-5.411h2.273v5.411h2zM124.866 36.811h3.085l.728 4.532 1.297 8.104h-1.995l-.347-2.29h-2.451l-.347 2.29h-1.995l2.025-12.636zm.579 8.626h1.927l-.847-5.564-.119-.796-.099.639-.862 5.72zM130.521 49.462c.594 0 1.079-.098 1.48-.27.273-.118.515-.27.699-.467.45-.497.693-1.317.728-2.468l.222-7.642h1.733v10.832h1.996V36.811h-5.724l-.223 9.55c-.01.295-.04.526-.079.698a.73.73 0 01-.218.393.704.704 0 01-.357.167c-.133.025-.326.04-.569.04v1.803h.312zM145.475 49.447V36.811h-2.397l-1.634 5.215-.728 2.787V36.81h-1.782v12.636h2.05l1.688-5.79.807-3.09v8.88h1.996zM148.199 49.447h2V38.615h2.095v-1.804h-6.19v1.804h2.095v10.832zM156.899 43.658l.807-3.092v8.881h2V36.811h-2.396l-1.634 5.215-.728 2.787V36.81h-1.783v12.636h2.05l1.684-5.79zM164.994 41.937c0 .418-.089.738-.272.964-.183.22-.441.334-.767.334-.337 0-.614-.108-.832-.32-.218-.21-.332-.516-.332-.923v-5.18h-1.996v5.347c0 .89.213 1.592.644 2.113.431.526 1.045.786 1.842.786.292 0 .594-.064.921-.187.322-.122.584-.294.792-.52v5.096h2.001V36.811h-2.001v5.126zM168.456 49.447h5.451V47.64h-3.451v-3.701h2.743v-1.8h-2.743v-3.523h3.451v-1.804h-5.451v12.636zM180.236 48.764c.54-.55.807-1.332.807-2.35v-1.68h-1.996v1.804c0 .82-.346 1.233-1.034 1.233-.699 0-1.045-.413-1.045-1.233V39.72c0-.83.346-1.244 1.045-1.244.688 0 1.034.413 1.034 1.244v1.356h1.996v-1.233c0-1.018-.267-1.8-.807-2.35-.535-.55-1.298-.825-2.273-.825-.98 0-1.723.275-2.233.825-.505.55-.758 1.332-.758 2.35v6.57c0 1.018.253 1.8.758 2.35.51.546 1.253.82 2.233.82.975 0 1.738-.274 2.273-.82zM186.767 36.811l-2.614 5.505V36.81h-2.001v12.636h2.001V45.57l.619-1.155 1.946 5.033h2.05l-2.778-7.003 2.778-5.633h-2.001zM196.215 49.447V36.811h-2.397l-1.634 5.215-.728 2.787V36.81h-1.782v12.636h2.05l1.683-5.79.808-3.09v8.88h2zM203.776 49.447V36.826h-2.203l-1.624 5.205-.733 2.782V36.83h-1.788v12.616h2.05l1.748-5.77.807-3.116-.059 8.886h1.802zM213.174 51.148h2.001v-3.475h-.872V36.811h-1.995V47.64h-2.273V36.81h-2v12.636h5.139v1.7zM221.751 47.639h-3.452v-3.701h2.744v-1.8h-2.744v-3.523h3.452v-1.804h-5.452v12.636h5.452V47.64zM229.252 49.447V36.811h-1.995v5.421h-2.273v-5.42h-2.001v12.635h2.001v-5.411h2.273v5.411h1.995zM234.249 49.447V38.615h2.094v-1.804h-6.184v1.804h2.094v10.832h1.996zM240.156 36.811c.986 0 1.728.266 2.228.801.5.536.748 1.313.748 2.325v1.642c0 1.017-.248 1.789-.748 2.32-.495.53-1.238.796-2.223.796h-.951v4.752h-1.995V36.811h2.941zm.005 1.804h-.951v4.286h.951c.332 0 .574-.094.738-.276.158-.181.238-.491.238-.923v-1.898c0-.432-.08-.737-.238-.919-.164-.177-.406-.27-.738-.27z" fill="#0B2867"/></svg><svg fill="none" viewBox="0 0 251 91" id="logo-light" xmlns="http://www.w3.org/2000/svg"><path fill-rule="evenodd" clip-rule="evenodd" d="M21.65 32.908H.36V1.038h21.29v31.87zM48.879 81.877h21.523V54.03H48.879v27.847zM.36 81.995h7.445L36.631 54.03H.36v27.965zM70.401.695h-7.563L29.634 32.908H70.4V.695zM94.972 54.03L83.429 78.877v3h21.562V71.62h7.455v10.257h2.066c0-1.517.005-3.029-.005-4.546-.019-6.157-.059-12.319-.088-18.48v-.636h4.275V82.01h1.706V58.215h1.538V82.01h1.706V58.215h.69c.276-.04.558-.02.848-.02V82.01h1.706V58.215h1.539V82.01h1.706V58.215h.577v-.02h3.57c.113 0 .227.02.369.03v23.652h2.101V71.62h6.918v10.257h22.134v-3L154.225 54.03H94.972zM124.32 10.341c-.498.348-.913.641-1.425 1.004 1.025.606 1.883.611 2.869-.01-.517-.358-.971-.67-1.444-.994zM127.14 8.53l-1.829 1.18c.399.48.256 1.067.784 1.424.862-.656 1.158-1.459 1.045-2.604z" fill="#fff"/><path fill-rule="evenodd" clip-rule="evenodd" d="M122.391 30.857c.158-.73.158-1.488.212-2.237.148-1.957.272-3.91.434-5.868.148-1.805.336-3.616.498-5.422.084-.95.148-1.9.227-2.848.035-.387.005-.74-.35-1.023-.108-.084-.202-.26-.187-.382.054-.524-.276-.793-.72-1.013-.109-.054-.202-.137-.301-.21-1.41-1.033-1.721-2.903-.286-4.288a41.19 41.19 0 00-.271.925c.646.025 1.297.054 1.997.078l.7-1.796c.187.495.35.852.449 1.219.108.401.34.587.798.568.439-.025.873-.005 1.391-.005-.049-.328-.084-.563-.128-.813 1.232 1.224 1.089 3.118-.587 4.22-.488.322-.897.62-.863 1.228.005.102-.054.25-.143.308-.532.367-.399.851-.34 1.34.103.892.197 1.777.266 2.668.153 1.958.266 3.915.429 5.868.153 1.87.345 3.734.518 5.599.074.802.138 1.61.207 2.413.044.528-.049 1.032-.222 1.522h18.259L129.038 0h-8.959l-15.29 32.908h17.76c-.241-.656-.32-1.327-.158-2.051z" fill="#fff"/><path fill-rule="evenodd" clip-rule="evenodd" d="M121.642 8.506c-.424.905.044 2.085 1.104 2.633.178-.49.35-.96.528-1.459-.577-.416-1.11-.792-1.632-1.174zM197.797 1.038h-21.296v31.87h21.296V1.038zM242.707 1.038h-21.291v31.87h21.291V1.038zM242.707 63.98v-9.95h-21.291v8.795h-23.619V54.03h-21.296v27.847h57.365V91h17.1V63.98h-8.259zM199.087 35.474c.346.354.856.526 1.54.526.698 0 1.228-.177 1.584-.53.362-.35.545-.84.545-1.47h-1.218c-.025.32-.109.536-.258.654-.148.118-.366.177-.653.177-.283 0-.486-.06-.619-.177-.134-.118-.213-.335-.233-.654h-1.238c.02.634.203 1.126.55 1.474zM3.734 43.658l.812-3.092v8.881H6.54V36.811H4.145L2.51 42.026l-.728 2.787V36.81H0v12.636h2.05l1.684-5.79zM14.023 49.447V36.811h-1.995v5.421H9.755v-5.42H7.759v12.635h1.996v-5.411h2.273v5.411h1.995zM21.07 38.36h.742c.99 0 1.738.27 2.238.8.5.531.753 1.303.753 2.315v3.431c0 1.008-.253 1.78-.753 2.31s-1.248.791-2.238.791h-.743v1.44h-1.995v-1.44h-.743c-.99 0-1.733-.26-2.233-.791-.5-.53-.753-1.303-.753-2.31v-3.43c0-1.013.253-1.785.753-2.315.5-.531 1.243-.802 2.233-.802h.743v-1.548h1.995v1.548zm-1.996 1.72h-.743c-.327 0-.574.098-.738.294-.168.197-.247.512-.247.95v3.7c0 .845.326 1.268.985 1.268h.743V40.08zm1.995 0v6.212h.738c.664 0 .995-.423.995-1.268v-3.7c0-.831-.331-1.244-.995-1.244h-.738zM26.724 48.76c-.525-.556-.788-1.338-.788-2.345v-6.571c0-1.013.263-1.794.788-2.345.525-.555 1.272-.83 2.253-.83.98 0 1.728.275 2.248.83.52.55.782 1.332.782 2.345v6.57c0 1.008-.262 1.79-.782 2.345-.52.55-1.268.826-2.248.826-.98 0-1.728-.275-2.253-.826zm1.208-2.222c0 .835.352 1.253 1.045 1.253.688 0 1.035-.418 1.035-1.253V39.72c0-.83-.347-1.244-1.035-1.244-.693 0-1.045.413-1.045 1.244v6.817zM38.475 37.612c.5.536.752 1.313.752 2.325v1.642c0 1.017-.252 1.789-.752 2.32-.495.53-1.238.796-2.229.796h-.945v4.752h-1.996V36.811h2.941c.986 0 1.729.266 2.229.801zm-1.248 2.192c0-.432-.08-.737-.238-.919-.158-.177-.406-.27-.738-.27h-.95v4.286h.95c.332 0 .58-.094.738-.276.159-.181.238-.491.238-.923v-1.898zM44.392 45.81l-1.48-8.999h-2.774v12.636h1.738v-8.915l1.496 8.915h1.891l1.382-9.058v9.058h2V36.811h-2.882l-1.371 9zM51.488 36.811h3.084l2.026 12.636h-2l-.347-2.29h-2.447l-.346 2.29h-1.996l2.026-12.636zm.574 8.626h1.926l-.965-6.36-.961 6.36zM64.515 51.148v-3.475h-.871V36.811h-1.996V47.64h-2.273V36.81h-2v12.636h5.14v1.7h2zM68.155 42.026l-.728 2.787V36.81h-1.788v12.636h2.05l1.689-5.79.807-3.09v8.88h1.995V36.811h-2.396l-1.63 5.215zM78.518 37.5c.52.55.783 1.331.783 2.344v6.57c0 1.008-.263 1.79-.783 2.345-.52.55-1.267.826-2.248.826-.975 0-1.728-.275-2.253-.826-.525-.555-.787-1.337-.787-2.344v-6.571c0-1.013.262-1.794.787-2.345.525-.555 1.278-.83 2.253-.83.98 0 1.728.275 2.248.83zm-1.213 2.22c0-.83-.346-1.243-1.035-1.243-.693 0-1.044.413-1.044 1.244v6.817c0 .835.351 1.253 1.044 1.253.689 0 1.035-.418 1.035-1.253V39.72zM84.867 49.447h2V36.811h-2v5.421h-2.273v-5.42h-1.996v12.635h1.996v-5.411h2.273v5.411zM90.353 44.036h2.273v5.411h1.995V36.811h-1.995v5.421h-2.273v-5.42h-1.996v12.635h1.996v-5.411zM96.73 48.76c-.524-.556-.787-1.338-.787-2.345v-6.571c0-1.013.263-1.794.788-2.345.525-.555 1.277-.83 2.253-.83.98 0 1.728.275 2.248.83.525.55.782 1.332.782 2.345v6.57c0 1.008-.257 1.79-.782 2.345-.52.55-1.268.826-2.248.826-.976 0-1.728-.275-2.253-.826zm1.214-2.222c0 .835.346 1.253 1.04 1.253.688 0 1.035-.418 1.035-1.253V39.72c0-.83-.347-1.244-1.035-1.244-.694 0-1.04.413-1.04 1.244v6.817zM106.852 42.232h-3.63v1.804h3.63v-1.804zM109.714 36.811h3.085l2.025 12.636h-1.995l-.347-2.29h-2.451l-.347 2.29h-1.995l2.025-12.636zm.58 8.626h1.926l-.966-6.36-.96 6.36zM121.875 49.447V36.811h-2v5.421h-2.273v-5.42h-1.996v12.635h1.996v-5.411h2.273v5.411h2zM124.866 36.811h3.085l.728 4.532 1.297 8.104h-1.995l-.347-2.29h-2.451l-.347 2.29h-1.995l2.025-12.636zm.579 8.626h1.927l-.847-5.564-.119-.796-.099.639-.862 5.72zM130.521 49.462c.594 0 1.079-.098 1.48-.27.273-.118.515-.27.699-.467.45-.497.693-1.317.728-2.468l.222-7.642h1.733v10.832h1.996V36.811h-5.724l-.223 9.55c-.01.295-.04.526-.079.698a.73.73 0 01-.218.393.704.704 0 01-.357.167c-.133.025-.326.04-.569.04v1.803h.312zM145.475 49.447V36.811h-2.397l-1.634 5.215-.728 2.787V36.81h-1.782v12.636h2.05l1.688-5.79.807-3.09v8.88h1.996zM148.199 49.447h2V38.615h2.095v-1.804h-6.19v1.804h2.095v10.832zM156.899 43.658l.807-3.092v8.881h2V36.811h-2.396l-1.634 5.215-.728 2.787V36.81h-1.783v12.636h2.05l1.684-5.79zM164.994 41.937c0 .418-.089.738-.272.964-.183.22-.441.334-.767.334-.337 0-.614-.108-.832-.32-.218-.21-.332-.516-.332-.923v-5.18h-1.996v5.347c0 .89.213 1.592.644 2.113.431.526 1.045.786 1.842.786.292 0 .594-.064.921-.187.322-.122.584-.294.792-.52v5.096h2.001V36.811h-2.001v5.126zM168.456 49.447h5.451V47.64h-3.451v-3.701h2.743v-1.8h-2.743v-3.523h3.451v-1.804h-5.451v12.636zM180.236 48.764c.54-.55.807-1.332.807-2.35v-1.68h-1.996v1.804c0 .82-.346 1.233-1.034 1.233-.699 0-1.045-.413-1.045-1.233V39.72c0-.83.346-1.244 1.045-1.244.688 0 1.034.413 1.034 1.244v1.356h1.996v-1.233c0-1.018-.267-1.8-.807-2.35-.535-.55-1.298-.825-2.273-.825-.98 0-1.723.275-2.233.825-.505.55-.758 1.332-.758 2.35v6.57c0 1.018.253 1.8.758 2.35.51.546 1.253.82 2.233.82.975 0 1.738-.274 2.273-.82zM186.767 36.811l-2.614 5.505V36.81h-2.001v12.636h2.001V45.57l.619-1.155 1.946 5.033h2.05l-2.778-7.003 2.778-5.633h-2.001zM196.215 49.447V36.811h-2.397l-1.634 5.215-.728 2.787V36.81h-1.782v12.636h2.05l1.683-5.79.808-3.09v8.88h2zM203.776 49.447V36.826h-2.203l-1.624 5.205-.733 2.782V36.83h-1.788v12.616h2.05l1.748-5.77.807-3.116-.059 8.886h1.802zM213.174 51.148h2.001v-3.475h-.872V36.811h-1.995V47.64h-2.273V36.81h-2v12.636h5.139v1.7zM221.751 47.639h-3.452v-3.701h2.744v-1.8h-2.744v-3.523h3.452v-1.804h-5.452v12.636h5.452V47.64zM229.252 49.447V36.811h-1.995v5.421h-2.273v-5.42h-2.001v12.635h2.001v-5.411h2.273v5.411h1.995zM234.249 49.447V38.615h2.094v-1.804h-6.184v1.804h2.094v10.832h1.996zM240.156 36.811c.986 0 1.728.266 2.228.801.5.536.748 1.313.748 2.325v1.642c0 1.017-.248 1.789-.748 2.32-.495.53-1.238.796-2.223.796h-.951v4.752h-1.995V36.811h2.941zm.005 1.804h-.951v4.286h.951c.332 0 .574-.094.738-.276.158-.181.238-.491.238-.923v-1.898c0-.432-.08-.737-.238-.919-.164-.177-.406-.27-.738-.27z" fill="#fff"/></svg><svg fill="none" viewBox="0 0 20 15" id="mail" xmlns="http://www.w3.org/2000/svg"><path d="M18.611 0H.639A.64.64 0 000 .64v1.285c0 .06.064.128.117.155l9.446 5.396a.158.158 0 00.16-.001l9.162-5.39c.051-.028.188-.105.239-.14.062-.042.126-.08.126-.156V.64A.64.64 0 0018.611 0zM19.17 3.864a.161.161 0 00-.161.001l-5.184 3.05a.16.16 0 00-.037.247l5.185 5.589a.158.158 0 00.117.05.16.16 0 00.16-.159v-8.64a.16.16 0 00-.08-.138zM12.33 7.94a.159.159 0 00-.197-.03l-2.078 1.223a.81.81 0 01-.802.005L7.424 8.093a.16.16 0 00-.188.022L.292 14.556a.16.16 0 00.028.255.618.618 0 00.319.094h17.788a.158.158 0 00.146-.096.159.159 0 00-.03-.172L12.332 7.94zM5.708 7.353a.16.16 0 00-.028-.256L.238 3.99A.16.16 0 000 4.13v8.154a.16.16 0 00.268.117l5.44-5.047z" fill="#84AACB"/></svg><svg fill="none" viewBox="0 0 16 20" id="marker" xmlns="http://www.w3.org/2000/svg"><path d="M8 0C3.59 0 0 3.589 0 7.995-.029 14.44 7.696 19.784 8 20c0 0 8.03-5.56 8-12 0-4.411-3.589-8-8-8zm0 12c-2.21 0-4-1.79-4-4s1.79-4 4-4 4 1.79 4 4-1.79 4-4 4z" fill="#84AACB"/></svg><svg viewBox="0 0 341.333 341.333" id="menu" xmlns="http://www.w3.org/2000/svg"><path d="M0 277.333h341.333V320H0zM0 149.333h341.333V192H0zM0 21.333h341.333V64H0z"/></svg><svg fill="none" viewBox="0 0 294 283" id="none" xmlns="http://www.w3.org/2000/svg"><g clip-path="url(#kclip0)"><path d="M238.335 279.527V99.04h-43.46V55.39H86.219V265.62" stroke="#0B2867" stroke-width="7" stroke-miterlimit="10" stroke-linecap="round" stroke-linejoin="round"/><path d="M86.219 265.619l16.893 13.908 16.894-13.908 16.893 13.908 16.894-13.908 16.893 13.908 16.893-13.908 16.909 13.908 16.923-13.908 16.924 13.908" stroke="#0B2867" stroke-width="7" stroke-miterlimit="10" stroke-linecap="round" stroke-linejoin="round"/><path d="M194.875 99.04h43.46l-43.46-43.438V99.04z" fill="#84AACB"/><path d="M194.875 99.04h43.46l-43.46-43.438V99.04zM253.378 40.551l15.058-15.036M253.378 40.551l7.537-7.518" stroke="#0B2867" stroke-width="7" stroke-miterlimit="10" stroke-linecap="round" stroke-linejoin="round"/><path d="M224.751 24.027l2.753-10.27" stroke="#84AACB" stroke-width="7" stroke-miterlimit="10" stroke-linecap="round" stroke-linejoin="round"/><path d="M191.686 24.027l-5.505-20.554M191.686 24.027l-2.752-10.27M269.91 102.212l20.564 5.518M269.91 102.212l10.29 2.767" stroke="#0B2867" stroke-width="7" stroke-miterlimit="10" stroke-linecap="round" stroke-linejoin="round"/><path d="M269.91 69.179l10.29-2.752" stroke="#84AACB" stroke-width="7" stroke-miterlimit="10" stroke-linecap="round" stroke-linejoin="round"/><path d="M86.46 12.164c36.013 0 65.196 29.169 65.196 65.15 0 35.994-29.183 65.163-65.197 65.163-35.998 0-65.182-29.169-65.182-65.164 0-35.98 29.184-65.15 65.182-65.15z" fill="#fff"/><path d="M86.46 12.164c36.013 0 65.196 29.169 65.196 65.15 0 35.994-29.183 65.163-65.197 65.163-35.998 0-65.182-29.169-65.182-65.164 0-35.98 29.184-65.15 65.182-65.15z" stroke="#84AACB" stroke-width="7" stroke-miterlimit="10" stroke-linecap="round" stroke-linejoin="round"/><path d="M34.982 117.263L5.918 146.311c-3.189 3.188-3.189 8.345 0 11.518 3.174 3.187 8.334 3.187 11.523 0l29.064-29.049c-2.122-1.654-4.182-3.428-6.138-5.383a68.545 68.545 0 01-5.385-6.134zM42.293 59.03c4.693-11.292 13.69-20.81 25.874-25.846" stroke="#84AACB" stroke-width="7" stroke-miterlimit="10" stroke-linecap="round" stroke-linejoin="round"/><path d="M86.219 125.081v-69.69h42.692" stroke="#0B2867" stroke-width="7" stroke-miterlimit="10" stroke-linecap="round" stroke-linejoin="round"/><path d="M34.981 117.263l-8.59 8.585 11.524 11.517 8.59-8.585c-2.122-1.654-4.183-3.428-6.138-5.383a68.546 68.546 0 01-5.386-6.134z" stroke="#84AACB" stroke-width="7" stroke-miterlimit="10" stroke-linecap="round" stroke-linejoin="round"/><path d="M124.346 197.221h7.06v-20.596l-7.06 20.596zm7.06 18.779v-11.865h-14.267v-7.676l12.334-29.063h9.785v29.825h5.039v6.914h-5.039V216h-7.852zm38.877-3.193c-2.168 2.578-5.293 3.867-9.375 3.867s-7.207-1.289-9.375-3.867c-2.168-2.578-3.252-6.016-3.252-10.313v-21.357c0-4.434 1.045-7.92 3.135-10.459 2.109-2.559 5.273-3.838 9.492-3.838 4.18 0 7.324 1.279 9.434 3.838 2.129 2.558 3.193 6.045 3.193 10.459v21.357c0 4.297-1.084 7.735-3.252 10.313zm-13.594-10.43c0 4.766 1.407 7.148 4.219 7.148 2.813 0 4.219-2.382 4.219-7.148v-21.094c0-.625-.02-1.191-.059-1.699a18.363 18.363 0 00-.205-1.67c-.078-.586-.224-1.094-.439-1.523-.195-.45-.44-.86-.733-1.231a2.675 2.675 0 00-1.171-.879c-.469-.195-1.006-.293-1.612-.293-.722 0-1.357.157-1.904.469-.527.293-.938.664-1.231 1.113-.293.45-.527 1.026-.703 1.729a15.444 15.444 0 00-.322 1.933c-.039.586-.059 1.27-.059 2.051v21.094zm28.829-5.156h7.06v-20.596l-7.06 20.596zm7.06 18.779v-11.865h-14.267v-7.676l12.334-29.063h9.785v29.825h5.039v6.914h-5.039V216h-7.852z" fill="#0B2867"/></g><defs><clipPath id="kclip0"><path fill="#fff" d="M0 0h294v283H0z"/></clipPath></defs></svg><svg fill="none" viewBox="0 0 24 24" id="ok" xmlns="http://www.w3.org/2000/svg"><circle cx="12" cy="12" r="12" fill="#F7931E"/><path d="M11.639 14.759c-1.047-.11-1.99-.367-2.798-.999-.1-.079-.204-.154-.296-.242-.353-.34-.389-.729-.11-1.13.24-.342.642-.434 1.06-.237.08.038.158.085.232.137 1.505 1.034 3.574 1.063 5.085.046.15-.115.31-.208.495-.256.36-.093.697.04.89.355.222.36.22.713-.053.992-.418.43-.921.74-1.48.956-.527.205-1.106.308-1.678.377.086.094.127.14.18.194.778.781 1.559 1.559 2.334 2.342.264.267.319.598.173.909-.159.34-.514.562-.863.538-.221-.015-.393-.125-.547-.279-.586-.59-1.184-1.17-1.759-1.771-.167-.175-.247-.142-.395.01-.59.607-1.19 1.206-1.793 1.8-.271.267-.593.316-.908.163-.334-.162-.546-.503-.53-.845.012-.232.126-.41.285-.568.769-.768 1.536-1.538 2.304-2.308.05-.05.098-.105.172-.184z" fill="#fff"/><path d="M12.276 12.083C10.41 12.077 8.878 10.53 8.89 8.66a3.422 3.422 0 013.428-3.409c1.89.005 3.406 1.55 3.396 3.46-.01 1.867-1.55 3.38-3.437 3.373zm1.697-3.42a1.664 1.664 0 00-1.67-1.668 1.667 1.667 0 00-1.673 1.689 1.664 1.664 0 001.682 1.655 1.66 1.66 0 001.661-1.675z" fill="#fff"/></svg><svg fill="none" viewBox="0 0 13 14" id="search" xmlns="http://www.w3.org/2000/svg"><path d="M12.772 12.168l-2.94-2.94A5.432 5.432 0 0010.92 5.96C10.92 2.95 8.47.5 5.46.5S0 2.95 0 5.96s2.45 5.46 5.46 5.46a5.432 5.432 0 003.268-1.089l2.94 2.94a.782.782 0 001.104-1.103zM1.56 5.96a3.9 3.9 0 117.8 0 3.9 3.9 0 01-7.8 0z" fill="#84AACB"/></svg><svg fill="none" viewBox="0 0 24 24" id="tg" xmlns="http://www.w3.org/2000/svg"><path fill="#fff" d="M4 6h16v13H4z"/><path d="M12 0C5.371 0 0 5.371 0 12s5.371 12 12 12 12-5.371 12-12S18.629 0 12 0zm5.893 8.221l-1.969 9.28c-.145.659-.537.818-1.084.509l-3-2.212-1.447 1.394c-.16.16-.295.295-.604.295l.213-3.053 5.56-5.023c.241-.213-.054-.334-.373-.12l-6.871 4.325-2.962-.924c-.643-.203-.658-.644.136-.953l11.57-4.462c.536-.193 1.006.131.831.944z" fill="#31A8E0"/></svg><svg fill="none" viewBox="0 0 24 24" id="twitter" xmlns="http://www.w3.org/2000/svg"><rect width="24" height="24" rx="12" fill="#4AA2D7"/><path d="M16.773 8.902c.005.125.007.251.007.38 0 3.886-2.476 8.368-7.005 8.368-1.392 0-2.685-.486-3.775-1.321.193.026.39.04.587.04 1.155 0 2.215-.469 3.058-1.258-1.077-.025-1.986-.874-2.3-2.043a2.047 2.047 0 001.112-.05c-1.125-.271-1.975-1.46-1.975-2.884v-.037c.333.22.712.353 1.116.368-.66-.527-1.095-1.428-1.095-2.449 0-.539.121-1.044.333-1.479 1.214 1.78 3.029 2.95 5.074 3.073a3.538 3.538 0 01-.063-.67c0-1.624 1.102-2.94 2.462-2.94.708 0 1.348.357 1.796.927a4.485 4.485 0 001.564-.713c-.184.687-.574 1.264-1.083 1.627.498-.07.973-.229 1.414-.462a5.642 5.642 0 01-1.227 1.523z" fill="#fff"/></svg><svg fill="none" viewBox="0 0 24 24" id="vk" xmlns="http://www.w3.org/2000/svg"><rect width="24" height="24" rx="12" fill="#497BAB"/><path d="M18.926 15.225a.977.977 0 00-.048-.091c-.243-.438-.707-.976-1.392-1.614l-.014-.014-.008-.008-.007-.007h-.007a8.429 8.429 0 01-.59-.599c-.152-.194-.185-.391-.103-.591.058-.15.277-.47.656-.956.2-.258.357-.465.474-.62.84-1.12 1.205-1.836 1.093-2.147l-.043-.073c-.03-.044-.105-.084-.226-.12a1.146 1.146 0 00-.467-.019l-2.099.015a.272.272 0 00-.146.004l-.095.021-.036.019-.029.022a.325.325 0 00-.08.076.499.499 0 00-.073.128 11.93 11.93 0 01-.78 1.643c-.18.301-.345.563-.496.784-.15.222-.277.385-.379.49a2.652 2.652 0 01-.277.251c-.082.064-.146.09-.19.08a5.403 5.403 0 01-.123-.028.484.484 0 01-.164-.18.802.802 0 01-.084-.284 3.16 3.16 0 01-.022-.646c.005-.151.008-.253.008-.307 0-.185.003-.386.01-.602l.019-.515c.005-.126.007-.26.007-.401 0-.141-.009-.252-.026-.333a1.14 1.14 0 00-.076-.233.393.393 0 00-.15-.175.84.84 0 00-.244-.099 4.843 4.843 0 00-.984-.095c-.903-.01-1.484.049-1.742.175a.982.982 0 00-.277.22c-.087.106-.1.165-.036.175.291.043.498.148.62.313l.043.088c.034.063.068.175.102.336.034.16.056.338.066.533.024.355.024.66 0 .912-.025.254-.048.45-.07.592a1.184 1.184 0 01-.186.503.126.126 0 01-.036.037.546.546 0 01-.197.037c-.068 0-.15-.035-.248-.103a1.75 1.75 0 01-.302-.28 3.761 3.761 0 01-.354-.501 8.727 8.727 0 01-.408-.76l-.116-.211a18.19 18.19 0 01-.3-.595c-.126-.26-.237-.512-.335-.756a.481.481 0 00-.174-.233l-.037-.022a.773.773 0 00-.284-.11l-1.997.015c-.204 0-.343.046-.416.139l-.03.043A.236.236 0 005 8.665c0 .054.015.12.044.197.291.687.608 1.349.951 1.986.343.638.64 1.151.893 1.54.253.39.51.757.772 1.103.263.345.437.567.522.664.085.098.152.17.2.22l.182.174c.117.117.288.257.514.42.226.163.477.324.751.482.275.158.594.287.959.387.364.1.719.14 1.064.12h.838c.17-.014.299-.068.386-.16l.03-.037a.481.481 0 00.054-.135.74.74 0 00.026-.2 2.41 2.41 0 01.047-.566c.036-.168.078-.294.124-.38a.934.934 0 01.28-.32.47.47 0 01.059-.027c.117-.038.254 0 .412.114.158.114.306.255.444.423.139.168.306.357.5.566.194.21.364.365.51.467l.146.088c.097.058.223.112.379.16.155.05.291.061.408.037l1.866-.03c.185 0 .328-.03.43-.09.102-.061.163-.128.182-.201a.565.565 0 00.004-.249.924.924 0 00-.051-.193z" fill="#fff"/></svg><svg viewBox="0 0 473.931 473.931" id="youtube" xmlns="http://www.w3.org/2000/svg"><circle cx="236.966" cy="236.966" r="236.966" fill="#d42428"/><path d="M404.518 69.38c92.541 92.549 92.549 242.593 0 335.142-92.541 92.541-242.593 92.545-335.142 0L404.518 69.38z" fill="#cc202d"/><path d="M360.971 191.238c0-19.865-16.093-35.966-35.947-35.966H156.372c-19.85 0-35.94 16.105-35.94 35.966v96.444c0 19.865 16.093 35.966 35.94 35.966h168.649c19.858 0 35.947-16.105 35.947-35.966v-96.444h.003zM216.64 280.146v-90.584l68.695 45.294-68.695 45.29z" fill="#fff"/></svg></svg>