<?xml version="1.0" encoding="utf-8"?><svg viewBox="0 0 24 24" xmlns="http://www.w3.org/2000/svg" xmlns:xlink="http://www.w3.org/1999/xlink"><style>:root>svg{display:none}:root>svg:target{display:block}</style><svg fill="none" viewBox="0 0 24 24" id="fb" xmlns="http://www.w3.org/2000/svg"><rect width="24" height="24" rx="12" fill="#414F91"/><path d="M14.774 6.003L13.334 6c-1.616 0-2.66 1.16-2.66 2.953v1.362H9.225c-.125 0-.226.11-.226.245v1.973c0 .135.101.244.226.244h1.447v4.978c0 .136.101.245.227.245h1.887c.125 0 .227-.11.227-.245v-4.978h1.692c.125 0 .226-.11.226-.244V10.56a.256.256 0 00-.066-.173.218.218 0 00-.16-.072h-1.692V9.16c0-.555.122-.837.79-.837h.97c.125 0 .226-.11.226-.245V6.247c0-.135-.101-.244-.226-.244z" fill="#fff"/></svg><svg fill="none" viewBox="0 0 20 15" id="mail" xmlns="http://www.w3.org/2000/svg"><path d="M18.611 0H.639A.64.64 0 000 .64v1.285c0 .06.064.128.117.155l9.446 5.396a.158.158 0 00.16-.001l9.162-5.39c.051-.028.188-.105.239-.14.062-.042.126-.08.126-.156V.64A.64.64 0 0018.611 0zM19.17 3.864a.161.161 0 00-.161.001l-5.184 3.05a.16.16 0 00-.037.247l5.185 5.589a.158.158 0 00.117.05.16.16 0 00.16-.159v-8.64a.16.16 0 00-.08-.138zM12.33 7.94a.159.159 0 00-.197-.03l-2.078 1.223a.81.81 0 01-.802.005L7.424 8.093a.16.16 0 00-.188.022L.292 14.556a.16.16 0 00.028.255.618.618 0 00.319.094h17.788a.158.158 0 00.146-.096.159.159 0 00-.03-.172L12.332 7.94zM5.708 7.353a.16.16 0 00-.028-.256L.238 3.99A.16.16 0 000 4.13v8.154a.16.16 0 00.268.117l5.44-5.047z" fill="#84AACB"/></svg><svg fill="none" viewBox="0 0 16 20" id="marker" xmlns="http://www.w3.org/2000/svg"><path d="M8 0C3.59 0 0 3.589 0 7.995-.029 14.44 7.696 19.784 8 20c0 0 8.03-5.56 8-12 0-4.411-3.589-8-8-8zm0 12c-2.21 0-4-1.79-4-4s1.79-4 4-4 4 1.79 4 4-1.79 4-4 4z" fill="#84AACB"/></svg><svg fill="none" viewBox="0 0 24 24" id="ok" xmlns="http://www.w3.org/2000/svg"><circle cx="12" cy="12" r="12" fill="#F7931E"/><path d="M11.639 14.759c-1.047-.11-1.99-.367-2.798-.999-.1-.079-.204-.154-.296-.242-.353-.34-.389-.729-.11-1.13.24-.342.642-.434 1.06-.237.08.038.158.085.232.137 1.505 1.034 3.574 1.063 5.085.046.15-.115.31-.208.495-.256.36-.093.697.04.89.355.222.36.22.713-.053.992-.418.43-.921.74-1.48.956-.527.205-1.106.308-1.678.377.086.094.127.14.18.194.778.781 1.559 1.559 2.334 2.342.264.267.319.598.173.909-.159.34-.514.562-.863.538-.221-.015-.393-.125-.547-.279-.586-.59-1.184-1.17-1.759-1.771-.167-.175-.247-.142-.395.01-.59.607-1.19 1.206-1.793 1.8-.271.267-.593.316-.908.163-.334-.162-.546-.503-.53-.845.012-.232.126-.41.285-.568.769-.768 1.536-1.538 2.304-2.308.05-.05.098-.105.172-.184z" fill="#fff"/><path d="M12.276 12.083C10.41 12.077 8.878 10.53 8.89 8.66a3.422 3.422 0 013.428-3.409c1.89.005 3.406 1.55 3.396 3.46-.01 1.867-1.55 3.38-3.437 3.373zm1.697-3.42a1.664 1.664 0 00-1.67-1.668 1.667 1.667 0 00-1.673 1.689 1.664 1.664 0 001.682 1.655 1.66 1.66 0 001.661-1.675z" fill="#fff"/></svg><svg fill="none" viewBox="0 0 24 24" id="tg" xmlns="http://www.w3.org/2000/svg"><path fill="#fff" d="M4 6h16v13H4z"/><path d="M12 0C5.371 0 0 5.371 0 12s5.371 12 12 12 12-5.371 12-12S18.629 0 12 0zm5.893 8.221l-1.969 9.28c-.145.659-.537.818-1.084.509l-3-2.212-1.447 1.394c-.16.16-.295.295-.604.295l.213-3.053 5.56-5.023c.241-.213-.054-.334-.373-.12l-6.871 4.325-2.962-.924c-.643-.203-.658-.644.136-.953l11.57-4.462c.536-.193 1.006.131.831.944z" fill="#31A8E0"/></svg><svg fill="none" viewBox="0 0 24 24" id="twitter" xmlns="http://www.w3.org/2000/svg"><rect width="24" height="24" rx="12" fill="#4AA2D7"/><path d="M16.773 8.902c.005.125.007.251.007.38 0 3.886-2.476 8.368-7.005 8.368-1.392 0-2.685-.486-3.775-1.321.193.026.39.04.587.04 1.155 0 2.215-.469 3.058-1.258-1.077-.025-1.986-.874-2.3-2.043a2.047 2.047 0 001.112-.05c-1.125-.271-1.975-1.46-1.975-2.884v-.037c.333.22.712.353 1.116.368-.66-.527-1.095-1.428-1.095-2.449 0-.539.121-1.044.333-1.479 1.214 1.78 3.029 2.95 5.074 3.073a3.538 3.538 0 01-.063-.67c0-1.624 1.102-2.94 2.462-2.94.708 0 1.348.357 1.796.927a4.485 4.485 0 001.564-.713c-.184.687-.574 1.264-1.083 1.627.498-.07.973-.229 1.414-.462a5.642 5.642 0 01-1.227 1.523z" fill="#fff"/></svg><svg fill="none" viewBox="0 0 24 24" id="vk" xmlns="http://www.w3.org/2000/svg"><rect width="24" height="24" rx="12" fill="#497BAB"/><path d="M18.926 15.225a.977.977 0 00-.048-.091c-.243-.438-.707-.976-1.392-1.614l-.014-.014-.008-.008-.007-.007h-.007a8.429 8.429 0 01-.59-.599c-.152-.194-.185-.391-.103-.591.058-.15.277-.47.656-.956.2-.258.357-.465.474-.62.84-1.12 1.205-1.836 1.093-2.147l-.043-.073c-.03-.044-.105-.084-.226-.12a1.146 1.146 0 00-.467-.019l-2.099.015a.272.272 0 00-.146.004l-.095.021-.036.019-.029.022a.325.325 0 00-.08.076.499.499 0 00-.073.128 11.93 11.93 0 01-.78 1.643c-.18.301-.345.563-.496.784-.15.222-.277.385-.379.49a2.652 2.652 0 01-.277.251c-.082.064-.146.09-.19.08a5.403 5.403 0 01-.123-.028.484.484 0 01-.164-.18.802.802 0 01-.084-.284 3.16 3.16 0 01-.022-.646c.005-.151.008-.253.008-.307 0-.185.003-.386.01-.602l.019-.515c.005-.126.007-.26.007-.401 0-.141-.009-.252-.026-.333a1.14 1.14 0 00-.076-.233.393.393 0 00-.15-.175.84.84 0 00-.244-.099 4.843 4.843 0 00-.984-.095c-.903-.01-1.484.049-1.742.175a.982.982 0 00-.277.22c-.087.106-.1.165-.036.175.291.043.498.148.62.313l.043.088c.034.063.068.175.102.336.034.16.056.338.066.533.024.355.024.66 0 .912-.025.254-.048.45-.07.592a1.184 1.184 0 01-.186.503.126.126 0 01-.036.037.546.546 0 01-.197.037c-.068 0-.15-.035-.248-.103a1.75 1.75 0 01-.302-.28 3.761 3.761 0 01-.354-.501 8.727 8.727 0 01-.408-.76l-.116-.211a18.19 18.19 0 01-.3-.595c-.126-.26-.237-.512-.335-.756a.481.481 0 00-.174-.233l-.037-.022a.773.773 0 00-.284-.11l-1.997.015c-.204 0-.343.046-.416.139l-.03.043A.236.236 0 005 8.665c0 .054.015.12.044.197.291.687.608 1.349.951 1.986.343.638.64 1.151.893 1.54.253.39.51.757.772 1.103.263.345.437.567.522.664.085.098.152.17.2.22l.182.174c.117.117.288.257.514.42.226.163.477.324.751.482.275.158.594.287.959.387.364.1.719.14 1.064.12h.838c.17-.014.299-.068.386-.16l.03-.037a.481.481 0 00.054-.135.74.74 0 00.026-.2 2.41 2.41 0 01.047-.566c.036-.168.078-.294.124-.38a.934.934 0 01.28-.32.47.47 0 01.059-.027c.117-.038.254 0 .412.114.158.114.306.255.444.423.139.168.306.357.5.566.194.21.364.365.51.467l.146.088c.097.058.223.112.379.16.155.05.291.061.408.037l1.866-.03c.185 0 .328-.03.43-.09.102-.061.163-.128.182-.201a.565.565 0 00.004-.249.924.924 0 00-.051-.193z" fill="#fff"/></svg></svg>