<svg width="76" height="54" viewBox="0 0 76 54" fill="none" xmlns="http://www.w3.org/2000/svg"><path d="M76 40.063c0 7.214-4.005 13.062-11.875 13.062h-52.25C4.005 53.125 0 47.277 0 40.062V13.939C0 6.723 4.005.874 11.875.874h52.25C71.995.875 76 6.723 76 13.938v26.124z" fill="#EC1C24"/><path fill-rule="evenodd" clip-rule="evenodd" d="M31.835 14.489c.674.238 1.14.697 1.456 1.332.276.564.49 1.158.817 1.698.111.184.242.358.36.537.055.089.113.098.201.046.053-.032.114-.053.175-.075.052-.02.071-.044.048-.104-.305-.822-.36-1.692-.524-2.545a4.596 4.596 0 00-.707-1.734c-.014-.021-.024-.045-.052-.102.596.308 1.002.744 1.252 1.325.233.548.363 1.13.539 1.695.104.329.24.643.388.953.056.124.121.157.254.118.254-.075.248-.068.21-.343a9.68 9.68 0 01-.082-1.202c-.006-.705.012-1.41-.135-2.108a5.567 5.567 0 00-.336-1.014c.56.418.866.945 1.03 1.56.156.598.214 1.214.315 1.823.051.307.123.605.207.902.03.12.082.168.203.141.019-.005.034-.005.052-.005.236-.021.239-.021.239-.258-.006-.699.17-1.371.334-2.044.181-.738.249-1.481.13-2.235-.003-.026-.001-.053-.001-.108.397.488.57 1.024.587 1.616.017.548-.048 1.095-.09 1.639a7.45 7.45 0 00.023 1.24c.02.207.189.122.296.15.13.037.116-.066.13-.145.103-.709.371-1.367.64-2.027.252-.617.442-1.25.428-1.927 0-.134-.013-.266-.021-.431.192.255.299.521.373.802.162.62.065 1.234-.08 1.846-.122.515-.285 1.021-.352 1.547-.015.11-.015.221-.034.33-.024.125.013.173.14.199.272.052.275.063.372-.208.208-.591.53-1.125.854-1.658.29-.476.58-.956.732-1.502.073-.265.115-.533.126-.849.166.265.24.521.267.79.052.45-.057.878-.218 1.296-.242.629-.566 1.225-.763 1.873-.05.163-.086.327-.133.49-.027.102.004.154.107.193.242.088.236.095.358-.141.344-.672.837-1.232 1.328-1.792.318-.36.623-.725.819-1.169.095-.22.161-.449.202-.722.109.27.122.523.111.772-.025.512-.222.971-.475 1.41-.337.583-.742 1.129-1.027 1.742-.052.112-.09.226-.142.338-.043.088-.018.132.065.18.207.123.207.129.344-.063.46-.646 1.08-1.123 1.678-1.626.447-.377.875-.77 1.126-1.316.051-.108.092-.22.15-.36.103.786-.13 1.44-.574 2.038-.402.537-.888 1.006-1.272 1.556-.106.153-.208.31-.305.469-.088.137.065.155.118.223.05.066.097.051.153-.006.475-.49 1.042-.856 1.608-1.226.503-.328 1.011-.65 1.428-1.087.164-.172.307-.36.45-.554 0 .4-.108.767-.299 1.112-.303.546-.768.945-1.239 1.337-.421.353-.847.695-1.213 1.108-.098.108-.044.16.021.243.072.088.118.11.222.035.426-.313.904-.529 1.386-.733.906-.386 1.822-.75 2.543-1.54a1.885 1.885 0 01-.374 1.038c-.274.368-.643.622-1.025.856-.632.386-1.291.726-1.87 1.188-.134.105-.138.184-.037.307.042.051.067.08.137.049.771-.363 1.605-.517 2.42-.733.547-.146 1.082-.32 1.549-.659.097-.071.188-.152.285-.232.041.252-.114.62-.36.865-.34.349-.772.555-1.215.74-.701.297-1.423.541-2.103.89-.174.09-.196.194-.072.358.026.037.052.037.085.028 1.054-.257 2.138-.262 3.2-.452a3.555 3.555 0 001.306-.485c-.044.353-.241.573-.493.752-.374.27-.812.404-1.25.523-.765.204-1.542.351-2.297.593-.185.06-.236.226-.127.385.025.04.06.032.091.03.868-.043 1.734.064 2.6.104.667.031 1.327.005 1.97-.247-.1.253-.416.524-.752.67-.508.217-1.045.267-1.586.315-.656.055-1.314.073-1.966.174-.075.013-.202-.018-.173.128.02.113-.043.27.177.287.646.045 1.274.2 1.91.325.85.168 1.7.342 2.597.173-.136.31-.383.44-.663.518-.581.158-1.17.087-1.758.051-.69-.04-1.383-.111-2.076-.084-.086.005-.186-.015-.17.125.015.112-.102.254.13.304.707.155 1.374.438 2.05.685.72.262 1.45.474 2.227.456.017 0 .031.008.07.021a1.431 1.431 0 01-.878.401c-.71.088-1.39-.079-2.074-.223a127.7 127.7 0 00-1.518-.321c-.073-.014-.18-.079-.212.066-.021.114-.085.214.094.29.688.292 1.32.686 1.972 1.05.47.265.945.527 1.464.692.21.067.427.104.67.136a.99.99 0 01-.565.236c-.496.064-.958-.072-1.416-.232-.714-.247-1.4-.571-2.123-.797-.122-.04-.249-.063-.369-.107-.091-.034-.142 0-.146.082-.005.096-.185.195-.034.282 1 .58 1.855 1.368 2.8 2.027.312.218.641.402 1.047.466-.3.201-.603.178-.91.11-.647-.145-1.199-.511-1.758-.834-.517-.292-1.014-.616-1.555-.866-.103-.046-.17-.06-.216.06-.035.098-.174.164-.006.295.707.544 1.26 1.243 1.86 1.892.35.375.695.76 1.164.992.093.047.19.083.286.127-.171.132-.654.067-.964-.059a4.18 4.18 0 01-1.011-.618c-.585-.453-1.121-.966-1.72-1.401-.036-.027-.074-.058-.114-.084-.204-.137-.313-.104-.422.124-.029.057.007.073.032.1.6.6 1.019 1.33 1.475 2.033.309.476.646.93 1.104 1.274.099.071.2.135.322.22-.368.087-.676-.008-.97-.173-.334-.187-.607-.45-.868-.728-.529-.564-.998-1.185-1.551-1.729a2.913 2.913 0 01-.086-.086c-.186-.172-.272-.16-.425.044-.037.044-.018.07.007.103.605.825.95 1.786 1.39 2.694.23.473.468.94.886 1.29-.176.046-.416-.01-.626-.134-.322-.182-.567-.447-.785-.738-.31-.408-.568-.851-.837-1.287a14.332 14.332 0 00-.784-1.157c-.115-.15-.188-.07-.298-.013-.137.068-.09.14-.044.234.313.643.455 1.341.634 2.028.141.533.27 1.073.523 1.57.102.202.229.389.371.574a1.104 1.104 0 01-.587-.268c-.372-.313-.6-.722-.8-1.154-.3-.65-.532-1.33-.876-1.959-.058-.108-.132-.205-.185-.317-.061-.123-.124-.135-.256-.08-.141.06-.175.108-.123.26.255.712.31 1.464.398 2.21.073.63.117 1.264.376 1.857.043.102.095.2.155.324a1.348 1.348 0 01-.575-.394c-.332-.353-.494-.796-.62-1.253-.197-.694-.32-1.41-.562-2.09-.052-.144-.119-.28-.171-.42-.056-.15-.157-.05-.234-.039-.069.011-.177-.004-.159.13.123.858.025 1.72.012 2.582-.008.668.025 1.327.28 1.967-.275-.098-.525-.375-.677-.724-.203-.472-.26-.974-.312-1.48-.069-.676-.084-1.36-.208-2.033-.046-.256-.043-.252-.29-.227-.083.006-.11.032-.11.116.005.77-.12 1.532-.223 2.293-.102.736-.18 1.476-.009 2.264a2.868 2.868 0 01-.7-1.565c-.07-.571.019-1.139.057-1.708.026-.413.053-.825-.01-1.237-.016-.102-.05-.134-.152-.139-.337-.022-.334-.025-.39.313-.117.712-.378 1.378-.602 2.059-.185.559-.358 1.12-.364 1.718-.001.132.012.267.02.431a1.648 1.648 0 01-.37-.705c-.14-.524-.079-1.051.012-1.575.114-.683.295-1.355.334-2.05l.007-.105c.004-.26-.033-.3-.288-.316-.056-.004-.087.01-.102.066-.242 1.058-.817 1.975-1.25 2.949-.182.413-.344.825-.348 1.288-.201-.317-.27-.668-.27-1.035 0-.63.22-1.213.416-1.796.178-.53.382-1.048.486-1.602a.245.245 0 00-.257-.29c-.045.002-.06.032-.075.062-.38.883-1.027 1.594-1.547 2.387-.308.47-.572.959-.71 1.544-.123-.266-.13-.523-.126-.778.005-.523.178-1.003.402-1.469.3-.62.67-1.2.947-1.83.01-.026.023-.053.033-.082.138-.369.154-.255-.175-.464-.053-.036-.089-.029-.127.025-.57.802-1.324 1.438-1.954 2.189a4.99 4.99 0 00-.835 1.369c-.093-.186-.113-.553-.058-.85.084-.464.301-.866.575-1.238.352-.471.721-.93 1.079-1.398.146-.19.27-.395.386-.602.11-.194-.105-.192-.168-.28-.065-.093-.105.005-.14.044-.428.482-.949.859-1.466 1.235-.506.367-1.021.717-1.447 1.18a3.666 3.666 0 00-.43.608c-.066-.422.029-.777.204-1.118.181-.358.439-.657.72-.94.512-.523 1.088-.985 1.568-1.546l.045-.052c.133-.158.095-.342-.087-.443-.045-.024-.065.005-.088.025-.648.549-1.422.882-2.166 1.27-.496.257-.983.533-1.36.963-.079.087-.151.186-.244.304a1.228 1.228 0 01.107-.694c.208-.477.578-.812.993-1.102.5-.348 1.013-.686 1.514-1.033.202-.138.392-.294.557-.476.126-.142-.063-.207-.092-.31-.022-.074-.073-.07-.137-.033-.663.38-1.4.572-2.115.812-.595.2-1.188.398-1.702.786-.102.078-.195.165-.317.267a1.17 1.17 0 01.166-.535c.219-.38.549-.648.916-.868.508-.31 1.052-.552 1.588-.807.325-.157.64-.325.952-.513.21-.124.021-.234-.004-.348-.026-.139-.12-.065-.187-.041-.674.242-1.38.324-2.08.449-.654.117-1.31.22-1.91.526-.106.054-.21.12-.355.2a1.81 1.81 0 01.461-.637c.407-.367.893-.583 1.403-.757.704-.243 1.434-.404 2.135-.655.145-.053.183-.102.144-.26-.049-.177-.102-.232-.3-.21-.756.095-1.512.065-2.271.083-.506.016-1.013.032-1.51.162a3.23 3.23 0 00-.508.186c-.033.007-.046-.008-.038-.042.457-.599 1.106-.846 1.815-.98.633-.122 1.282-.143 1.922-.24.176-.028.353-.072.532-.1.088-.012.11-.052.105-.138-.02-.317-.017-.315-.323-.328a16.561 16.561 0 01-1.84-.209c-.827-.13-1.657-.273-2.54-.044.248-.315.538-.479.868-.58.596-.185 1.21-.144 1.82-.123.6.02 1.199.042 1.8-.013.242-.021.139-.194.173-.306.042-.137-.063-.137-.147-.148-.786-.12-1.534-.386-2.29-.62-.668-.205-1.345-.374-2.061-.313.11-.121.392-.25.703-.343.59-.174 1.184-.14 1.781-.048.658.102 1.304.263 1.969.296a.245.245 0 00.26-.3c-.01-.057-.056-.053-.091-.061-.614-.146-1.165-.431-1.703-.748-.733-.435-1.51-.721-2.362-.789-.051-.004-.1-.015-.182-.027a3.195 3.195 0 011.682-.252c.614.073 1.179.313 1.751.523.348.13.702.247 1.068.318.103.02.167.01.193-.102a.732.732 0 01.066-.16c.028-.066.02-.101-.053-.132-.787-.32-1.439-.852-2.11-1.353-.522-.39-1.08-.709-1.73-.835-.022-.003-.047-.008-.051-.045.914-.136 1.79-.06 2.604.423.531.315 1.046.657 1.638.852.084.028.175.103.256-.033.122-.207.127-.203-.08-.33a5.389 5.389 0 01-1.313-1.17c-.558-.67-1.217-1.199-2.039-1.512-.02-.006-.034-.024-.073-.052.954-.03 1.771.247 2.49.839.48.394.949.81 1.517 1.085.07.035.147.122.217.07.09-.068.158-.172.224-.264.035-.047-.019-.075-.047-.098-.594-.512-1.031-1.153-1.479-1.786-.412-.583-.902-1.08-1.528-1.437-.02-.01-.035-.026-.056-.041.192-.04.49.006.78.102.472.16.868.44 1.225.785.47.452.882.964 1.372 1.393.113.1.235.193.354.286.17.13.207-.08.304-.127.11-.052.024-.112-.017-.16-.417-.495-.7-1.07-.97-1.65-.301-.648-.642-1.268-1.163-1.774-.103-.102-.212-.197-.327-.307.145-.02.262.041.381.084.594.22 1.055.607 1.428 1.108.382.51.704 1.058 1.12 1.538.12.136.245.267.371.395.156.158.23-.045.338-.087.113-.041.026-.113-.004-.165-.388-.666-.586-1.405-.817-2.13-.219-.678-.529-1.303-1.02-1.83 0-.06.032-.057.076-.038" fill="#FEFE00"/><path fill-rule="evenodd" clip-rule="evenodd" d="M45.991 26.254a7.73 7.73 0 01-13.197 5.453 7.72 7.72 0 01-2.256-5.466 7.728 7.728 0 017.722-7.716c4.256-.007 7.735 3.473 7.731 7.73z" fill="#EC1C24"/><path fill-rule="evenodd" clip-rule="evenodd" d="M43.285 21.942c-.393.002-.757-.004-1.122.028a8.54 8.54 0 00-3.722 1.187c-.128.079-.215.079-.339-.015-.716-.531-1.537-.814-2.399-.99a10.933 10.933 0 00-1.749-.21c-.208-.01-.416-.002-.654-.002 2.216-2.785 7.137-3.307 9.987.002m-7.015 2.592a9.221 9.221 0 00-2.118 2.786c-.524 1.058-.818 2.171-.778 3.391a3.755 3.755 0 01-.587-.722c-.973-1.474-1.323-3.084-1.044-4.828.07-.434.186-.852.343-1.262.027-.074.051-.13.153-.13 1.38 0 2.73.152 4.003.735.004.001.005.008.028.03zm7.014 6.029c-.047-2.514-1.139-4.495-3.098-6.061.2-.076.376-.152.56-.215 1.063-.372 2.152-.582 3.285-.558.379.008.384.003.51.362a6.524 6.524 0 01.287 3.202 6.597 6.597 0 01-1.401 3.154c-.034.042-.059.098-.143.116zm-4.989-4.322a6.24 6.24 0 01.804 1.564 9.014 9.014 0 01.459 4.128c-.03.253-.092.502-.132.756-.013.093-.06.118-.147.132-.592.095-1.183.086-1.777.035-.186-.017-.256-.086-.295-.276-.29-1.46-.254-2.903.156-4.333a6.713 6.713 0 01.932-2.006zm1.259-1.143c.51.374.934.827 1.306 1.329a8.137 8.137 0 011.517 3.503c.083.46.107.922.093 1.391-.004.047 0 .094-.046.124-.208.147-.398.322-.662.456.205-2.589-.794-4.762-2.208-6.803z" fill="#FEFE00"/><path fill-rule="evenodd" clip-rule="evenodd" d="M34.837 31.916c-.236-.107-.417-.267-.61-.404-.05-.035-.052-.085-.052-.14-.05-2.238.617-4.203 2.228-5.805a2.94 2.94 0 01.617-.479c-1.534 2.047-2.326 4.279-2.183 6.828zm2.9-6.198c-1.343 2.128-1.67 4.437-1.4 6.9a35.36 35.36 0 00-.572-.212c-.077-.029-.052-.097-.055-.148-.07-.913-.02-1.831.152-2.731.184-1.008.485-1.976 1.015-2.86.179-.308.403-.587.665-.828.058-.049.11-.1.195-.121zm2.623 6.844c.395-2.472-.169-4.712-1.438-6.8.056-.029.078.039.108.068.622.636 1.062 1.384 1.373 2.207.513 1.348.647 2.744.519 4.171-.011.113-.045.182-.16.215-.128.035-.252.086-.402.14z" fill="#FEFE00"/></svg>