<svg width="75" height="53" viewBox="0 0 75 53" fill="none" xmlns="http://www.w3.org/2000/svg"><path d="M0 17.125h75v18.75H0v-18.75z" fill="#E6E7E8"/><path d="M63.281.719H11.72C3.953.719 0 6.49 0 13.609v3.516h75v-3.516C75 6.49 71.047.72 63.281.72z" fill="#EC1C24"/><path d="M0 39.39c0 7.12 3.953 12.891 11.719 12.891H63.28c7.767 0 11.72-5.771 11.72-12.89v-3.516H0v3.516z" fill="#128807"/><path fill-rule="evenodd" clip-rule="evenodd" d="M43.179 32.781a17.8 17.8 0 00-10.021-.018c-.113.032-.156.009-.185-.104a5.227 5.227 0 00-.158-.54c-.039-.12-.008-.158.109-.195a18.786 18.786 0 0110.402-.003c.136.04.167.088.119.217-.067.182-.116.372-.169.56-.019.067-.039.108-.097.083zm-12.382-8.379c.092-.286.163-.533.253-.772.047-.124.021-.189-.088-.258a4.425 4.425 0 01-.595-.471c.23 0 .466-.014.695.006.184.016.254-.059.297-.22.059-.224.139-.442.228-.72.092.283.173.513.238.751.04.149.112.196.267.185.236-.014.474-.003.767-.003-.233.173-.423.322-.624.452-.125.081-.163.158-.105.306.09.225.155.462.245.742-.256-.184-.468-.333-.676-.492-.083-.064-.142-.061-.228.003-.208.162-.422.31-.674.491zm12.656-1.494c.248 0 .5-.01.748.003.133.009.186-.042.221-.165.07-.24.153-.474.247-.767.099.293.186.535.254.782.032.122.093.153.212.15.25-.007.499-.003.807-.003-.254.184-.458.347-.673.49-.093.062-.103.12-.069.219.087.245.163.494.26.792-.246-.177-.457-.318-.651-.476-.108-.087-.178-.077-.279.001-.196.155-.403.296-.648.473.094-.296.169-.546.257-.791.037-.102.023-.159-.068-.22-.214-.145-.419-.3-.626-.454l.008-.034zm-6.093-2.346c.086-.262.162-.517.256-.772.034-.096-.024-.125-.078-.165l-.682-.495c.298 0 .54-.012.78.003.16.013.219-.046.26-.192.061-.235.147-.463.257-.68.08.24.167.477.233.72.034.12.092.156.21.152.25-.008.502-.003.81-.003-.237.17-.425.32-.622.452-.123.08-.167.152-.108.302.094.224.154.462.245.745-.253-.184-.468-.333-.672-.489-.085-.064-.145-.068-.229-.002a8.54 8.54 0 01-.49.356c-.05.035-.091.094-.17.068zm-7.993 6.126c.256 0 .513-.009.769 0 .105.003.155-.029.186-.133.073-.245.157-.487.277-.74.072.215.152.427.208.646.044.171.119.246.308.228.224-.02.452-.002.74-.002-.229.166-.41.315-.607.435-.147.093-.18.183-.11.348.089.214.143.439.23.714-.25-.18-.455-.32-.652-.476-.103-.083-.178-.077-.277.006-.144.118-.3.223-.457.333-.05.035-.09.091-.174.071.077-.237.153-.478.24-.711.043-.115.016-.178-.085-.246-.207-.138-.406-.29-.609-.437.007-.014.008-.028.013-.037zm15.55 1.428c.09-.268.172-.529.263-.789.033-.09-.04-.111-.084-.145-.212-.156-.42-.31-.682-.495.298 0 .541-.009.781.002.143.007.213-.03.251-.177a3.87 3.87 0 01.265-.693c.078.24.167.476.233.72.035.121.096.152.213.15.25-.01.498-.002.811-.002-.25.179-.452.333-.66.474-.1.067-.126.13-.085.245.087.24.164.485.257.781-.257-.186-.47-.337-.677-.493-.084-.067-.145-.067-.228 0-.16.123-.322.24-.486.356-.05.034-.09.094-.172.066zm-11.332-6.542c.07-.208.122-.421.208-.62.069-.174.055-.283-.12-.382-.19-.113-.364-.26-.593-.427.302 0 .546-.007.788.004.132.004.199-.03.239-.172.065-.236.15-.47.247-.759.097.297.184.544.259.792.03.105.077.14.184.139.257-.011.51-.004.783.031-.2.146-.399.296-.6.434-.11.071-.136.14-.092.262.09.231.157.47.198.73-.19-.143-.39-.275-.575-.423-.11-.087-.195-.097-.312-.003-.183.149-.382.282-.573.422-.011-.012-.026-.019-.04-.028zm7.113-1.43c.256 0 .51-.004.765.003.108.002.158-.03.187-.135.074-.251.162-.499.26-.795.098.299.184.546.26.795.03.104.08.137.186.135.26-.012.522-.001.78.032-.206.15-.409.304-.617.448-.096.062-.115.124-.078.232.087.235.16.474.2.744-.185-.137-.38-.266-.56-.413-.122-.102-.217-.105-.34 0a3.156 3.156 0 01-.598.39c.074-.225.14-.46.224-.683.049-.137.03-.214-.096-.293-.2-.128-.387-.277-.581-.417l.008-.043zm-5.807 11.042c-.336-.011-.61-.168-.856-.384-.06-.051-.056-.083.008-.124.156-.1.391-.103.477-.233.083-.128.037-.341.115-.505.12-.265.157-.271.365-.059.025.028.05.055.074.084.253.31.253.31.652.387.194.035.2.05.098.22-.213.35-.494.6-.933.614zm3.26-.265c-.41-.016-.696-.235-.94-.534-.05-.064-.029-.095.04-.12.126-.046.249-.096.383-.104.106-.001.15-.034.164-.15.018-.193.116-.353.242-.5.063-.075.111-.085.177-.003.123.154.229.317.27.512.016.08.049.114.132.121.144.014.286.046.42.11.062.032.083.063.03.128-.233.31-.519.523-.918.54zm3.329.265c-.471-.002-.942-.337-1.07-.693-.03-.079 0-.093.07-.108.135-.032.273-.043.411-.033.095.007.13-.021.157-.114.053-.201.188-.349.346-.48.062-.056.103-.05.147.024.09.158.185.32.18.507-.002.144.06.193.188.221a.884.884 0 01.32.15c.067.045.08.084.014.146-.24.226-.516.375-.763.38z" fill="#F7C200"/><path fill-rule="evenodd" clip-rule="evenodd" d="M43.209 29.485c-.657-.193-1.104-.626-1.383-1.247l-.071.062c-1.225 1.002-3.029.382-3.326-1.172-.122-.64-.059-1.306-.02-1.958.018-.289.318-.504.61-.522.26-.013.452.111.616.299.235-.619-.024-1.372-.598-1.774a1.594 1.594 0 00-1.957.111c-.55.47-.647 1.276-.448 1.66.227-.273.508-.379.84-.238.326.141.412.423.405.76-.014.447-.002.894-.002 1.34-.007 1-.843 1.891-1.836 1.967a2.061 2.061 0 01-1.595-.528c-.544 1.234-2.002 1.728-3.212.965-.015.457.338.955.809 1.144.97.382 2.18-.218 2.466-1.222.024-.081.045-.164.074-.27.064.085.107.15.153.214.25.324.552.577.953.677.732.18 1.32-.088 1.814-.613.294-.31.477-.684.619-1.095.069.056.071.122.09.177.131.345.315.659.562.93.863.944 2.101.865 2.831-.177.024-.032.027-.085.085-.081.01.015.021.025.023.035.173 1.105 1.346 1.691 2.24 1.506.61-.123 1.081-.643 1.085-1.236-.57.363-1.184.474-1.827.287v-.002zm-5-4.81c-.059.078-.084.099-.155.007a1.02 1.02 0 00-.956-.415c-.115.01-.108-.043-.092-.123.102-.48.58-.859 1.105-.863.545-.006 1.026.357 1.145.86.044.184-.075.117-.158.116a1.072 1.072 0 00-.888.418z" fill="#F7C200"/></svg>