<svg width="76" height="53" viewBox="0 0 76 53" fill="none" xmlns="http://www.w3.org/2000/svg">
<path d="M76 39.25C76 46.4641 71.9946 52.3125 64.125 52.3125H11.875C4.00544 52.3125 0 46.4641 0 39.25V13.125C0 5.91094 4.00544 0.0625 11.875 0.0625H64.125C71.9946 0.0625 76 5.91094 76 13.125V39.25Z" fill="#1B75BB"/>
<path fill-rule="evenodd" clip-rule="evenodd" d="M13.7456 15.4121C13.0925 14.056 12.4417 12.701 11.7851 11.3437C11.6722 11.1122 11.5832 10.8747 11.5986 10.6122C11.62 10.2714 11.8029 10.047 12.1176 9.93297C12.4429 9.81303 12.7172 9.91635 12.9357 10.1681C13.1566 10.4305 13.159 10.7274 13.0117 11.0207C12.8871 11.2653 12.6733 11.3152 12.4216 11.2558C12.2553 11.2143 12.1793 11.1015 12.1817 10.9352C12.1841 10.8272 12.2268 10.7417 12.3491 10.7333C12.5439 10.7238 12.5296 10.8901 12.5712 11.0088C12.5759 11.0195 12.6139 11.0136 12.6365 11.0195C12.7374 10.9661 12.7066 10.82 12.7683 10.7773C13.1305 10.5148 12.6317 10.3949 12.6769 10.1883C12.6792 10.1717 12.5783 10.1265 12.5664 10.1835C12.5308 10.3522 12.4002 10.2857 12.3064 10.307C11.9762 10.3795 11.8124 10.6015 11.8409 10.9423C11.8789 11.3793 12.114 11.5943 12.6709 11.6988C12.7089 11.8175 12.4524 11.9007 12.6377 12.0325C12.7968 12.1512 12.57 12.3056 12.6757 12.422C12.7505 12.5075 12.9856 12.1999 12.9536 12.5455C12.9013 13.1238 13.1436 13.4539 13.7706 13.6107C13.425 13.1974 13.3716 12.7509 13.4107 12.2795C13.4357 11.9363 13.5176 11.6097 13.6067 11.2772C13.7587 10.7108 13.7753 10.1681 13.2718 9.74416C13.7302 9.38553 13.7302 9.38553 13.2421 9.09578C13.7302 8.63147 13.8133 8.27047 13.6126 7.47603C13.5366 7.16847 13.4487 6.86566 13.4119 6.54978C13.3561 6.07241 13.5271 5.65084 13.7646 5.21741C13.1661 5.33497 12.9191 5.63066 12.9072 6.17572C12.9049 6.25172 12.9832 6.41559 12.8182 6.38472C12.5973 6.33841 12.6674 6.45241 12.6864 6.55809C12.6994 6.62578 12.7849 6.73741 12.7398 6.74691C12.2909 6.83597 12.7541 7.01647 12.6864 7.15066C12.3289 7.11978 12.0677 7.28722 11.8824 7.59003C11.8599 7.76935 11.7957 7.9451 11.8753 8.12678C11.9561 8.31916 12.0689 8.46285 12.2957 8.47591C12.4109 8.48066 12.5831 8.38447 12.5652 8.6291C12.5652 8.63978 12.5961 8.6671 12.608 8.66472C12.817 8.61485 12.7137 8.29778 12.9631 8.25385C13.0284 8.24435 12.9334 8.12678 12.8728 8.11728C12.6662 8.08166 12.8396 7.79547 12.6246 7.76935C12.5522 7.79785 12.5842 7.87028 12.5676 7.92372C12.5249 8.06741 12.4334 8.13272 12.2957 8.04722C12.1639 7.97122 12.1734 7.8501 12.2434 7.73016C12.3824 7.49028 12.8004 7.49028 12.9999 7.73253C13.1732 7.94628 13.1863 8.37378 13.0236 8.58991C12.8289 8.8476 12.3182 8.96397 11.9822 8.81791C11.6865 8.68847 11.5761 8.4391 11.6247 8.13391C11.6521 7.94391 11.6889 7.75035 11.8112 7.58885C11.9881 7.13997 12.1686 6.69347 12.3432 6.24222C12.4501 5.97028 12.4928 5.69241 12.2458 5.47153C11.9905 5.24472 11.6936 5.23403 11.4003 5.38366C11.2685 5.45135 11.1676 5.45847 11.0322 5.38841C10.7401 5.23403 10.442 5.24116 10.1855 5.46441C9.91593 5.69835 9.97531 5.98809 10.0822 6.26953C10.2437 6.68872 10.4135 7.10078 10.5821 7.51403C10.6759 7.61735 10.6949 7.75153 10.7365 7.87622C10.8362 8.19566 10.8683 8.50322 10.5726 8.74191C10.3422 8.92716 9.84825 8.92003 9.56918 8.73953C9.21768 8.51153 9.17968 7.91541 9.50031 7.65891C9.59799 7.58478 9.71863 7.54737 9.84112 7.55322C10.0228 7.55797 10.1736 7.62803 10.2128 7.8311C10.2377 7.95578 10.1938 8.06147 10.062 8.07335C9.82687 8.09828 9.85775 7.88691 9.81975 7.73728H9.815C9.61787 7.85841 9.72356 8.2016 9.42075 8.18141C9.44925 8.3061 9.56562 8.30016 9.60837 8.35597C9.70693 8.48066 9.6535 8.63503 9.96818 8.49253C10.5536 8.22653 10.6878 8.1446 10.5037 7.5176C10.4216 7.39446 10.3084 7.29523 10.1755 7.22995C10.0427 7.16468 9.89497 7.13569 9.74731 7.14591C9.65825 7.0141 10.1214 6.87635 9.71406 6.77185C9.89575 6.48447 9.50268 6.38116 9.51693 6.13297C9.54187 5.66509 9.22006 5.32666 8.6465 5.2186C9.1025 5.88122 9.08825 6.56285 8.8745 7.2611C8.83531 7.39053 8.79493 7.51878 8.77237 7.6506C8.67737 8.19447 8.66431 8.72053 9.19275 9.08985C8.70468 9.38078 8.70468 9.38078 9.14406 9.74772C8.71537 10.2108 8.637 10.5042 8.78662 11.149C8.97781 11.9672 9.264 12.7865 8.67381 13.6142C9.20818 13.4492 9.43975 13.176 9.49437 12.7972C9.511 12.6666 9.25093 12.2818 9.73068 12.4303C9.73543 12.4303 9.76987 12.3816 9.76512 12.3721C9.60125 12.1488 9.90168 11.9161 9.74018 11.6952C9.76593 11.6868 9.79209 11.6797 9.81856 11.6738C10.2912 11.5978 10.5346 11.3734 10.5702 10.9732C10.6082 10.5718 10.5275 10.4804 9.96225 10.3011C9.93968 10.294 9.90762 10.294 9.89456 10.2762C9.85418 10.2168 9.78412 10.0672 9.74375 10.2037C9.69268 10.3783 9.4635 10.5849 9.511 10.617C9.67725 10.7155 9.64043 10.9483 9.83043 11.0373C9.88862 10.8984 9.8815 10.7048 10.0929 10.7345C10.2199 10.7547 10.2342 10.8592 10.2318 10.9566C10.2294 11.143 10.1237 11.2392 9.9385 11.2665C9.69387 11.3022 9.50268 11.2333 9.39937 10.9993C9.26518 10.6977 9.27231 10.4044 9.50268 10.1479C9.72712 9.89972 10.0062 9.80947 10.3256 9.93772C10.6379 10.0624 10.8149 10.2916 10.8149 10.6395C10.8149 10.8711 10.7567 11.0908 10.6534 11.3045C10.1665 12.2961 9.68675 13.2924 9.21412 14.2911C8.97068 14.8077 8.68093 15.3028 8.50043 15.8467C8.20237 16.7599 8.51943 17.4071 9.38275 17.6802L9.46943 17.6755C9.63568 17.7527 9.80787 17.6957 9.97887 17.7123C10.3897 17.7598 10.746 17.6565 11.0203 17.3323C11.1497 17.1815 11.2483 17.2147 11.3754 17.343C11.6283 17.6018 11.9157 17.7871 12.3052 17.6838C12.5236 17.7723 12.7681 17.771 12.9856 17.6802C13.6993 17.5152 14.0152 17.1078 14.0057 16.3894C14.0081 16.0391 13.8929 15.7232 13.7456 15.4121ZM12.8502 17.1458C12.5332 17.2278 12.1769 17.0912 12.0249 16.8264C11.9264 16.6554 11.8991 16.4761 12.0427 16.3193C12.1603 16.1899 12.3123 16.2208 12.4429 16.2992C12.5973 16.393 12.5367 16.5616 12.5617 16.7148C12.7172 16.7005 12.8301 16.5913 12.8277 16.4737C12.8253 16.1899 13.2433 16.2433 13.2017 16.0094C13.1709 15.8348 12.8312 15.8515 12.8443 15.57C12.8491 15.4572 12.7267 15.3682 12.5712 15.3373C12.5973 16.1103 11.8599 15.6235 11.6283 15.9833C11.5952 15.9697 11.5623 15.9554 11.5297 15.9405C11.5297 15.5546 11.5143 15.1687 11.5321 14.7827C11.544 14.5238 11.7815 14.4063 12.1152 14.4704C12.1805 14.4835 12.247 14.5785 12.3064 14.4965C12.3646 14.4205 12.2992 14.341 12.2612 14.2638C12.1128 13.9764 11.8326 13.9337 11.4811 13.8755C11.6936 13.6962 11.7043 13.4895 11.6627 13.2746C11.6162 13.0727 11.517 12.8867 11.3754 12.7355C11.2827 12.6274 11.2008 12.593 11.0737 12.707C10.91 12.851 10.804 13.0495 10.7756 13.2658C10.7472 13.482 10.7983 13.7012 10.9194 13.8826C10.5061 13.9253 10.1902 14.0465 10.081 14.4811C10.1997 14.4728 10.3042 14.4633 10.4076 14.4609C10.7911 14.4562 10.8849 14.5476 10.8849 14.9264C10.8826 15.2648 10.8849 15.6057 10.8849 15.988C10.6943 15.877 10.4795 15.8138 10.2591 15.804C9.96581 15.7945 9.78175 15.6935 9.89812 15.3313C9.67487 15.3729 9.58581 15.4833 9.54781 15.6496C9.54068 15.6817 9.53593 15.722 9.54068 15.7565C9.55731 15.9346 8.85668 15.8812 9.38156 16.1935C9.60956 16.33 9.52525 16.6792 9.83043 16.71C9.891 16.6697 9.85062 16.6043 9.85656 16.5497C9.88268 16.3015 10.0382 16.1994 10.2603 16.2564C10.4812 16.3122 10.5097 16.4987 10.4551 16.6982C10.3684 17.001 10.0299 17.2052 9.67487 17.1648C9.30318 17.1233 9.00275 16.843 8.96831 16.4903C8.94456 16.2552 9.00156 16.0308 9.10012 15.8182C9.79125 14.3481 10.4847 12.8756 11.1759 11.4019C11.3077 11.4518 11.3207 11.5753 11.3635 11.6691C11.9941 12.9955 12.6187 14.3255 13.2481 15.6532C13.3632 15.8978 13.4571 16.1472 13.4523 16.4203C13.4476 16.7777 13.216 17.0544 12.8502 17.1458Z" fill="#FDC40C"/>
<path fill-rule="evenodd" clip-rule="evenodd" d="M12.9876 34.3313C12.7634 34.3336 12.5369 34.3336 12.3127 34.3336C12.2878 34.3194 12.2783 34.3076 12.2878 34.2933C12.2949 34.2791 12.302 34.272 12.3127 34.272H12.9876C12.9816 34.2913 12.9816 34.312 12.9876 34.3313Z" fill="#CDC030"/>
<path fill-rule="evenodd" clip-rule="evenodd" d="M11.7828 27.9403C11.6676 27.7051 11.5833 27.47 11.5987 27.2064C11.6177 26.8632 11.8124 26.6376 12.1236 26.5319C12.443 26.4238 12.7268 26.5153 12.9406 26.7801C13.1567 27.0461 13.1567 27.3394 13.0035 27.6315C12.8943 27.8381 12.7102 27.9189 12.4822 27.8761C12.3124 27.8429 12.1901 27.7538 12.1829 27.5614C12.1782 27.4558 12.2079 27.3572 12.3243 27.3382C12.5511 27.2966 12.5238 27.5151 12.5891 27.6422C12.8004 27.5567 12.7149 27.2515 12.9774 27.2135C12.7399 27.1351 12.7874 26.8774 12.6342 26.7575C12.5048 26.9285 12.2863 26.8834 12.12 26.9736C11.8694 27.1078 11.8124 27.3346 11.8504 27.5947C11.9086 28.0127 12.1236 28.1944 12.6781 28.3084C12.5226 28.5411 12.8313 28.7834 12.5606 29.0803C12.9061 28.9413 12.9916 28.9698 12.937 29.2774C12.8586 29.7144 13.2648 30.1395 13.7006 30.1419C13.2256 29.4484 13.3859 28.7169 13.5771 27.9937C13.7409 27.3786 13.8027 26.8062 13.2648 26.33C13.7291 26.0201 13.7291 26.0177 13.2648 25.6721C13.7849 25.2328 13.7493 24.6806 13.5961 24.0975C13.3966 23.347 13.2173 22.5906 13.7065 21.8508C13.2149 21.9339 12.8491 22.3234 12.9394 22.7343C13.0142 23.0822 12.8479 23.0311 12.5784 22.9931C12.9299 23.233 12.4584 23.4978 12.7019 23.7223C12.6591 23.7329 12.6342 23.7401 12.6128 23.7424C12.1259 23.8078 11.8742 24.0358 11.8433 24.4644C11.8124 24.8884 12.0321 25.095 12.4489 25.1152C12.4703 25.1152 12.4964 25.1199 12.5131 25.1354C12.5665 25.1674 12.5558 25.3563 12.6674 25.2256C12.7779 25.0962 12.8408 24.924 12.9216 24.7696C12.7054 24.7316 12.7957 24.4336 12.5689 24.3683C12.5428 24.5048 12.5511 24.6853 12.3551 24.6829C12.2364 24.6829 12.1865 24.5951 12.1818 24.487C12.1746 24.2994 12.2768 24.1937 12.4513 24.1509C12.6781 24.0928 12.8693 24.1557 12.9857 24.3576C13.1567 24.6426 13.165 24.9383 12.9608 25.2126C12.7589 25.4821 12.4834 25.5914 12.1544 25.4952C11.8374 25.399 11.6343 25.1853 11.5999 24.8421C11.5738 24.5689 11.6616 24.3196 11.7816 24.0749C12.4121 22.7734 13.0368 21.4684 13.6661 20.1669C13.7766 19.9365 13.8918 19.7085 13.9511 19.4556C14.1637 18.5828 13.8312 17.8857 13.0249 17.7349C13.0106 17.7325 13.0011 17.6993 12.9893 17.6814C12.8004 17.5188 12.5629 17.6149 12.3516 17.5663C12.0155 17.6981 11.6426 17.761 11.398 18.0591C11.246 18.2408 11.1379 18.2028 10.9943 18.0413C10.7378 17.7586 10.3993 17.6375 10.0205 17.6411C9.83882 17.6482 9.65951 17.5544 9.47307 17.6114C9.43767 17.6253 9.4074 17.6497 9.38638 17.6814C9.35432 17.7883 9.24744 17.7658 9.17501 17.7978C8.63707 18.0306 8.37582 18.4438 8.40788 19.034C8.42688 19.4081 8.55157 19.7453 8.71307 20.0754C9.35907 21.4102 9.99676 22.7497 10.6451 24.0821C10.7603 24.3196 10.8268 24.5594 10.8161 24.8183C10.8073 24.9962 10.7347 25.165 10.6118 25.2938C10.4888 25.4226 10.3236 25.503 10.1464 25.5201C9.80319 25.5581 9.45051 25.3432 9.35551 25.0083C9.27832 24.7364 9.30444 24.4704 9.51344 24.259C9.66663 24.1058 9.85901 24.0975 10.0561 24.1783C10.2046 24.2388 10.2449 24.3599 10.2354 24.5036C10.2283 24.5903 10.1927 24.6746 10.087 24.6829C9.92076 24.6984 9.89701 24.5654 9.85663 24.4514C9.84713 24.4146 9.82576 24.3884 9.75332 24.4146C9.67138 24.5333 9.66663 24.7388 9.50632 24.7827C9.64288 25.3278 9.98132 25.2031 10.315 25.038C10.5751 24.9086 10.6036 24.6639 10.5727 24.4063C10.5252 24.0084 10.3031 23.8291 9.73432 23.7104C9.93144 23.4943 9.60251 23.2484 9.76876 23.0311C9.77588 23.0169 9.75094 22.9634 9.69751 22.986C9.36026 23.1226 9.48376 22.8708 9.48851 22.7295C9.49919 22.2367 9.13107 21.8413 8.70119 21.8864C8.93869 22.1666 9.03251 22.4968 9.03013 22.8601C9.02776 23.3304 8.91138 23.7769 8.79976 24.2234C8.66082 24.7732 8.68694 25.285 9.16076 25.6816C9.03963 25.8039 8.82707 25.8277 8.82232 26.0094C8.81757 26.1982 9.06457 26.2089 9.15601 26.3549C8.70832 26.71 8.67626 27.1826 8.77126 27.6849C8.81282 27.9011 8.89238 28.1065 8.93276 28.3226C9.05032 28.9568 9.16313 29.5944 8.68338 30.1597C8.88593 30.153 9.07921 30.0732 9.22745 29.935C9.37569 29.7968 9.46885 29.6096 9.48969 29.408C9.50988 29.2548 9.30088 28.9259 9.73432 29.0114C9.74263 29.0138 9.77113 28.9639 9.76876 28.9591C9.59063 28.7394 9.95994 28.5079 9.72007 28.2965C9.76876 28.2834 9.79251 28.2763 9.81626 28.2739C10.2913 28.2063 10.5359 27.9854 10.5751 27.5828C10.6131 27.1814 10.5276 27.0829 9.97182 26.9012C9.95044 26.8941 9.92194 26.8917 9.90769 26.8763C9.85901 26.8311 9.81626 26.6554 9.75569 26.7979C9.68801 26.9618 9.54432 27.0781 9.51344 27.2563C9.72719 27.2848 9.64051 27.5543 9.80794 27.6268C9.91482 27.5306 9.88157 27.2741 10.1167 27.3441C10.2449 27.3821 10.2473 27.5044 10.2319 27.6173C10.1963 27.8334 10.0229 27.8761 9.85069 27.8868C9.77074 27.8941 9.69034 27.8786 9.61886 27.842C9.54739 27.8055 9.48777 27.7493 9.44694 27.6802C9.27832 27.394 9.25694 27.0995 9.45407 26.8193C9.64644 26.5438 9.92313 26.4286 10.2521 26.52C10.5715 26.6079 10.7864 26.8098 10.8138 27.1577C10.8375 27.4308 10.7722 27.6838 10.6499 27.9308C10.0219 29.221 9.39847 30.5134 8.77957 31.8079C8.67032 32.0348 8.55632 32.2687 8.48507 32.5109C8.22263 33.3992 8.56582 34.0547 9.38757 34.2732C9.4141 34.3039 9.44586 34.3296 9.48138 34.3492C9.65594 34.3943 9.83644 34.3682 10.0134 34.3741C10.5181 34.3789 10.9064 34.1509 11.2128 33.7412C11.5239 34.1628 11.9063 34.3824 12.4003 34.3741C12.5998 34.3551 12.8135 34.4299 12.9881 34.272C13.6364 34.1556 13.9939 33.7388 14.0105 33.0976C14.02 32.7093 13.9072 32.3542 13.7409 32.0134C13.0831 30.6549 12.4335 29.2964 11.778 27.9403H11.7828ZM9.07526 19.5292C8.74869 18.8001 9.14769 18.1873 9.85188 18.2586C10.0989 18.2799 10.2913 18.4046 10.4088 18.6208C10.505 18.7941 10.5276 18.9913 10.3506 19.1148C10.1844 19.2299 10.0015 19.205 9.88632 19.0031C9.84119 18.9046 9.91126 18.787 9.83407 18.6932C9.51819 18.787 9.57163 19.2383 9.23082 19.3143C9.16313 19.3285 9.18569 19.4354 9.24507 19.4556C9.47307 19.5339 9.53363 19.7251 9.61676 19.9223C9.67019 20.0493 9.81626 20.0968 9.84951 19.8938C9.88513 19.6705 10.0288 19.6242 10.2117 19.6135C10.429 19.5981 10.6416 19.5708 10.8779 19.4164C10.8779 19.7821 10.8731 20.098 10.8779 20.4127C10.885 20.877 10.8197 20.9483 10.3684 20.9578C10.2746 20.9601 10.182 20.9673 10.0775 20.972C10.2117 21.3639 10.4979 21.5052 10.904 21.5171C10.5822 21.9659 10.7639 22.3341 11.0477 22.6808C11.1332 22.7889 11.2187 22.8269 11.3481 22.7069C11.6806 22.397 11.759 21.9505 11.5061 21.523C11.8979 21.4981 12.2233 21.3817 12.3266 20.9328C12.2138 20.9435 12.1224 20.9554 12.0298 20.9578C11.6403 20.972 11.5227 20.8568 11.5227 20.4756C11.5227 20.1491 11.5227 19.8201 11.5702 19.4615C11.8421 19.7881 12.5665 19.2988 12.557 20.0719C12.7078 20.06 12.8183 19.9733 12.842 19.8368C12.8705 19.6634 12.9477 19.5648 13.1068 19.5043C13.1686 19.4793 13.2624 19.3748 13.1947 19.3475C12.8895 19.2216 12.8574 18.8428 12.5689 18.6683C12.557 18.7419 12.5439 18.7739 12.5463 18.8048C12.5487 18.9592 12.5392 19.1029 12.3551 19.1504C12.2316 19.1836 12.1105 19.1943 12.0214 19.0839C11.9063 18.9473 11.9158 18.7834 11.9929 18.6362C12.1568 18.3369 12.4252 18.2123 12.7601 18.2633C13.0949 18.3132 13.3526 18.4771 13.4274 18.8381C13.477 19.0669 13.4495 19.3058 13.3491 19.5173C12.6603 20.991 11.9668 22.4647 11.2721 23.9396C11.2603 23.9681 11.2223 23.9871 11.1783 24.0251C10.4718 22.5229 9.75451 21.0338 9.07526 19.5292ZM10.4611 26.0165C10.7508 25.8633 11.018 25.7315 11.208 25.4406C11.4123 25.7244 11.6509 25.8776 11.9692 26.0058C11.683 26.1317 11.4491 26.2528 11.2899 26.4689C11.2068 26.5829 11.1534 26.5022 11.0999 26.4369C10.9432 26.2409 10.7294 26.1293 10.4611 26.0165ZM12.8361 33.7436C12.4953 33.8113 12.2019 33.7246 12.0131 33.4146C11.9098 33.2472 11.8932 33.0619 12.0393 32.9111C12.1473 32.8007 12.2934 32.828 12.4157 32.8862C12.595 32.9729 12.5214 33.1617 12.5594 33.3113C12.7209 33.2935 12.7874 33.1819 12.8349 33.0536C12.861 32.9776 12.8598 32.8803 12.9524 32.8423C13.2956 32.7033 13.3004 32.5668 12.9477 32.4361C12.8325 32.3958 12.8848 32.2924 12.8622 32.2176C12.8135 32.0692 12.7209 31.9718 12.538 31.9196C12.614 32.3079 12.4086 32.4124 12.0915 32.4124C11.9181 32.4124 11.7566 32.4575 11.5215 32.6154C11.5215 32.1594 11.5132 31.7604 11.5239 31.3674C11.5286 31.1536 11.6878 31.08 11.8694 31.0598C12.0108 31.0456 12.1544 31.0574 12.3159 31.0574C12.2316 30.6264 11.8979 30.5219 11.5156 30.491C11.7483 30.0611 11.6937 29.6906 11.379 29.3403C11.2484 29.1943 11.1558 29.2061 11.0263 29.3451C10.7294 29.6716 10.6689 30.0564 10.8779 30.491C10.5608 30.5159 10.2746 30.5955 10.1262 30.9114C10.0561 31.0598 10.0609 31.0741 10.2248 31.0669C10.8553 31.0456 10.8874 31.08 10.8708 31.7106C10.8666 31.9663 10.8607 32.222 10.8529 32.4777C10.8529 32.5003 10.8411 32.524 10.828 32.5715C10.6392 32.4421 10.4254 32.4136 10.2069 32.3981C10.0253 32.3839 9.88513 32.3352 9.84713 32.1155C9.81151 31.9065 9.66188 31.9659 9.61201 32.0906C9.53363 32.2901 9.46594 32.4741 9.24151 32.5573C9.17857 32.5786 9.16313 32.6831 9.22726 32.6986C9.57519 32.7686 9.51226 33.2258 9.83051 33.3173C9.90651 33.2234 9.83763 33.1059 9.88276 33.0073C9.99794 32.8078 10.1808 32.7793 10.3459 32.8969C10.5216 33.0192 10.4979 33.2139 10.4088 33.3909C10.277 33.6604 9.93144 33.8089 9.59538 33.7459C9.42605 33.7185 9.271 33.6345 9.15544 33.5077C9.03988 33.381 8.9706 33.2188 8.95888 33.0477C8.94818 32.8276 8.99526 32.6086 9.09544 32.4124C9.78419 30.9375 10.4777 29.4674 11.1736 27.9901C11.303 28.0626 11.3232 28.192 11.3707 28.2977C11.9965 29.6146 12.6199 30.9328 13.2434 32.2533C13.3586 32.4979 13.45 32.7473 13.4453 33.0204C13.4457 33.1935 13.3848 33.3612 13.2732 33.4936C13.1617 33.6261 13.0068 33.7146 12.8361 33.7436Z" fill="#FDC40C"/>
<path fill-rule="evenodd" clip-rule="evenodd" d="M10.0782 17.691C10.0806 17.7059 10.0806 17.7211 10.0782 17.736C9.87424 17.7337 9.66312 17.8036 9.47217 17.6755L10.0782 17.691Z" fill="#D2C02C"/>
<path fill-rule="evenodd" clip-rule="evenodd" d="M10.0782 34.2791C10.0806 34.2941 10.0806 34.3093 10.0782 34.3242C9.87424 34.3218 9.66312 34.3942 9.47217 34.2637C9.6738 34.2708 9.8778 34.2756 10.0782 34.2791Z" fill="#D3C02B"/>
<path fill-rule="evenodd" clip-rule="evenodd" d="M9.83863 18.6931C9.98926 18.7714 9.85761 18.9019 9.89082 19.0027C9.79238 18.9138 9.84338 18.7987 9.83863 18.6931Z" fill="#83BA67"/>
<path fill-rule="evenodd" clip-rule="evenodd" d="M9.89025 33.012C9.89025 33.1176 9.89025 33.2208 9.88787 33.3239C9.88787 33.3311 9.87245 33.3405 9.86534 33.3405C9.85585 33.3382 9.84636 33.3287 9.83806 33.3216C9.8428 33.216 9.78943 33.101 9.89025 33.012Z" fill="#83BA67"/>
<path fill-rule="evenodd" clip-rule="evenodd" d="M37.4575 23.6937C37.4646 20.3616 40.1508 17.6969 43.5066 17.6969C46.7972 17.7028 49.4798 20.3937 49.4798 23.6937C49.4754 25.2862 48.8403 26.812 47.7134 27.9373C46.5866 29.0625 45.0599 29.6955 43.4675 29.6977C40.1615 29.6954 37.4587 26.9938 37.4611 23.6878" fill="#FDC40C"/>
<path fill-rule="evenodd" clip-rule="evenodd" d="M37.8443 35.8538C37.0321 35.7493 36.2709 35.4702 35.5216 35.1555C35.0015 34.9299 34.4742 34.7185 33.9446 34.4917C34.0847 34.329 34.3163 34.3848 34.4885 34.2221C34.0408 34.0773 33.5563 34.1105 33.1715 33.8113C33.3568 33.6343 33.6346 33.6996 33.814 33.5215C33.3936 33.3588 32.9233 33.4574 32.516 33.1605C32.8545 33.0228 33.2024 33.0821 33.5076 32.8779C32.9316 32.6083 32.2085 32.809 31.7145 32.2188H33.0338C33.0397 32.201 33.0456 32.1832 33.0551 32.1654C32.8414 32.0668 32.6324 31.9671 32.4222 31.8721C31.8558 31.6191 31.3107 31.3341 30.8666 30.8972C30.7229 30.7547 30.489 30.5765 30.6303 30.3842C30.7229 30.2607 30.9556 30.4507 31.116 30.535C31.3855 30.6858 31.6361 30.8793 31.9757 30.8698C32.0149 30.7083 31.8807 30.6858 31.8106 30.6276C31.015 29.9602 30.2574 29.2608 29.6731 28.3951C29.5936 28.274 29.4487 28.1398 29.6221 28.0056C29.7848 27.8821 29.9439 27.945 30.0876 28.0828C30.4973 28.4925 30.8856 28.9307 31.3368 29.294C31.4683 29.4139 31.6287 29.4974 31.8023 29.5363C31.7227 29.4327 31.6408 29.3309 31.5565 29.2311C30.9473 28.5091 30.3821 27.7586 29.9558 26.9143C29.8608 26.7278 29.6815 26.5034 29.9498 26.3383C30.2075 26.1757 30.4165 26.33 30.5721 26.5426C30.9283 27.0283 31.2775 27.5258 31.6337 28.0103C31.718 28.1291 31.8023 28.2478 32.0042 28.3464C31.743 27.7325 31.4496 27.21 31.2632 26.6435C31.1195 26.197 31.0043 25.747 31.002 25.2815C30.9984 25.1508 31.0043 25.0226 31.0245 24.8967C31.0542 24.7376 31.129 24.6188 31.3178 24.607C31.5055 24.5987 31.5446 24.7198 31.5815 24.8647C31.7418 25.4453 31.8997 26.0296 32.0612 26.6079C32.1503 26.9297 32.2738 27.2349 32.4923 27.5828C32.465 27.0698 32.3189 26.6471 32.3355 26.2077C32.3462 26.0343 32.3462 25.8598 32.3688 25.6888C32.3726 25.629 32.3988 25.5729 32.4422 25.5315C32.4855 25.4901 32.5428 25.4666 32.6027 25.4655C32.7321 25.4572 32.8081 25.5356 32.8414 25.6698C32.9281 26.0047 32.9981 26.3467 33.1121 26.6744C34.5443 30.8283 37.4548 33.2567 41.7548 34.0357C42.2321 34.1224 42.7214 34.1426 43.2035 34.2008C43.2296 34.2613 43.1928 34.3124 43.1679 34.3587C43.0729 34.5582 43.0206 34.8183 42.8615 34.9335C42.6644 35.0783 42.4981 34.7969 42.3105 34.7221C41.6752 34.4763 41.0102 34.4905 40.35 34.4608C39.5935 34.4276 38.944 34.1925 38.4203 33.6391C38.2426 33.4557 38.0592 33.2779 37.8705 33.1059C37.5712 32.8245 37.2494 32.5965 36.8338 32.4884C36.094 32.296 35.5536 31.8115 35.0751 31.2403C34.568 30.6347 34.1417 29.965 33.5503 29.4318C33.4124 29.3065 33.2698 29.1864 33.1228 29.072C32.997 28.9734 32.8735 28.8404 32.7618 29.1076C32.6858 29.2952 32.5742 29.1076 32.4745 29.1005C32.3842 29.0945 32.2856 29.0542 32.2096 29.1302C32.1146 29.2358 32.2465 29.2928 32.288 29.3617C32.4186 29.5743 32.5576 29.7892 32.6466 30.0315C32.7333 30.2749 32.7523 30.4435 32.408 30.3925C32.3331 30.3818 32.256 30.4008 32.1384 30.4067C32.351 30.7962 32.6704 31.0456 32.9708 31.3365C32.8307 31.4315 32.6561 31.3365 32.516 31.4683C32.7511 31.6999 33.0219 31.8828 33.3247 32.0063C33.3829 32.0312 33.4328 32.0585 33.4921 32.0645C33.8567 32.1013 33.529 32.4326 33.7059 32.5585C33.8211 32.6416 34.1714 32.6178 33.8864 32.9254C33.8056 33.0109 33.8496 33.1486 33.9909 33.1997C34.0776 33.2294 34.1666 33.2615 34.2581 33.2828C34.4766 33.3446 34.6298 33.4111 34.3388 33.607C34.1845 33.7056 34.2486 33.7804 34.3804 33.8493C34.6654 34.0084 34.9801 34.0808 35.3601 34.1604C35.1618 34.2934 35.0157 34.392 34.821 34.5178C35.8149 35.1021 36.8718 35.4346 37.9203 35.7778C37.931 35.8478 37.9239 35.8823 37.8443 35.8538Z" fill="#FDC40C"/>
<path fill-rule="evenodd" clip-rule="evenodd" d="M42.7856 38.7239C42.5837 38.7595 42.4828 38.8795 42.3546 38.9507C42.1859 39.0517 42.0244 39.1728 41.8226 39.1942C41.7276 39.206 41.5958 39.263 41.5364 39.155C41.4948 39.0742 41.5708 38.9816 41.6231 38.9032C41.9092 38.4532 42.3664 38.2976 42.8569 38.2168C43.4768 38.1147 44.1109 38.1468 44.7331 38.142C45.2461 38.1361 45.7615 38.1337 46.2472 37.9603C46.55 37.8511 46.968 37.8321 46.93 37.331C46.9276 37.2609 47.0048 37.2561 47.0547 37.2324C47.1295 37.2027 47.2471 37.1706 47.2589 37.1172C47.3682 36.6778 47.7268 36.7752 48.0154 36.7705C48.9689 36.755 49.9094 36.9486 50.8618 36.9795C51.0661 36.9866 51.0483 37.1113 51.015 37.2443C50.9093 37.6837 50.3061 37.9105 49.875 37.6694C49.7824 37.6219 49.704 37.5566 49.5853 37.4758L49.5057 37.9271C49.4356 38.2833 49.2207 38.3902 48.9001 38.2275C48.4643 38.0043 48.4607 38.0043 48.2446 38.4199C48.1793 38.5434 48.1139 38.6835 47.9584 38.6966C47.7541 38.7144 47.7185 38.5208 47.6116 38.3403C47.5024 38.484 47.4157 38.6123 47.3124 38.7298C47.1248 38.94 46.9253 39.0778 46.6842 38.7868C46.5453 38.6206 46.4598 38.6764 46.3398 38.8367C46.0584 39.2262 45.8838 39.2143 45.6653 38.8094C45.5786 38.6432 45.5121 38.6491 45.4433 38.8118C45.3803 38.9519 45.315 39.0861 45.1796 39.1716C45.0585 39.2488 44.9279 39.2998 44.7866 39.244C44.6215 39.1716 44.6975 39.0255 44.7011 38.9056C44.7011 38.8308 44.7604 38.7488 44.6571 38.6598C44.4778 38.7738 44.3626 38.9614 44.2083 39.1098C44.0883 39.2203 43.9506 39.3592 43.7831 39.2832C43.6204 39.2155 43.7297 39.0398 43.7238 38.908C43.7178 38.8308 43.7439 38.7488 43.6668 38.6503C43.5278 38.8023 43.4019 38.9614 43.2606 39.1039C43.1561 39.212 43.0208 39.3343 42.8664 39.2725C42.7096 39.2048 42.788 39.0291 42.7856 38.8937C42.7821 38.8462 42.7856 38.7999 42.7856 38.7239Z" fill="#FDC40C"/>
<path fill-rule="evenodd" clip-rule="evenodd" d="M36.9194 17.1554C37.5013 17.4499 38.0808 17.7373 38.5855 18.1387C38.8681 18.3631 38.8681 18.6517 38.6247 18.8821C38.3848 19.1124 38.1117 19.0922 37.8849 18.7954C37.5013 18.2907 37.2199 17.7207 36.9194 17.1554Z" fill="#FCC40D"/>
<path fill-rule="evenodd" clip-rule="evenodd" d="M34.4263 21.8425C35.026 21.8187 35.6256 21.7867 36.2194 21.7748C36.4426 21.7712 36.6659 21.8306 36.755 22.0836C36.7907 22.1762 36.7991 22.2772 36.7791 22.3744C36.7591 22.4717 36.7116 22.5612 36.6421 22.6322C36.4652 22.8198 36.2384 22.7782 36.027 22.6939C35.459 22.4802 34.921 22.194 34.4263 21.8425Z" fill="#FBC40D"/>
<path fill-rule="evenodd" clip-rule="evenodd" d="M49.9695 17.1779C49.7161 17.7642 49.3953 18.3189 49.0136 18.8309C48.7999 19.104 48.5279 19.104 48.2952 18.8725C48.0648 18.6421 48.0648 18.369 48.3296 18.1529C48.8248 17.7491 49.3984 17.4689 49.9695 17.1779Z" fill="#FCC40D"/>
<path fill-rule="evenodd" clip-rule="evenodd" d="M45.2549 14.6521C45.3641 15.2898 45.414 15.9192 45.376 16.5533C45.3546 16.8882 45.1148 17.0663 44.8084 17.0081C44.4795 16.9488 44.3215 16.6994 44.432 16.3621C44.6326 15.7589 44.9473 15.2138 45.2549 14.6521Z" fill="#FCC40D"/>
<path fill-rule="evenodd" clip-rule="evenodd" d="M41.6695 14.6759C42.008 15.2447 42.3345 15.8135 42.515 16.4488C42.591 16.7445 42.3998 16.9678 42.0946 17.0117C41.7859 17.058 41.5662 16.8775 41.5484 16.5296C41.5198 15.9091 41.5605 15.2874 41.6695 14.6759Z" fill="#FCC40D"/>
<path fill-rule="evenodd" clip-rule="evenodd" d="M39.9238 15.2388C40.387 15.709 40.8394 16.1876 41.1588 16.7647C41.3049 17.0295 41.1707 17.292 40.8833 17.4095C40.596 17.5235 40.3418 17.4 40.2433 17.0687C40.0708 16.4721 39.9637 15.8585 39.9238 15.2388Z" fill="#FCC40D"/>
<path fill-rule="evenodd" clip-rule="evenodd" d="M35.791 18.5696C36.4156 18.7383 37.0379 18.9081 37.6126 19.2085C37.9095 19.3676 37.963 19.6431 37.7813 19.9127C37.602 20.1763 37.3288 20.2286 37.0676 20.0018C36.5843 19.5826 36.1865 19.0874 35.791 18.5696Z" fill="#FCC40D"/>
<path fill-rule="evenodd" clip-rule="evenodd" d="M51.2402 18.5139C50.7712 19.0696 50.3745 19.5505 49.909 19.9733C49.624 20.231 49.3343 20.1894 49.1443 19.8961C48.965 19.6135 49.035 19.3499 49.3711 19.1848C49.9375 18.9057 50.5396 18.7193 51.2402 18.5139Z" fill="#FCC40D"/>
<path fill-rule="evenodd" clip-rule="evenodd" d="M43.4645 14.3363C43.6664 15.0345 43.8635 15.6485 43.9431 16.2933C43.9858 16.659 43.8018 16.8751 43.4728 16.8751C43.1391 16.8775 42.9491 16.6638 42.9931 16.3028C43.0715 15.658 43.2733 15.0428 43.4645 14.3363Z" fill="#FCC40D"/>
<path fill-rule="evenodd" clip-rule="evenodd" d="M47.0568 15.1438C46.9618 15.7495 46.881 16.3586 46.767 16.956C46.6863 17.3882 46.4143 17.5319 46.0688 17.3787C45.7505 17.2386 45.6757 16.9773 45.8823 16.6294C46.2018 16.0974 46.5996 15.6153 47.0568 15.1438Z" fill="#FCC40D"/>
<path fill-rule="evenodd" clip-rule="evenodd" d="M34.9434 20.1764C35.591 20.1852 36.2352 20.2737 36.8612 20.44C37.1759 20.5267 37.2744 20.7784 37.164 21.0705C37.0441 21.3817 36.7947 21.4945 36.4954 21.3342C35.929 21.0207 35.4409 20.5955 34.9434 20.1764Z" fill="#FBC40D"/>
<path fill-rule="evenodd" clip-rule="evenodd" d="M51.9917 20.1729C51.5048 20.6039 51.0002 21.0136 50.4397 21.3342C50.1428 21.4957 49.891 21.3794 49.7711 21.067C49.6571 20.7785 49.7568 20.5315 50.0751 20.44C50.7008 20.2739 51.3444 20.1842 51.9917 20.1729Z" fill="#FBC40D"/>
<path fill-rule="evenodd" clip-rule="evenodd" d="M52.5229 21.9268C51.9873 22.2142 51.4434 22.4897 50.871 22.7094C50.6692 22.7842 50.4507 22.8115 50.2892 22.6286C50.2198 22.5576 50.1722 22.4682 50.1518 22.3711C50.1314 22.2739 50.1391 22.1729 50.174 22.08C50.2583 21.8425 50.4625 21.7748 50.6751 21.7772C51.2843 21.7867 51.8911 21.8188 52.5015 21.8401C52.5146 21.8698 52.5169 21.8959 52.5229 21.9268Z" fill="#FBC40D"/>
<path fill-rule="evenodd" clip-rule="evenodd" d="M52.7132 23.6914C52.0909 23.9075 51.4639 24.1023 50.8096 24.183C50.5044 24.2222 50.3002 24.012 50.2919 23.7104C50.2824 23.4016 50.4676 23.201 50.7847 23.2212C51.4485 23.2627 52.0695 23.5062 52.7132 23.6914Z" fill="#FBC40D"/>
<path fill-rule="evenodd" clip-rule="evenodd" d="M38.3447 31.428C38.4786 30.8097 38.6768 30.2071 38.9361 29.6301C39.1071 29.2679 39.3731 29.1848 39.664 29.3689C39.9668 29.5529 39.9906 29.8474 39.7246 30.1585C39.6343 30.2654 39.5322 30.3628 39.4301 30.4554C39.0703 30.7844 38.7093 31.105 38.3447 31.428Z" fill="#FCC40D"/>
<path fill-rule="evenodd" clip-rule="evenodd" d="M35.6846 28.895C36.1418 28.3405 36.5526 27.8809 36.9908 27.4534C37.1511 27.2967 37.3388 27.2016 37.5573 27.2907C37.7532 27.3738 37.8696 27.546 37.8791 27.7526C37.8969 28.0139 37.7188 28.154 37.5086 28.2431C36.9457 28.4901 36.3603 28.673 35.6846 28.895Z" fill="#FCC40D"/>
<path fill-rule="evenodd" clip-rule="evenodd" d="M51.1814 28.8119C50.5645 28.6844 49.9632 28.4901 49.3883 28.2324C49.0143 28.0566 48.9383 27.7289 49.1781 27.4415C49.3693 27.2052 49.6436 27.1957 49.9061 27.4332C50.083 27.5852 50.2386 27.755 50.3941 27.9296C50.6613 28.2205 50.919 28.5174 51.1814 28.8119Z" fill="#FCC40D"/>
<path fill-rule="evenodd" clip-rule="evenodd" d="M52.0188 27.2385C51.4037 27.2014 50.7922 27.1201 50.1888 26.995C49.9703 26.944 49.7851 26.849 49.7376 26.6138C49.7176 26.5162 49.7262 26.4148 49.7624 26.3219C49.7987 26.229 49.861 26.1485 49.9418 26.0902C50.1449 25.9287 50.3622 25.9975 50.5534 26.1234C51.0771 26.4464 51.5473 26.8335 52.0188 27.2385Z" fill="#FCC40D"/>
<path fill-rule="evenodd" clip-rule="evenodd" d="M49.9933 30.225C49.4328 29.9412 48.8842 29.6657 48.3926 29.294C48.0743 29.0577 48.0446 28.7775 48.2869 28.5281C48.4888 28.3215 48.7714 28.2989 48.9578 28.5138C49.3996 29.0233 49.6846 29.6301 49.9933 30.225Z" fill="#FCC40D"/>
<path fill-rule="evenodd" clip-rule="evenodd" d="M34.229 23.6534C34.7741 23.5121 35.3203 23.366 35.8713 23.2425C36.3321 23.1404 36.5791 23.2734 36.6337 23.6071C36.6871 23.955 36.4746 24.2258 36.1231 24.183C35.4723 24.1058 34.8465 23.9075 34.229 23.6534Z" fill="#FBC40D"/>
<path fill-rule="evenodd" clip-rule="evenodd" d="M48.6696 31.4766C48.1624 31.068 47.6787 30.6311 47.2208 30.168C47.0724 30.0125 46.9655 29.826 47.0664 29.604C47.1036 29.5118 47.1665 29.4323 47.2475 29.3748C47.3286 29.3174 47.4244 29.2844 47.5236 29.2798C47.773 29.2631 47.9072 29.4258 47.9974 29.6218C48.2623 30.1965 48.4487 30.8045 48.6696 31.4766Z" fill="#FCC40D"/>
<path fill-rule="evenodd" clip-rule="evenodd" d="M36.9785 30.1893C37.2362 29.6229 37.5236 29.0945 37.8798 28.6159C38.1114 28.3072 38.4142 28.2846 38.647 28.5233C38.8453 28.7275 38.8892 28.9733 38.6766 29.1681C38.1826 29.6193 37.577 29.896 36.9785 30.1893Z" fill="#FCC40D"/>
<path fill-rule="evenodd" clip-rule="evenodd" d="M41.7044 32.7829C41.5849 32.1714 41.5335 31.5485 41.5513 30.9257C41.5691 30.554 41.7341 30.3794 42.0464 30.3913C42.4181 30.4043 42.6105 30.662 42.5048 31.0349C42.4586 31.1884 42.3985 31.3375 42.3255 31.4802C42.1213 31.9137 41.9075 32.3483 41.7044 32.7829Z" fill="#FCC40D"/>
<path fill-rule="evenodd" clip-rule="evenodd" d="M45.2916 32.8696C44.9662 32.2307 44.68 31.6892 44.4615 31.1156C44.3843 30.9102 44.3546 30.7024 44.5292 30.535C44.6027 30.4592 44.6975 30.4077 44.801 30.3871C44.9045 30.3665 45.0118 30.3779 45.1087 30.4198C45.3331 30.5041 45.3854 30.7166 45.3889 30.9363C45.402 31.5491 45.3545 32.1559 45.2916 32.8696Z" fill="#FCC40D"/>
<path fill-rule="evenodd" clip-rule="evenodd" d="M34.9194 27.2409C35.3826 26.8371 35.8493 26.4559 36.3575 26.1341C36.5523 26.0106 36.7589 25.9299 36.9726 26.0747C37.1496 26.1959 37.2374 26.3835 37.203 26.5901C37.1638 26.8573 36.9513 26.9499 36.7043 27.0057C36.1188 27.1328 35.5215 27.1874 34.9194 27.2409Z" fill="#FCC40D"/>
<path fill-rule="evenodd" clip-rule="evenodd" d="M38.2969 16.064C38.3064 16.0581 38.3194 16.0462 38.3242 16.0462C38.9357 16.406 39.4606 16.8798 39.8537 17.4665C40.0152 17.7004 39.8406 17.932 39.5984 18.0602C39.3276 18.2027 39.1198 18.1053 38.9821 17.8619C38.7612 17.4665 38.6412 17.0295 38.4857 16.6055C38.4204 16.4238 38.3622 16.2445 38.2969 16.064Z" fill="#FCC40D"/>
<path fill-rule="evenodd" clip-rule="evenodd" d="M48.5685 16.0546C48.4177 16.6875 48.2408 17.3098 47.938 17.8786C47.7895 18.1589 47.5176 18.1957 47.2587 18.0175C46.9975 17.8359 46.9429 17.5603 47.1625 17.2991C47.5675 16.8253 48.0591 16.4382 48.5685 16.0546Z" fill="#FCC40D"/>
<path fill-rule="evenodd" clip-rule="evenodd" d="M39.9319 32.0027C39.9782 31.4695 40.053 30.941 40.1694 30.4257C40.2596 30.0219 40.5173 29.8735 40.8498 30.0053C41.1764 30.1288 41.2678 30.4292 41.0469 30.7748C40.7204 31.2928 40.3527 31.7836 39.9473 32.2425C39.895 32.1654 39.9057 32.0846 39.9319 32.0027Z" fill="#FCC40D"/>
<path fill-rule="evenodd" clip-rule="evenodd" d="M52.6176 25.5119C51.9623 25.6018 51.3003 25.634 50.6393 25.6081C50.27 25.5879 50.0966 25.3611 50.1666 25.0393C50.2319 24.7032 50.4635 24.5595 50.8079 24.6723C51.4183 24.8706 51.9776 25.1818 52.6176 25.5119Z" fill="#FCC40D"/>
<path fill-rule="evenodd" clip-rule="evenodd" d="M34.3159 25.5177C34.9477 25.1829 35.4963 24.899 36.0734 24.6853C36.2884 24.6057 36.4914 24.5915 36.6458 24.7779C36.714 24.8495 36.7599 24.9393 36.778 25.0365C36.7962 25.1337 36.7857 25.234 36.7479 25.3254C36.6577 25.5605 36.4617 25.6104 36.2409 25.6139C35.5978 25.6234 34.9548 25.5913 34.3159 25.5177Z" fill="#FCC40D"/>
<path fill-rule="evenodd" clip-rule="evenodd" d="M46.9885 32.2438C46.5907 31.7937 46.2404 31.3056 45.9067 30.8045C45.782 30.6193 45.6977 30.4067 45.8438 30.1929C45.9025 30.1054 45.9863 30.0377 46.0842 29.9988C46.1821 29.9598 46.2896 29.9513 46.3924 29.9744C46.6536 30.0279 46.7344 30.2404 46.7724 30.4589C46.8591 30.9719 46.9291 31.4873 47.0027 32.0027C47.0312 32.0846 47.0431 32.1654 46.9885 32.2438Z" fill="#FCC40D"/>
<path fill-rule="evenodd" clip-rule="evenodd" d="M43.4694 33.0536C43.2688 32.3625 43.0954 31.7735 42.9992 31.1631C42.9636 30.9541 42.966 30.738 43.1761 30.6062C43.2597 30.5526 43.3565 30.523 43.4557 30.5207C43.555 30.5184 43.653 30.5435 43.739 30.5931C43.9718 30.7214 43.9694 30.9517 43.935 31.175C43.84 31.7854 43.6583 32.3744 43.4694 33.0536Z" fill="#FCC40D"/>
<path fill-rule="evenodd" clip-rule="evenodd" d="M42.7085 37.7431C42.8985 37.6849 43.1039 37.7668 43.2904 37.673C43.6941 37.6849 44.1086 37.6196 44.5064 37.7597C43.9079 37.81 43.306 37.8044 42.7085 37.7431Z" fill="#E1C221"/>
<path fill-rule="evenodd" clip-rule="evenodd" d="M55.1122 30.6074C55.9257 29.9413 56.6797 29.2228 57.2699 28.3453C57.34 28.2396 57.4433 28.1315 57.2996 28.0151C57.1809 27.9094 57.0384 27.9249 56.9101 28.0033C56.8424 28.0448 56.7961 28.1137 56.7367 28.1743C56.3888 28.5139 56.048 28.8642 55.6882 29.1919C55.4958 29.3701 55.2915 29.5434 54.9495 29.6788C55.073 29.5399 55.1229 29.4769 55.1811 29.4199C55.8785 28.656 56.4795 27.8093 56.9707 26.8989C57.0728 26.7172 57.2034 26.4987 56.9683 26.3419C56.7367 26.1888 56.523 26.3134 56.3579 26.5046C56.314 26.5581 56.2772 26.621 56.2344 26.6756C55.8782 27.1435 55.5896 27.6708 55.1918 28.1101C55.117 28.1944 55.0635 28.3334 54.8985 28.3179C55.0635 27.9759 55.2274 27.6506 55.377 27.3204C55.6929 26.6032 55.9364 25.8658 55.9114 25.0713C55.9007 24.8588 55.8782 24.6213 55.5955 24.607C55.3379 24.5975 55.3414 24.8231 55.2856 24.9965C55.0362 25.8064 54.9329 26.6566 54.5185 27.4107C54.4377 27.438 54.4164 27.4059 54.4401 27.3335C54.4924 26.8039 54.6586 26.2849 54.5375 25.7423C54.5042 25.5879 54.4591 25.4644 54.2845 25.4715C54.129 25.481 54.0613 25.5831 54.0245 25.7434C53.0662 30.1028 49.5927 33.4052 45.2025 34.0049C44.2276 34.1391 43.5068 34.4644 42.9308 35.2399C42.5271 35.7778 41.9773 36.1483 41.3242 36.3573C41.019 36.4594 40.7007 36.539 40.4252 36.7231C40.234 36.8478 40.0654 36.9843 40.0749 37.242C39.816 37.356 39.6177 37.5139 39.6047 37.8239C39.6011 37.8963 39.6094 38.0364 39.6973 37.9996C39.8707 37.9248 40.0559 37.9664 40.1937 37.9355C41.0308 37.7728 41.8704 37.7978 42.7052 37.7443C42.9035 37.7443 43.1125 37.8583 43.2871 37.6743C42.9178 37.6149 42.5532 37.5151 42.1732 37.5935C42.0889 37.6125 41.9654 37.6125 41.9238 37.5199C41.8823 37.4332 41.9892 37.3881 42.0248 37.318C42.0699 37.2373 42.2718 37.1553 42.0165 37.0686C41.9595 37.0484 42.0485 36.9855 42.0865 36.9451C42.1423 36.8858 42.254 36.8703 42.2599 36.729C41.9238 36.7908 41.5985 36.8501 41.2707 36.9048C41.2208 36.9297 41.1353 36.9416 41.1258 36.9808C41.0688 37.1304 41.0724 37.3394 40.88 37.3548C40.6586 37.377 40.4352 37.3384 40.234 37.2432C40.3943 37.2764 40.5036 37.1387 40.6413 37.0995C40.7553 37.1292 40.7957 37.0294 40.8598 36.9713C40.994 36.9202 41.1152 36.8181 41.2719 36.8264C42.0652 36.3894 42.8323 35.9156 43.4985 35.2898C43.7288 35.0677 44.0222 34.9608 44.3309 34.8789C45.1966 34.6485 46.0932 34.601 46.9743 34.4526C47.3008 34.3968 47.5847 34.3041 47.8055 34.0191C48.0715 33.6771 48.4278 33.4254 48.8137 33.2235C49.5084 32.8589 50.215 32.5063 50.9215 32.1559C51.0824 32.0892 51.2147 31.9682 51.2956 31.8139C51.6851 31.0159 52.2907 30.4222 53.0175 29.9377C53.3132 29.7441 53.635 29.623 53.9936 29.6076C54.2335 29.5993 54.3261 29.6658 54.2477 29.927C54.1527 30.2571 53.939 30.5148 53.7276 30.8271C53.8594 30.7939 53.9461 30.7689 54.0364 30.7488C54.1646 30.7191 54.3332 30.5956 54.4199 30.7262C54.5149 30.8711 54.3867 31.0361 54.2845 31.1608C54.142 31.3342 53.9829 31.4933 53.8321 31.656C53.9342 31.7736 54.1385 31.6762 54.2311 31.8496C53.8345 32.1536 53.3595 32.3329 52.9878 32.6642C53.0198 32.7592 53.1659 32.7212 53.1754 32.8613C53.002 32.9421 52.831 33.0466 52.6493 33.1071C52.3905 33.1903 52.419 33.3933 52.394 33.5916C52.3905 33.6284 52.3073 33.6617 52.2539 33.6843C52.1363 33.7353 52.0129 33.7709 51.8953 33.822C51.8027 33.8624 51.6732 33.9111 51.7849 34.0429C51.9618 34.2424 51.7777 34.2756 51.6614 34.3196C51.5307 34.3683 51.3823 34.3873 51.241 34.4158C51.2802 34.6236 51.3752 34.8124 51.1543 34.9668C50.519 35.4061 49.8599 35.7849 49.0904 35.931C49.1106 36.0961 49.2187 36.0058 49.297 35.9999C50.3848 36.0213 51.3407 35.6306 52.2337 35.0606C52.2824 35.0333 52.3489 35.0107 52.3489 34.9406C52.3489 34.8563 52.2717 34.8658 52.223 34.8421C52.0639 34.7613 51.8656 34.7518 51.7255 34.5808C52.2349 34.2459 52.8583 34.3956 53.3975 34.1581C53.1362 33.9503 52.8168 34.1236 52.5733 33.9265C53.1053 33.7472 53.6801 33.7638 54.1872 33.4183C53.8654 33.2508 53.5447 33.4183 53.2668 33.2449C53.4616 33.1356 53.6528 33.0976 53.8452 33.0489C54.1765 32.9563 54.5149 32.8637 54.8154 32.6808C54.8854 32.6416 54.978 32.6001 54.9555 32.5039C54.9341 32.3923 54.8308 32.4291 54.7524 32.4267C54.6265 32.4267 54.4971 32.4386 54.3724 32.4386C54.3059 32.4362 54.2192 32.4635 54.1919 32.3768C54.1658 32.2866 54.2549 32.264 54.3107 32.2331C54.6444 32.0218 54.9792 31.8151 55.3105 31.6002C55.6169 31.4078 55.9079 31.1917 56.124 30.8972C56.2368 30.7464 56.4244 30.5469 56.276 30.3794C56.1525 30.2381 55.9649 30.4376 55.8212 30.5077C55.6846 30.5742 55.5635 30.6728 55.4317 30.7381C55.2666 30.8176 55.0956 30.8996 54.908 30.8259C54.9032 30.8058 54.8985 30.7891 54.9032 30.7832C54.9745 30.7262 55.0434 30.6668 55.1122 30.6074Z" fill="#FBC40E"/>
<path fill-rule="evenodd" clip-rule="evenodd" d="M49.0909 35.925C49.1608 35.9488 49.2273 35.9737 49.2972 35.9938C49.2142 36.0353 49.1189 36.045 49.0292 36.0211C48.9924 36.0116 48.9248 36.0033 48.964 35.944C48.9794 35.9203 49.0458 35.9286 49.0909 35.925Z" fill="#FDC40C"/>
<path fill-rule="evenodd" clip-rule="evenodd" d="M40.8613 36.9701C40.8376 37.0543 40.9064 37.1669 40.8079 37.2191C40.7083 37.2666 40.6739 37.1752 40.6431 37.1041C40.6671 37.0669 40.6992 37.0355 40.737 37.0123C40.7747 36.9891 40.8172 36.9747 40.8613 36.9701Z" fill="#FBC40E"/>
<path fill-rule="evenodd" clip-rule="evenodd" d="M13.6836 36.7325C13.7988 36.4926 13.9128 36.2504 13.971 35.9856C14.1658 35.1258 13.8024 34.5166 12.989 34.3314C12.7954 34.2661 12.5935 34.3171 12.394 34.3029C11.8798 34.2376 11.4939 34.4668 11.1887 34.8788C10.8835 34.4656 10.5356 34.2103 10.025 34.3029C9.84327 34.2815 9.65327 34.3468 9.47277 34.2649L9.38371 34.2732C9.35402 34.373 9.24952 34.3658 9.17708 34.3967C8.6344 34.6318 8.3779 35.0427 8.40758 35.6305C8.42421 36.0022 8.5489 36.3418 8.7104 36.672C9.36115 38.0162 10.0036 39.3664 10.6567 40.7095C10.7671 40.9351 10.8253 41.1655 10.8158 41.4125C10.8016 41.7806 10.5356 42.0608 10.1532 42.1238C9.83615 42.1748 9.45377 41.9421 9.3564 41.6167C9.27921 41.3602 9.30533 41.1049 9.4799 40.8923C9.60696 40.732 9.78508 40.7178 9.97746 40.7558C10.1496 40.789 10.2316 40.8947 10.234 41.0586C10.2363 41.1548 10.2221 41.2628 10.0926 41.2806C9.90027 41.3044 9.89315 41.1465 9.84802 41.023C9.84327 41.0087 9.81002 41.0063 9.78746 40.9968C9.69602 41.0443 9.71977 41.1785 9.67702 41.2082C9.30652 41.4528 9.77083 41.6096 9.7364 41.8186C9.73402 41.8447 9.83852 41.8863 9.85277 41.834C9.8979 41.6488 10.0475 41.7343 10.1496 41.707C10.4121 41.631 10.5665 41.4742 10.5771 41.188C10.5997 40.6976 10.3444 40.4256 9.74708 40.3223C9.90027 40.0991 9.60815 39.8651 9.76371 39.6383C9.77677 39.6229 9.74471 39.5706 9.69365 39.592C9.35402 39.7191 9.48465 39.4673 9.48702 39.3272C9.49533 38.8558 9.16165 38.4758 8.7199 38.4758C8.94552 38.8142 9.05833 39.174 9.02746 39.5801C8.99628 39.9561 8.92948 40.3283 8.82796 40.6916C8.6724 41.2723 8.62846 41.8423 9.1569 42.2829C8.69733 42.6011 8.69971 42.6368 9.17352 42.9194C8.71277 43.3968 8.60708 43.7316 8.78521 44.405C8.99896 45.2125 9.21152 46.0093 8.64152 46.8037C9.25783 46.6826 9.5369 46.3453 9.51433 45.8121C9.51196 45.7314 9.43121 45.5818 9.60815 45.6352C9.82665 45.7005 9.76965 45.5794 9.74471 45.4737C9.72927 45.4072 9.70196 45.3407 9.6794 45.273C10.0796 45.2006 9.73996 45.0225 9.72452 44.8716C9.8755 44.8855 10.0274 44.8584 10.1643 44.7932C10.3012 44.728 10.418 44.6271 10.5023 44.5011C10.5546 44.3396 10.6056 44.1758 10.5724 44.0012C10.5166 43.7233 10.38 43.5333 10.0606 43.5428C9.98577 43.5476 9.88127 43.6129 9.85158 43.4811C9.80052 43.2376 9.69246 43.379 9.6984 43.4751C9.7079 43.6841 9.50365 43.6651 9.41458 43.8065C9.59627 43.8955 9.7269 44.0345 9.72215 44.2625C9.7269 44.2672 9.73402 44.2696 9.74233 44.272C9.79933 44.247 9.82308 44.2423 9.82546 44.2316C9.85396 44.0903 9.84802 43.9193 10.063 43.9418C10.1568 43.9513 10.2161 44.0166 10.2161 44.1164C10.2221 44.3005 10.1211 44.4109 9.94302 44.4477C9.67227 44.5023 9.46327 44.4038 9.34571 44.152C9.20202 43.8445 9.29108 43.4751 9.54046 43.297C9.82308 43.0951 10.3278 43.0785 10.5724 43.2756C10.8705 43.5143 10.836 43.8255 10.7363 44.1413C10.6947 44.2648 10.6757 44.4002 10.5795 44.5011C10.4085 44.9286 10.2363 45.3561 10.0701 45.7848C9.9644 46.058 9.93115 46.337 10.1888 46.5555C10.4358 46.7669 10.7208 46.7788 11.0058 46.6398C11.1495 46.5686 11.26 46.5579 11.4084 46.6339C11.7017 46.7859 12.001 46.7681 12.2515 46.5353C12.4961 46.3085 12.4427 46.0295 12.337 45.7587C12.1838 45.3621 12.0247 44.9714 11.868 44.5783C11.7421 44.3931 11.6922 44.1817 11.6388 43.9703C11.5628 43.6521 11.6364 43.3873 11.9309 43.221C12.2313 43.0524 12.7716 43.1379 12.983 43.3849C13.1991 43.6366 13.1825 43.924 13.046 44.2019C12.9355 44.4251 12.7265 44.4905 12.4878 44.4477C12.3145 44.4192 12.2052 44.3111 12.1957 44.1295C12.191 44.0143 12.2681 43.943 12.375 43.9359C12.5923 43.9205 12.546 44.1247 12.6149 44.2613C12.8191 44.1627 12.7111 43.8171 13.0139 43.8278C12.9676 43.7673 12.9462 43.7138 12.9248 43.7138C12.6802 43.7115 12.7004 43.2673 12.6196 43.3706C12.4961 43.5393 12.3952 43.5298 12.242 43.5464C11.9843 43.5737 11.792 43.886 11.8406 44.1888C11.862 44.3183 11.919 44.4418 11.9606 44.5676C12.0614 44.6755 12.1858 44.7587 12.3239 44.8108C12.4621 44.8629 12.6104 44.8825 12.7574 44.8681C12.3881 45.1281 12.8536 45.3823 12.6743 45.6198C12.6933 45.6269 12.717 45.6471 12.7348 45.6435C13.0566 45.5414 12.8975 45.7955 12.9035 45.8893C12.9225 46.3833 13.2158 46.7099 13.768 46.7776C13.249 46.0259 13.4022 45.2623 13.6243 44.4845C13.787 43.9038 13.7941 43.3315 13.2324 42.9146C13.7193 42.6451 13.7193 42.6451 13.2906 42.2615C13.7347 41.7723 13.7965 41.4647 13.6029 40.713C13.4058 39.9495 13.2217 39.1883 13.7252 38.42C13.5894 38.4369 13.4592 38.4841 13.3441 38.5581C13.229 38.6321 13.132 38.731 13.0602 38.8475C12.8963 39.0826 12.9094 39.3462 12.9771 39.598C12.8524 39.6716 12.7515 39.5303 12.6066 39.6443C12.9118 39.839 12.4213 40.0884 12.7146 40.314C12.3976 40.3568 12.1292 40.4185 11.9653 40.6857C11.678 41.156 11.9107 41.4837 12.4 41.7378C12.8666 41.9777 12.7075 41.4445 12.9248 41.4469C12.8263 41.2913 12.7289 41.1322 12.6149 40.9505C12.5199 41.0942 12.5472 41.3222 12.3204 41.2735C12.2016 41.2486 12.1791 41.15 12.1838 41.0467C12.1981 40.8341 12.337 40.7605 12.527 40.7391C12.7265 40.7166 12.8892 40.7771 12.9901 40.9576C13.154 41.245 13.1695 41.5431 12.9616 41.8126C12.7705 42.0573 12.5211 42.1915 12.1945 42.1C11.8561 42.0074 11.6423 41.7972 11.6043 41.4398C11.5782 41.1773 11.6566 40.9386 11.773 40.7035C12.4059 39.3818 13.0448 38.0578 13.6836 36.7325ZM12.0425 42.6225C11.7563 42.746 11.488 42.8244 11.3075 43.0453C11.235 43.1308 11.1804 43.1213 11.1103 43.0346C10.9263 42.8161 10.6567 42.7377 10.3539 42.6166C10.6805 42.5216 10.9381 42.3921 11.1222 42.1535C11.1792 42.0786 11.2326 42.0644 11.2908 42.1428C11.4678 42.3921 11.7397 42.5026 12.0425 42.6225ZM11.3086 40.4625C11.2849 40.5147 11.2481 40.5622 11.1958 40.6465L9.20796 36.4356C9.08802 36.1839 8.97283 35.9298 8.96333 35.6412C8.9534 35.4944 8.98902 35.3481 9.06532 35.2223C9.14161 35.0965 9.25488 34.9973 9.38965 34.9382C9.52435 34.8631 9.67861 34.8303 9.83223 34.8443C9.98584 34.8583 10.1317 34.9183 10.2506 35.0166C10.3206 35.0663 10.3776 35.1322 10.4167 35.2087C10.4558 35.2852 10.4758 35.3701 10.475 35.456C10.475 35.6115 10.4026 35.7481 10.2304 35.7706C10.0582 35.7932 9.91571 35.7279 9.86702 35.5403C9.84802 35.4643 9.8504 35.3823 9.84327 35.2814C9.5274 35.4073 9.57015 35.8478 9.22815 35.9179C9.2139 35.9203 9.21033 35.9749 9.20321 36.0058C9.57133 36.0758 9.49415 36.5556 9.84446 36.6945C9.81596 35.8823 10.5831 36.4048 10.8764 36.064C10.8764 36.368 10.8716 36.6743 10.8788 36.976C10.8883 37.4961 10.7956 37.5863 10.2601 37.5448C10.2138 37.5388 10.1663 37.5293 10.1164 37.5222C10.1971 37.9331 10.2696 37.9913 10.8978 38.148C10.5831 38.5446 10.766 38.8902 11.007 39.2286C11.1329 39.4103 11.2516 39.4281 11.4048 39.2429C11.6981 38.8902 11.748 38.547 11.5295 38.1255C11.8798 38.0839 12.2052 38.0008 12.3073 37.5994C12.2848 37.5828 12.2681 37.5614 12.2491 37.5614C11.5093 37.5234 11.5117 37.5234 11.5295 36.7836C11.5366 36.5544 11.5319 36.3228 11.5746 36.0628C11.8466 36.3881 12.5638 35.9013 12.5615 36.6696C12.7526 36.653 12.8275 36.5235 12.8714 36.362C12.888 36.305 12.888 36.2088 12.9213 36.1993C13.407 36.0212 13.1837 35.906 12.9141 35.7243C12.78 35.6305 12.818 35.3455 12.5591 35.2945C12.5543 35.3835 12.5543 35.4631 12.5413 35.5415C12.514 35.7267 12.3738 35.7766 12.2195 35.7742C12.0508 35.7718 11.963 35.6614 11.9475 35.4916C11.9214 35.2113 12.1672 34.9263 12.495 34.8598C12.6141 34.8338 12.7376 34.8359 12.8557 34.866C12.9738 34.8962 13.0833 34.9535 13.1753 35.0335C13.2674 35.1134 13.3395 35.2137 13.3859 35.3265C13.4323 35.4392 13.4517 35.5612 13.4426 35.6828C13.4345 35.8656 13.391 36.0451 13.3143 36.2112C12.6481 37.6303 11.9796 39.0458 11.3086 40.4625Z" fill="#FDC40C"/>
</svg>
