<svg width="76" height="54" viewBox="0 0 76 54" fill="none" xmlns="http://www.w3.org/2000/svg"><path d="M0 18.688h76v16.625H0V18.686z" fill="#E6E7E8"/><path d="M64.125.875h-52.25C4.005.875 0 6.723 0 13.938v4.75h76v-4.75C76 6.723 71.995.874 64.125.874z" fill="#1B75BB"/><path d="M0 40.063c0 7.214 4.005 13.062 11.875 13.062h52.25c7.87 0 11.875-5.848 11.875-13.063v-4.75H0v4.75z" fill="#29B473"/><path d="M13.598 15.494a4.64 4.64 0 01-4.641-4.643 4.643 4.643 0 014.64-4.645c.176 0 .352.013.522.034a5.338 5.338 0 00-2.725-.752 5.364 5.364 0 000 10.725c.959 0 1.9-.26 2.725-.75a5 5 0 01-.521.03zm20.413-10.01l.51 1.041 1.152.169-.828.81.195 1.145-1.029-.542-1.03.542.195-1.144-.828-.811 1.151-.169.512-1.041zm0 3.774l.51 1.048 1.152.176-.828.805.195 1.143-1.029-.541-1.03.541.195-1.143-.828-.806 1.151-.175.512-1.048zm0 3.789l.51 1.045 1.152.166-.828.81.195 1.145-1.029-.54-1.03.54.195-1.145-.828-.81 1.151-.166.512-1.045zm-4.277-7.563l.52 1.041 1.147.169-.83.81.194 1.145-1.03-.542-1.022.542.191-1.144-.829-.811 1.149-.169.51-1.041zm0 3.774l.52 1.048 1.147.176-.83.805.194 1.143-1.03-.541-1.022.541.191-1.143-.829-.806 1.149-.175.51-1.048zm0 3.789l.52 1.045 1.147.166-.83.81.194 1.145-1.03-.54-1.022.54.191-1.145-.829-.81 1.149-.166.51-1.045zm-4.268-7.563l.513 1.041 1.152.169-.84.81.204 1.145-1.03-.542-1.03.542.2-1.144-.838-.811 1.152-.169.517-1.041zm0 3.774l.513 1.048 1.152.176-.84.805.204 1.143-1.03-.541-1.03.541.2-1.143-.838-.806 1.152-.175.517-1.048zm0 3.789l.513 1.045 1.152.166-.84.81.204 1.145-1.03-.54-1.03.54.2-1.145-.838-.81 1.152-.166.517-1.045zm-4.274-3.789l.515 1.048 1.15.176-.832.805.198 1.143-1.03-.541-1.03.541.202-1.143-.839-.806 1.153-.175.513-1.048zm0 3.789l.515 1.045 1.15.166-.832.81.198 1.145-1.03-.54-1.03.54.202-1.145-.839-.81 1.153-.166.513-1.045zm-4.294 0l.514 1.045 1.152.166-.832.81.2 1.145-1.034-.54-1.03.54.198-1.145-.832-.81 1.15-.166.514-1.045z" fill="#E6E7E8"/><path d="M0 18.688h76v2.375H0v-2.375zm0 15.437h76V36.5H0v-2.375z" fill="#EC1C24"/></svg>