<svg width="76" height="54" viewBox="0 0 76 54" fill="none" xmlns="http://www.w3.org/2000/svg">
<path d="M76 40.0625C76 47.2766 71.9946 53.125 64.125 53.125H11.875C4.00544 53.125 0 47.2766 0 40.0625V13.9375C0 6.72344 4.00544 0.875 11.875 0.875H64.125C71.9946 0.875 76 6.72344 76 13.9375V40.0625Z" fill="#EC1C24"/>
<path fill-rule="evenodd" clip-rule="evenodd" d="M31.8347 14.4885C32.5092 14.7272 32.9759 15.1856 33.2906 15.8209C33.5673 16.385 33.781 16.9787 34.1076 17.519C34.2192 17.7031 34.3499 17.8765 34.4674 18.0558C34.5232 18.1449 34.5814 18.1544 34.6693 18.1021C34.7215 18.07 34.7833 18.0487 34.8439 18.0273C34.8961 18.0071 34.9151 17.9834 34.8925 17.9228C34.5874 17.101 34.5327 16.2306 34.3677 15.378C34.2536 14.7577 34.0131 14.1675 33.6611 13.6442C33.6469 13.6229 33.6374 13.5991 33.6089 13.5421C34.205 13.8497 34.6111 14.2855 34.8605 14.8674C35.0944 15.4148 35.2239 15.9967 35.3996 16.5619C35.5041 16.8909 35.6407 17.2055 35.7879 17.5155C35.8437 17.639 35.909 17.6722 36.042 17.633C36.2962 17.5582 36.2902 17.5654 36.2522 17.2899C36.2 16.8914 36.1726 16.49 36.1703 16.0881C36.1644 15.3827 36.1822 14.6785 36.0349 13.9803C35.9557 13.6323 35.8431 13.2926 35.6989 12.9662C36.2594 13.3842 36.5646 13.9114 36.7284 14.5265C36.8852 15.1239 36.9434 15.7402 37.0443 16.3494C37.0954 16.6557 37.1666 16.9538 37.2509 17.2507C37.2818 17.3706 37.3329 17.4193 37.454 17.392C37.473 17.3872 37.4884 17.3872 37.5062 17.3872C37.7425 17.3659 37.7449 17.3659 37.7449 17.1295C37.739 16.4301 37.9147 15.758 38.0786 15.0847C38.2603 14.3472 38.328 13.6039 38.2092 12.8498C38.2057 12.8237 38.208 12.7975 38.208 12.7417C38.6047 13.2298 38.778 13.7665 38.7947 14.3579C38.8125 14.9065 38.7472 15.4528 38.7056 15.9967C38.6787 16.4098 38.6862 16.8245 38.7282 17.2364C38.7484 17.4442 38.917 17.3587 39.0239 17.3872C39.1533 17.424 39.1402 17.3207 39.1533 17.2424C39.2566 16.5334 39.525 15.8755 39.7946 15.2153C40.0463 14.5978 40.2363 13.9649 40.222 13.288C40.222 13.1538 40.209 13.022 40.2007 12.8569C40.3931 13.1122 40.4999 13.3782 40.5735 13.6585C40.7362 14.2795 40.6389 14.8935 40.494 15.505C40.3717 16.0204 40.209 16.5263 40.1425 17.0524C40.1271 17.1628 40.1271 17.2732 40.1081 17.3813C40.0843 17.5072 40.1211 17.5547 40.2482 17.5808C40.5201 17.633 40.5225 17.6437 40.6199 17.373C40.8277 16.7816 41.1495 16.2484 41.4737 15.7152C41.7634 15.239 42.0544 14.7593 42.2064 14.213C42.2788 13.9482 42.3215 13.6799 42.3322 13.364C42.4985 13.6288 42.5721 13.8853 42.5994 14.1549C42.6505 14.6049 42.5424 15.0324 42.3809 15.4504C42.1387 16.0786 41.8145 16.6747 41.6185 17.3231C41.5675 17.4858 41.5319 17.6497 41.4855 17.8124C41.4582 17.9145 41.4891 17.9667 41.5924 18.0059C41.8335 18.0938 41.8275 18.1009 41.9499 17.8646C42.2942 17.1925 42.787 16.6332 43.2775 16.0727C43.5957 15.7129 43.9009 15.3483 44.0969 14.9042C44.1919 14.6845 44.2584 14.4553 44.2987 14.1822C44.408 14.4529 44.421 14.7047 44.4104 14.954C44.3854 15.4659 44.1883 15.9254 43.9354 16.3636C43.5981 16.9467 43.1932 17.4929 42.9082 18.1057C42.8559 18.2185 42.8179 18.3325 42.7657 18.4441C42.7229 18.532 42.7479 18.5759 42.831 18.6234C43.0376 18.7469 43.0376 18.7529 43.1754 18.5605C43.6349 17.9145 44.2548 17.4383 44.8533 16.9348C45.2998 16.5584 45.7285 16.1641 45.9791 15.619C46.0301 15.511 46.0705 15.3982 46.1287 15.2592C46.232 16.0454 45.9992 16.6997 45.5551 17.297C45.1525 17.8337 44.6669 18.3028 44.2833 18.8526C44.1766 19.0057 44.0748 19.1621 43.9781 19.3217C43.8902 19.4594 44.0434 19.4772 44.0957 19.5449C44.1455 19.6114 44.1931 19.596 44.2489 19.539C44.7239 19.0485 45.2915 18.6828 45.8567 18.3135C46.3602 17.9845 46.8685 17.6639 47.2853 17.2257C47.4492 17.0535 47.5917 16.8659 47.7342 16.6724C47.7342 17.0725 47.6273 17.4395 47.4361 17.7839C47.1333 18.3301 46.6678 18.7291 46.1975 19.121C45.776 19.4737 45.3497 19.8157 44.9839 20.2289C44.8865 20.337 44.94 20.3892 45.0053 20.4724C45.0765 20.5602 45.1229 20.5828 45.2274 20.5068C45.6525 20.1945 46.131 19.9784 46.6132 19.7741C47.5192 19.3882 48.4348 19.0248 49.1556 18.2339C49.1372 18.6094 49.0069 18.9709 48.7815 19.2718C48.5084 19.6399 48.1391 19.894 47.7567 20.128C47.125 20.5139 46.4659 20.8535 45.8876 21.3155C45.7534 21.4212 45.7487 21.4995 45.8496 21.623C45.8924 21.6741 45.9173 21.7038 45.9874 21.6717C46.7581 21.3095 47.5917 21.1552 48.4063 20.939C48.9537 20.793 49.4893 20.6196 49.956 20.28C50.0534 20.2087 50.1436 20.128 50.241 20.0484C50.2825 20.3002 50.127 20.6671 49.8812 20.9129C49.5404 21.262 49.1093 21.4675 48.6664 21.6527C47.9645 21.9496 47.2425 22.1942 46.5633 22.5434C46.3887 22.6324 46.3674 22.7369 46.4909 22.9008C46.517 22.9376 46.5431 22.9376 46.5764 22.9293C47.6297 22.6716 48.7139 22.6669 49.7767 22.4769C50.2394 22.403 50.6829 22.2383 51.0817 21.9924C51.0378 22.345 50.8407 22.5647 50.5889 22.744C50.2149 23.0148 49.7767 23.1478 49.3385 23.2665C48.5737 23.4708 47.7971 23.618 47.0419 23.8603C46.8566 23.9209 46.8055 24.0859 46.9148 24.245C46.9397 24.2842 46.9742 24.2771 47.0062 24.2759C47.8743 24.232 48.74 24.3389 49.6057 24.3792C50.273 24.4101 50.9333 24.384 51.5757 24.1322C51.476 24.3852 51.1601 24.6559 50.824 24.802C50.3158 25.0193 49.779 25.0692 49.2376 25.1167C48.5821 25.1725 47.9242 25.1903 47.2722 25.2912C47.1974 25.3043 47.0704 25.2734 47.0989 25.4195C47.119 25.5323 47.0561 25.689 47.2758 25.7057C47.9218 25.7508 48.55 25.9052 49.1853 26.031C50.0367 26.1985 50.8858 26.373 51.7835 26.2044C51.647 26.5144 51.4 26.6438 51.1197 26.7222C50.539 26.8801 49.95 26.8089 49.3622 26.7732C48.6711 26.7329 47.9788 26.6616 47.2865 26.6889C47.1998 26.6937 47.1 26.6735 47.1167 26.8136C47.1309 26.9264 47.0145 27.0677 47.2461 27.1176C47.9527 27.2732 48.62 27.5558 49.2969 27.8028C50.0165 28.0652 50.7469 28.2766 51.5235 28.2588C51.5401 28.2588 51.5544 28.2671 51.5924 28.2802C51.3551 28.5115 51.045 28.6534 50.7148 28.6815C50.0059 28.7694 49.3254 28.602 48.6414 28.4583C48.1367 28.349 47.6285 28.2398 47.1226 28.1365C47.0502 28.1234 46.9421 28.0581 46.9112 28.203C46.8899 28.317 46.8257 28.4167 47.005 28.4939C47.6926 28.7848 48.3255 29.1791 48.9775 29.5437C49.4477 29.8085 49.9216 30.0697 50.4405 30.2348C50.6519 30.3025 50.868 30.3393 51.1102 30.3713C50.9517 30.5072 50.7543 30.5895 50.5462 30.6065C50.0498 30.6706 49.5879 30.5352 49.1295 30.3749C48.4158 30.1279 47.7294 29.8037 47.0074 29.5781C46.8851 29.5389 46.758 29.5152 46.6381 29.4712C46.5467 29.4368 46.4956 29.4712 46.4921 29.5532C46.4873 29.6494 46.3068 29.7479 46.4576 29.8346C47.4587 30.4153 48.3125 31.2026 49.2577 31.8617C49.57 32.0802 49.899 32.2642 50.3051 32.3283C50.0047 32.529 49.7019 32.5065 49.3955 32.4376C48.7483 32.2927 48.1961 31.927 47.6368 31.604C47.1202 31.3118 46.6227 30.9877 46.0824 30.7383C45.979 30.692 45.9125 30.6777 45.8662 30.7989C45.8306 30.8962 45.6917 30.9615 45.8603 31.0933C46.5669 31.6372 47.1202 32.3355 47.7199 32.985C48.0702 33.3603 48.4146 33.745 48.8837 33.9766C48.9775 34.0241 49.0749 34.0597 49.1699 34.1037C48.9989 34.2355 48.5156 34.1713 48.2056 34.0455C47.8411 33.8883 47.5008 33.68 47.195 33.4268C46.6096 32.9743 46.074 32.4613 45.4744 32.0255C45.4387 31.9994 45.4007 31.9685 45.3615 31.9424C45.1573 31.8047 45.048 31.8379 44.9388 32.0659C44.9103 32.1229 44.9459 32.1395 44.9709 32.1657C45.5705 32.7653 45.9897 33.4957 46.4457 34.1987C46.7545 34.6748 47.0917 35.1285 47.5501 35.4728C47.6487 35.5441 47.7508 35.6082 47.8719 35.6925C47.5038 35.7804 47.1962 35.6854 46.9017 35.5203C46.568 35.3327 46.2949 35.0691 46.0337 34.7924C45.5052 34.2283 45.0362 33.6073 44.4828 33.0634C44.4537 33.0351 44.4252 33.0062 44.3973 32.9767C44.2109 32.8045 44.1254 32.8164 43.9722 33.0207C43.9354 33.0646 43.9544 33.0919 43.9793 33.124C44.5837 33.9493 44.9281 34.91 45.3699 35.8184C45.5991 36.291 45.8365 36.7577 46.2545 37.108C46.0788 37.1543 45.8389 37.0973 45.6287 36.9738C45.3069 36.7922 45.0623 36.5273 44.8438 36.2364C44.5339 35.8279 44.2762 35.385 44.0066 34.9492C43.7643 34.5511 43.5028 34.1651 43.2229 33.7925C43.1077 33.6429 43.0352 33.7225 42.9248 33.7795C42.7882 33.8472 42.8345 33.9196 42.8809 34.0134C43.1944 34.6558 43.3357 35.3541 43.515 36.0405C43.6563 36.5737 43.7845 37.114 44.0375 37.6103C44.1396 37.8134 44.2667 37.9998 44.4092 38.1851C44.1913 38.1561 43.987 38.0626 43.8225 37.9167C43.4497 37.6044 43.2217 37.1947 43.0222 36.7625C42.7229 36.1129 42.4902 35.4337 42.1458 34.8043C42.0876 34.6962 42.014 34.5988 41.9605 34.4872C41.9 34.3637 41.837 34.3518 41.7052 34.4065C41.5639 34.467 41.5295 34.5145 41.5817 34.6665C41.837 35.379 41.8929 36.1307 41.9796 36.8765C42.0532 37.507 42.0971 38.1412 42.356 38.7337C42.3987 38.8358 42.451 38.9332 42.5115 39.0579C42.2883 38.9793 42.0896 38.8434 41.9356 38.6637C41.6043 38.311 41.4416 37.868 41.3157 37.4108C41.1186 36.7173 40.9951 36.0001 40.754 35.3208C40.7018 35.1772 40.6353 35.0418 40.583 34.9005C40.5272 34.7508 40.4263 34.8506 40.3491 34.8625C40.2802 34.8732 40.1722 34.8577 40.19 34.9919C40.3135 35.8505 40.2149 36.7126 40.2019 37.5735C40.1935 38.2421 40.2268 38.9012 40.4821 39.5412C40.2066 39.4427 39.9572 39.166 39.8052 38.8168C39.6022 38.3454 39.5452 37.8431 39.4929 37.3372C39.424 36.6615 39.4086 35.9763 39.2851 35.3042C39.2388 35.0477 39.2424 35.0525 38.9942 35.0774C38.9122 35.0833 38.8849 35.1095 38.8849 35.1926C38.8897 35.9633 38.765 36.7245 38.6617 37.4857C38.5595 38.2219 38.4812 38.9617 38.6534 39.7502C38.2661 39.312 38.022 38.7659 37.9539 38.1851C37.8827 37.6139 37.9717 37.0463 38.0097 36.4775C38.0359 36.0642 38.0632 35.6522 38.0002 35.2401C37.9836 35.138 37.9492 35.1059 37.8482 35.1012C37.511 35.0786 37.5145 35.0762 37.4575 35.4135C37.3412 36.126 37.0799 36.7922 36.8555 37.4726C36.6714 38.0319 36.498 38.5924 36.4921 39.1909C36.4909 39.3227 36.504 39.4581 36.5111 39.622C36.3322 39.4206 36.2054 39.1784 36.1418 38.9166C36.0017 38.3929 36.0634 37.8657 36.1537 37.342C36.2677 36.6592 36.4494 35.987 36.4885 35.2912L36.4945 35.1867C36.4992 34.9266 36.4624 34.8874 36.2071 34.8708C36.1513 34.8672 36.1204 34.8803 36.105 34.9373C35.8627 35.9953 35.288 36.9121 34.8545 37.8858C34.6729 38.2991 34.5114 38.7112 34.5066 39.1743C34.3059 38.8572 34.237 38.5057 34.237 38.1388C34.237 37.5082 34.4579 36.9263 34.6527 36.3433C34.8308 35.8125 35.035 35.2947 35.1395 34.7414C35.1465 34.7045 35.145 34.6665 35.135 34.6304C35.125 34.5942 35.1069 34.5608 35.082 34.5327C35.0572 34.5046 35.0262 34.4826 34.9915 34.4683C34.9568 34.4541 34.9193 34.4479 34.8819 34.4504C34.8367 34.4528 34.8213 34.4825 34.8071 34.5133C34.4271 35.3957 33.7799 36.107 33.2597 36.9002C32.9522 37.3705 32.6885 37.8585 32.5496 38.444C32.4273 38.178 32.4202 37.9215 32.4237 37.6662C32.4285 37.1425 32.6019 36.6627 32.8263 36.1972C33.1255 35.5773 33.4961 34.9978 33.7727 34.3661C33.7822 34.3412 33.7965 34.3138 33.806 34.2853C33.9437 33.916 33.9604 34.03 33.6314 33.821C33.578 33.7854 33.5424 33.7925 33.5044 33.846C32.9344 34.6475 32.1803 35.284 31.5497 36.0345C31.1997 36.4431 30.9178 36.9054 30.7149 37.4037C30.6223 37.2185 30.6021 36.8515 30.6567 36.5547C30.7411 36.0903 30.9584 35.6878 31.2315 35.3161C31.5842 34.8447 31.9535 34.3851 32.3109 33.9184C32.457 33.7272 32.5805 33.523 32.6969 33.3163C32.8073 33.1216 32.5924 33.124 32.5294 33.0361C32.4641 32.9435 32.4237 33.0408 32.3881 33.08C31.9606 33.5622 31.4405 33.9386 30.9227 34.315C30.4169 34.682 29.9015 35.0323 29.4764 35.4954C29.3124 35.6829 29.168 35.8866 29.0453 36.1034C28.98 35.6807 29.075 35.3256 29.2496 34.9848C29.4312 34.6273 29.6889 34.3281 29.9692 34.0455C30.4822 33.5218 31.0581 33.0598 31.5379 32.4993L31.583 32.4471C31.716 32.2892 31.678 32.1051 31.4963 32.0042C31.4512 31.9804 31.431 32.0089 31.4084 32.0291C30.76 32.5777 29.9858 32.9114 29.2424 33.2985C28.7461 33.5562 28.2592 33.8317 27.8816 34.2616C27.8032 34.3495 27.7307 34.448 27.6381 34.5656C27.6055 34.329 27.6427 34.0879 27.745 33.8721C27.9528 33.3947 28.3233 33.0599 28.7377 32.7701C29.2389 32.4222 29.7507 32.0837 30.2518 31.737C30.4537 31.5992 30.6437 31.4425 30.8087 31.2608C30.9346 31.1195 30.7458 31.0542 30.7173 30.9508C30.6947 30.8772 30.6437 30.8808 30.5795 30.9176C29.9169 31.2976 29.1807 31.49 28.4646 31.7299C27.8697 31.9294 27.2771 32.1277 26.7629 32.516C26.6608 32.5943 26.5682 32.681 26.4459 32.7832C26.4571 32.5938 26.5141 32.41 26.6121 32.2476C26.8306 31.8676 27.1607 31.6004 27.5277 31.3795C28.0359 31.0696 28.5798 30.8285 29.1165 30.5732C29.4407 30.4165 29.7566 30.2478 30.0677 30.0602C30.2779 29.9355 30.0891 29.8263 30.0642 29.7123C30.038 29.5734 29.9431 29.647 29.8766 29.6707C29.2032 29.913 28.4967 29.9949 27.7972 30.1196C27.1429 30.2372 26.4862 30.3393 25.8866 30.6457C25.7809 30.7003 25.6764 30.7656 25.5315 30.8452C25.6514 30.5732 25.8046 30.3797 25.9934 30.2087C26.3996 29.8417 26.8864 29.6256 27.3959 29.4522C28.1 29.2088 28.8304 29.0485 29.531 28.7967C29.6759 28.7445 29.7139 28.6946 29.6747 28.5367C29.626 28.3597 29.5726 28.3051 29.3742 28.3277C28.619 28.4215 27.8625 28.3918 27.1037 28.4096C26.5979 28.4262 26.0908 28.4417 25.5944 28.5723C25.4211 28.621 25.2524 28.6792 25.0862 28.7575C25.0529 28.7647 25.0399 28.7504 25.0482 28.716C25.5054 28.1175 26.1537 27.8705 26.8627 27.7363C27.4956 27.614 28.1452 27.5926 28.7852 27.4952C28.961 27.4679 29.1379 27.424 29.3172 27.3967C29.4051 27.3836 29.4277 27.3444 29.4217 27.2577C29.4027 26.9407 29.4051 26.943 29.0987 26.93C28.4822 26.8947 27.8681 26.8249 27.2593 26.721C26.4316 26.5904 25.6016 26.4479 24.7192 26.677C24.9674 26.3624 25.2572 26.1985 25.5873 26.0964C26.1834 25.9123 26.7974 25.9527 27.4066 25.974C28.0074 25.9942 28.6059 26.0156 29.2068 25.961C29.449 25.9396 29.3457 25.7674 29.3802 25.6546C29.4217 25.518 29.3172 25.518 29.2329 25.5074C28.4468 25.3874 27.6987 25.1214 26.9434 24.8875C26.2749 24.682 25.598 24.5134 24.8819 24.574C24.9924 24.4529 25.2738 24.3246 25.5849 24.2308C26.1751 24.0574 26.7689 24.0919 27.3662 24.1833C28.0241 24.2854 28.67 24.4457 29.335 24.479C29.3736 24.4824 29.4124 24.4767 29.4483 24.4622C29.4842 24.4478 29.5161 24.425 29.5415 24.3958C29.5669 24.3666 29.585 24.3318 29.5943 24.2942C29.6036 24.2566 29.6039 24.2174 29.5951 24.1797C29.5844 24.1215 29.5393 24.1263 29.5037 24.118C28.8897 23.9719 28.3387 23.6869 27.8008 23.3699C27.0681 22.9352 26.2915 22.649 25.4389 22.5814C25.3878 22.5766 25.3391 22.5659 25.2572 22.554C25.7846 22.3198 26.3657 22.2328 26.9387 22.3023C27.5526 22.3747 28.1179 22.6146 28.6902 22.8248C29.0382 22.9542 29.3921 23.0718 29.7578 23.143C29.8611 23.1632 29.9252 23.1537 29.9514 23.0409C29.9667 22.9851 29.9887 22.9313 30.0167 22.8806C30.0452 22.8153 30.0369 22.7797 29.9644 22.7488C29.1771 22.4294 28.5252 21.8974 27.8542 21.3962C27.3317 21.0055 26.7736 20.6873 26.1241 20.5614C26.1015 20.5579 26.0765 20.5531 26.073 20.5163C26.9874 20.3797 27.8626 20.4557 28.6772 20.939C29.208 21.2537 29.7234 21.5957 30.3147 21.7905C30.3991 21.819 30.4905 21.8938 30.5712 21.7584C30.6935 21.5506 30.6983 21.5554 30.4917 21.4271C29.9929 21.1121 29.5492 20.7174 29.1783 20.2586C28.6202 19.5877 27.9611 19.0592 27.1394 18.7457C27.1192 18.7398 27.1049 18.722 27.0657 18.6935C28.0205 18.6638 28.8375 18.9405 29.5559 19.533C30.0369 19.9273 30.5047 20.3429 31.0735 20.6184C31.1424 20.6529 31.2196 20.7395 31.2897 20.6873C31.3799 20.6196 31.4476 20.5163 31.5141 20.4237C31.5486 20.3774 31.4951 20.3489 31.4666 20.3263C30.8729 19.8145 30.4359 19.1732 29.9882 18.5403C29.5761 17.9572 29.0857 17.4597 28.4599 17.1034C28.4409 17.0927 28.4254 17.0773 28.4041 17.0619C28.5964 17.0227 28.8945 17.0678 29.1831 17.164C29.6557 17.3243 30.0523 17.6045 30.4086 17.9489C30.8788 18.4014 31.2909 18.9132 31.7813 19.3419C31.8941 19.4416 32.0164 19.5354 32.1352 19.628C32.305 19.7587 32.3418 19.5485 32.4392 19.501C32.5484 19.4487 32.4629 19.3894 32.4225 19.3407C32.0045 18.8455 31.7219 18.2719 31.4512 17.6912C31.1507 17.0429 30.8099 16.423 30.2886 15.9171C30.1865 15.815 30.0772 15.72 29.9621 15.6095C30.1069 15.5894 30.2245 15.6511 30.3432 15.6939C30.937 15.9135 31.3977 16.3007 31.7706 16.8018C32.153 17.3112 32.4748 17.8599 32.8916 18.3396C33.0104 18.4762 33.1362 18.6068 33.2621 18.735C33.4177 18.893 33.4913 18.6899 33.6005 18.6484C33.7134 18.6068 33.6255 18.5355 33.5958 18.4833C33.2075 17.8171 33.0104 17.0785 32.7788 16.3529C32.5603 15.6749 32.2504 15.0502 31.7599 14.523C31.7587 14.4636 31.7908 14.466 31.8347 14.485" fill="#FEFE00"/>
<path fill-rule="evenodd" clip-rule="evenodd" d="M45.991 26.2543C45.9882 28.3035 45.1718 30.2678 43.7213 31.7154C42.2708 33.163 40.3049 33.9755 38.2557 33.9742C37.241 33.9738 36.2364 33.7733 35.2993 33.3843C34.3621 32.9954 33.5109 32.4255 32.7941 31.7073C32.0773 30.9891 31.5092 30.1367 31.1221 29.1988C30.735 28.2609 30.5365 27.2559 30.5381 26.2412C30.5412 24.1947 31.356 22.2329 32.8037 20.7863C34.2514 19.3397 36.2138 18.5264 38.2604 18.5249C42.5164 18.5177 45.9946 21.9983 45.991 26.2543Z" fill="#EC1C24"/>
<path fill-rule="evenodd" clip-rule="evenodd" d="M43.2855 21.9424C42.8924 21.9436 42.5279 21.9377 42.1633 21.9698C40.8473 22.0726 39.573 22.4791 38.4405 23.1573C38.3134 23.2356 38.2256 23.2356 38.1021 23.1418C37.386 22.611 36.5654 22.3284 35.7033 22.1514C35.1268 22.0348 34.5419 21.9649 33.9541 21.9424C33.7463 21.9329 33.5385 21.9401 33.2998 21.9401C35.5157 19.1554 40.4367 18.6329 43.2867 21.9424" fill="#FEFE00"/>
<path fill-rule="evenodd" clip-rule="evenodd" d="M36.2715 24.5336C35.3944 25.3186 34.6757 26.2642 34.1542 27.3195C33.6305 28.3775 33.336 29.4914 33.3764 30.711C33.1512 30.4957 32.9538 30.2531 32.7885 29.989C31.816 28.5153 31.4657 26.905 31.7447 25.1606C31.8148 24.7272 31.9312 24.3092 32.0879 23.8995C32.1152 23.8247 32.139 23.7689 32.2411 23.7689C33.621 23.7689 34.9712 23.9209 36.2442 24.5039C36.2477 24.5051 36.2489 24.5122 36.2715 24.5336Z" fill="#FEFE00"/>
<path fill-rule="evenodd" clip-rule="evenodd" d="M43.2862 30.5626C43.2387 28.0486 42.1474 26.0679 40.188 24.5016C40.3875 24.4256 40.5644 24.3496 40.7473 24.2866C41.8113 23.9149 42.9002 23.7048 44.0331 23.7285C44.4119 23.7368 44.4167 23.7321 44.5426 24.0907C44.9083 25.1333 44.9986 26.2021 44.8299 27.2934C44.651 28.4504 44.1674 29.539 43.4287 30.4474C43.3954 30.4889 43.3705 30.5447 43.2862 30.5626Z" fill="#FEFE00"/>
<path fill-rule="evenodd" clip-rule="evenodd" d="M38.2974 26.2413C38.6513 26.7353 38.9066 27.2578 39.1013 27.8052C39.5763 29.1447 39.7272 30.521 39.5597 31.933C39.53 32.1859 39.4683 32.4353 39.4279 32.6894C39.4148 32.782 39.3673 32.807 39.2807 32.8212C38.6893 32.9162 38.0979 32.9067 37.5042 32.8556C37.3177 32.839 37.2477 32.7701 37.2085 32.5801C36.9199 31.1207 36.9555 29.6767 37.3652 28.247C37.5629 27.5315 37.8779 26.8537 38.2974 26.2413Z" fill="#FEFE00"/>
<path fill-rule="evenodd" clip-rule="evenodd" d="M39.5562 25.0977C40.0656 25.4717 40.4895 25.9254 40.8624 26.4265C41.6385 27.4575 42.1583 28.6582 42.3788 29.9296C42.462 30.3892 42.4857 30.8523 42.4715 31.3214C42.4679 31.3677 42.4715 31.4152 42.4263 31.4449C42.2185 31.5921 42.0285 31.7667 41.7637 31.9009C41.9692 29.3121 40.9705 27.139 39.5562 25.0977Z" fill="#FEFE00"/>
<path fill-rule="evenodd" clip-rule="evenodd" d="M34.8369 31.9163C34.6006 31.8094 34.4201 31.6491 34.2277 31.5125C34.1778 31.4769 34.1754 31.427 34.1754 31.3724C34.1256 29.134 34.7918 27.1686 36.4032 25.5667C36.5754 25.3945 36.7606 25.2401 37.0195 25.0881C35.4865 27.1354 34.6944 29.3667 34.8369 31.9163Z" fill="#FEFE00"/>
<path fill-rule="evenodd" clip-rule="evenodd" d="M37.7367 25.7175C36.3936 27.8455 36.067 30.1552 36.3378 32.6181C36.1475 32.5458 35.9567 32.4749 35.7654 32.4055C35.6882 32.377 35.7132 32.3093 35.7096 32.2583C35.6396 31.3451 35.6907 30.4268 35.8616 29.527C36.0457 28.5188 36.3473 27.551 36.8769 26.6663C37.0559 26.3587 37.28 26.0797 37.5419 25.8387C37.6001 25.79 37.6524 25.7389 37.7367 25.7175Z" fill="#FEFE00"/>
<path fill-rule="evenodd" clip-rule="evenodd" d="M40.3599 32.5623C40.7554 30.0899 40.1913 27.8503 38.9219 25.7615C38.9777 25.733 39.0002 25.8007 39.0299 25.8304C39.6522 26.4657 40.0916 27.2138 40.4027 28.0367C40.9157 29.3846 41.0499 30.7811 40.9216 32.2084C40.9109 32.3212 40.8765 32.3901 40.7613 32.4234C40.6343 32.4578 40.5096 32.5089 40.3599 32.5623Z" fill="#FEFE00"/>
</svg>
