<svg width="76" height="53" viewBox="0 0 76 53" fill="none" xmlns="http://www.w3.org/2000/svg"><path d="M76 39.25c0 7.214-4.005 13.063-11.875 13.063h-52.25C4.005 52.313 0 46.463 0 39.25V13.125C0 5.911 4.005.062 11.875.062h52.25C71.995.063 76 5.912 76 13.126V39.25z" fill="#1B75BB"/><path fill-rule="evenodd" clip-rule="evenodd" d="M13.746 15.412c-.654-1.356-1.304-2.711-1.96-4.068-.114-.232-.203-.47-.187-.732.021-.34.204-.565.519-.679.325-.12.6-.017.818.235.22.263.223.56.076.853-.125.244-.339.294-.59.235-.167-.042-.243-.155-.24-.32.002-.109.045-.194.167-.203.195-.01.18.157.222.276.005.01.043.005.066.01.1-.053.07-.199.131-.242.362-.262-.136-.382-.091-.589.002-.016-.099-.062-.11-.005-.036.17-.167.103-.26.124-.33.072-.495.294-.466.635.038.437.273.652.83.757.038.119-.219.202-.033.334.159.118-.068.273.038.389.075.085.31-.222.278.123-.053.579.19.909.817 1.066-.346-.414-.4-.86-.36-1.332.025-.343.107-.67.196-1.002.152-.566.168-1.109-.335-1.533.458-.358.458-.358-.03-.648.488-.465.571-.826.37-1.62-.075-.308-.163-.61-.2-.926-.056-.478.115-.9.353-1.333-.599.118-.846.414-.858.959-.002.076.076.24-.089.209-.22-.047-.15.067-.132.173.013.068.099.18.054.189-.45.089.014.27-.054.404-.357-.031-.618.136-.804.439-.022.18-.086.355-.007.537.081.192.194.336.42.349.116.005.288-.092.27.153 0 .01.031.038.043.036.209-.05.106-.367.355-.411.065-.01-.03-.127-.09-.137-.207-.035-.033-.322-.248-.348-.073.029-.04.101-.057.155-.043.143-.135.209-.272.123-.132-.076-.123-.197-.053-.317.14-.24.557-.24.757.003.173.213.186.64.024.857-.195.258-.706.374-1.042.228-.295-.13-.406-.379-.357-.684.027-.19.064-.384.186-.545.177-.449.358-.896.532-1.347.107-.272.15-.55-.097-.77-.255-.227-.552-.238-.846-.088-.132.067-.232.074-.368.004-.292-.154-.59-.147-.847.076-.27.234-.21.524-.103.806.162.419.332.83.5 1.244.094.103.113.238.154.362.1.32.132.627-.163.866-.23.185-.725.178-1.004-.002-.351-.228-.39-.825-.069-1.081a.523.523 0 01.341-.106c.182.005.333.075.372.278.025.125-.02.23-.151.242-.235.025-.204-.186-.242-.336h-.005c-.197.121-.091.465-.394.444.028.125.145.12.187.175.099.125.045.279.36.137.586-.266.72-.348.536-.975a.839.839 0 00-.757-.372c-.089-.132.374-.27-.033-.374.182-.288-.211-.39-.197-.639.025-.468-.297-.806-.87-.914.455.662.441 1.344.227 2.042-.039.13-.08.258-.102.39-.095.543-.108 1.07.42 1.439-.487.29-.487.29-.048.658-.429.463-.507.756-.357 1.401.19.818.477 1.638-.113 2.465.534-.165.766-.438.82-.817.017-.13-.243-.515.237-.367.004 0 .039-.048.034-.058-.164-.223.137-.456-.025-.677a.846.846 0 01.079-.021c.472-.076.716-.3.751-.7.038-.402-.043-.494-.608-.673-.022-.007-.054-.007-.067-.025-.04-.06-.11-.209-.151-.072-.051.174-.28.38-.233.413.166.098.13.331.32.42.058-.139.05-.332.262-.303.127.02.141.125.139.223-.003.186-.108.282-.293.31-.245.035-.436-.034-.54-.268-.134-.301-.127-.595.104-.851.224-.248.503-.339.823-.21.312.124.489.354.489.701 0 .232-.058.452-.162.666-.487.991-.966 1.987-1.439 2.986-.243.517-.533 1.012-.714 1.556-.298.913.02 1.56.883 1.833l.086-.005c.167.078.339.02.51.037.41.048.767-.055 1.041-.38.13-.15.228-.117.355.011.253.259.54.444.93.34a.894.894 0 00.68-.003c.714-.165 1.03-.572 1.02-1.29.003-.35-.112-.667-.26-.978zm-.896 1.734c-.317.082-.673-.055-.825-.32-.099-.17-.126-.35.018-.507.117-.13.27-.098.4-.02.154.094.094.263.119.416.155-.014.268-.124.266-.241-.003-.284.415-.23.374-.465-.031-.174-.37-.158-.358-.439.005-.113-.117-.202-.273-.233.026.773-.711.287-.943.646a2.768 2.768 0 01-.098-.043c0-.385-.016-.771.002-1.157.012-.26.25-.377.583-.313.066.013.132.108.191.026.059-.075-.007-.155-.045-.232-.148-.288-.428-.33-.78-.388.213-.18.223-.386.182-.601a1.174 1.174 0 00-.288-.54c-.092-.108-.174-.142-.301-.028a.9.9 0 00-.155 1.176c-.413.042-.729.164-.838.598.119-.008.223-.018.327-.02.383-.005.477.087.477.465-.002.339 0 .68 0 1.062a1.364 1.364 0 00-.626-.184c-.293-.01-.477-.11-.36-.473-.224.042-.313.152-.351.319a.317.317 0 00-.007.107c.016.178-.684.124-.16.437.229.136.144.485.45.516.06-.04.02-.106.026-.16.026-.248.181-.35.403-.294.221.056.25.243.195.442-.087.303-.425.507-.78.467-.372-.042-.672-.322-.707-.675a1.28 1.28 0 01.132-.672c.691-1.47 1.385-2.942 2.076-4.416.132.05.145.173.188.267.63 1.326 1.255 2.656 1.884 3.984.115.245.21.494.204.767-.004.358-.236.634-.602.726z" fill="#FDC40C"/><path fill-rule="evenodd" clip-rule="evenodd" d="M12.988 34.331c-.225.003-.451.003-.675.003-.025-.015-.035-.026-.025-.04.007-.015.014-.022.025-.022h.675a.1.1 0 000 .06z" fill="#CDC030"/><path fill-rule="evenodd" clip-rule="evenodd" d="M11.783 27.94c-.115-.235-.2-.47-.184-.734.019-.343.213-.568.525-.674.319-.108.603-.017.817.248.216.266.216.56.063.851-.11.207-.294.288-.522.245-.17-.033-.292-.122-.3-.315-.004-.105.026-.204.142-.223.227-.041.2.177.265.304.211-.085.126-.39.388-.428-.237-.079-.19-.337-.343-.456-.13.17-.348.125-.514.216-.25.134-.308.36-.27.62.059.419.274.6.828.714-.155.233.153.475-.117.772.345-.139.43-.11.376.197-.078.437.328.863.764.865-.475-.694-.315-1.425-.124-2.148.164-.615.226-1.188-.312-1.664.464-.31.464-.312 0-.658.52-.44.484-.991.331-1.575-.2-.75-.379-1.506.11-2.246-.491.083-.857.472-.767.883.075.348-.091.297-.36.26.35.239-.12.504.123.728-.043.01-.068.018-.09.02-.486.066-.738.294-.769.722-.03.424.19.631.606.651a.1.1 0 01.064.02c.053.032.043.221.154.09.11-.129.174-.301.255-.455-.217-.038-.126-.336-.353-.402-.026.137-.018.317-.214.315-.119 0-.168-.088-.173-.196-.007-.188.095-.293.27-.336.226-.058.417.005.534.207.17.285.179.58-.025.855-.202.27-.478.378-.807.282-.317-.096-.52-.31-.554-.653-.026-.273.062-.522.182-.767.63-1.302 1.255-2.607 1.884-3.908.11-.23.226-.459.285-.711.213-.873-.12-1.57-.926-1.721-.014-.002-.024-.036-.036-.054-.189-.162-.426-.066-.637-.115-.337.132-.71.195-.954.493-.152.182-.26.144-.404-.018-.256-.282-.595-.404-.973-.4-.182.007-.361-.087-.548-.03a.185.185 0 00-.087.07c-.032.107-.139.085-.211.117-.538.233-.8.646-.767 1.236.019.374.144.711.305 1.041.646 1.335 1.284 2.675 1.932 4.007.115.238.182.477.171.736a.742.742 0 01-.67.702c-.343.038-.695-.177-.79-.512-.078-.272-.052-.538.157-.749.154-.153.346-.162.543-.08.149.06.189.18.18.325-.008.086-.043.17-.149.179-.166.015-.19-.118-.23-.232-.01-.036-.031-.063-.104-.036-.082.118-.086.324-.247.368.137.545.475.42.809.255.26-.13.289-.374.258-.632-.048-.398-.27-.577-.839-.696.197-.216-.131-.462.035-.679.007-.014-.018-.068-.071-.045-.338.137-.214-.115-.21-.256.011-.493-.357-.889-.787-.844.238.28.332.61.33.974-.003.47-.12.917-.231 1.363-.14.55-.113 1.062.36 1.459-.12.122-.333.146-.338.327-.004.19.243.2.334.346-.448.355-.48.828-.385 1.33.042.216.121.422.162.638.117.634.23 1.271-.25 1.837a.838.838 0 00.807-.752c.02-.153-.19-.482.244-.397.009.003.037-.047.035-.052-.178-.22.19-.451-.049-.662a.67.67 0 01.096-.023c.475-.068.72-.289.76-.691.037-.402-.048-.5-.604-.682-.022-.007-.05-.01-.064-.025-.049-.045-.092-.22-.152-.078-.068.164-.212.28-.243.458.214.029.128.298.295.37.107-.095.074-.352.309-.282.128.038.13.16.115.273-.036.216-.21.26-.381.27a.424.424 0 01-.404-.207c-.169-.286-.19-.58.007-.86.192-.276.47-.391.798-.3.32.088.534.29.562.638.024.273-.042.526-.164.773a613.714 613.714 0 00-1.87 3.877c-.11.227-.224.46-.295.703-.262.888.08 1.544.903 1.762.026.03.058.057.093.076.175.045.355.02.532.025.505.005.893-.223 1.2-.633.31.422.693.641 1.187.633.2-.019.413.056.588-.102.648-.116 1.006-.533 1.023-1.174.009-.389-.104-.744-.27-1.085-.658-1.358-1.307-2.717-1.963-4.073h.005zm-2.708-8.41c-.326-.73.073-1.343.777-1.271a.67.67 0 01.557.362c.096.173.119.37-.058.494-.167.115-.35.09-.465-.112-.045-.098.025-.216-.052-.31-.316.094-.262.545-.603.621-.068.014-.045.121.014.142.228.078.289.27.372.466.053.127.2.175.233-.028.035-.223.179-.27.362-.28.217-.016.43-.043.666-.198 0 .366-.005.682 0 .997.007.464-.058.535-.51.545-.093.002-.186.01-.29.014.134.392.42.533.826.545-.322.449-.14.817.144 1.164.085.108.17.146.3.026.333-.31.411-.756.158-1.184.392-.025.717-.141.82-.59-.112.01-.204.022-.296.025-.39.014-.507-.101-.507-.482 0-.327 0-.656.047-1.014.272.326.996-.163.987.61.15-.012.261-.099.285-.235.028-.174.106-.272.265-.333.062-.025.155-.13.088-.157-.306-.125-.338-.504-.626-.679-.012.074-.025.106-.023.137.003.154-.007.298-.19.345-.124.034-.245.044-.335-.066-.115-.137-.105-.3-.028-.448.164-.3.432-.424.767-.373.335.05.593.214.667.575.05.229.023.468-.078.68-.689 1.473-1.382 2.947-2.077 4.422-.012.028-.05.047-.094.085-.706-1.502-1.423-2.991-2.103-4.496zm1.386 6.486c.29-.153.557-.284.747-.575.204.283.443.437.761.565-.286.126-.52.247-.68.463-.082.114-.136.033-.19-.032-.156-.196-.37-.308-.638-.42zm2.375 7.728c-.34.067-.634-.02-.823-.33-.103-.167-.12-.352.026-.503.108-.11.254-.083.377-.025.179.087.105.276.143.425.162-.017.228-.13.276-.257.026-.076.025-.174.117-.212.344-.139.348-.275-.004-.406-.116-.04-.063-.144-.086-.218-.049-.149-.141-.246-.324-.298.076.388-.13.492-.447.492-.173 0-.334.046-.57.203 0-.456-.008-.855.003-1.248.005-.213.164-.287.345-.307.142-.014.285-.003.447-.003-.084-.43-.418-.535-.8-.566.232-.43.178-.8-.137-1.15-.13-.147-.223-.135-.353.004-.297.327-.357.711-.148 1.146-.317.025-.603.105-.752.42-.07.149-.065.163.099.156.63-.021.662.013.646.644-.004.255-.01.511-.018.767 0 .022-.012.046-.025.093-.189-.129-.403-.157-.621-.173-.182-.014-.322-.063-.36-.283-.035-.209-.185-.15-.235-.024-.078.2-.146.383-.37.466-.063.022-.079.126-.015.142.348.07.285.527.604.618.076-.094.007-.211.052-.31.115-.2.298-.228.463-.11.176.122.152.317.063.494-.132.27-.478.418-.814.355a.76.76 0 01-.636-.698c-.01-.22.036-.44.136-.636a1916.2 1916.2 0 012.079-4.422c.129.073.15.202.197.308.625 1.317 1.249 2.635 1.872 3.955.116.245.207.494.202.767a.732.732 0 01-.609.724z" fill="#FDC40C"/><path fill-rule="evenodd" clip-rule="evenodd" d="M10.078 17.691a.142.142 0 010 .045c-.204-.002-.415.068-.606-.06l.606.015z" fill="#D2C02C"/><path fill-rule="evenodd" clip-rule="evenodd" d="M10.078 34.28a.142.142 0 010 .044c-.204-.002-.415.07-.606-.06.202.007.406.012.606.015z" fill="#D3C02B"/><path fill-rule="evenodd" clip-rule="evenodd" d="M9.839 18.693c.15.078.019.209.052.31-.099-.09-.048-.204-.052-.31zm.051 14.319c0 .106 0 .209-.002.312 0 .007-.016.017-.023.017-.01-.003-.019-.012-.027-.02.005-.105-.049-.22.052-.309z" fill="#83BA67"/><path fill-rule="evenodd" clip-rule="evenodd" d="M37.458 23.694c.007-3.332 2.693-5.997 6.049-5.997 3.29.006 5.973 2.697 5.973 5.997a6.02 6.02 0 01-6.012 6.004c-3.307-.003-6.01-2.704-6.007-6.01m.383 12.166c-.812-.105-1.573-.384-2.322-.698-.52-.226-1.048-.438-1.577-.664.14-.163.371-.107.544-.27-.448-.145-.933-.111-1.317-.41.185-.178.463-.112.642-.29-.42-.163-.89-.065-1.298-.361.339-.138.686-.079.992-.283-.576-.27-1.3-.069-1.794-.66h1.32c.006-.017.012-.035.021-.053-.214-.098-.423-.198-.633-.293-.566-.253-1.111-.538-1.555-.975-.144-.142-.378-.32-.237-.513.093-.123.326.067.486.151.27.15.52.344.86.335.039-.162-.095-.184-.165-.242-.796-.668-1.554-1.367-2.138-2.233-.08-.121-.224-.255-.05-.39.162-.123.32-.06.465.078.41.41.798.848 1.249 1.211.131.12.292.203.465.242a8.47 8.47 0 00-.245-.305c-.61-.722-1.175-1.472-1.601-2.317-.095-.186-.274-.41-.006-.576.258-.162.466-.008.622.205.356.485.706.983 1.062 1.467a.895.895 0 00.37.336c-.261-.613-.554-1.136-.74-1.703-.145-.446-.26-.896-.262-1.361-.004-.131.002-.26.023-.385.03-.16.104-.278.293-.29.188-.008.227.113.263.258.16.58.319 1.165.48 1.743.09.322.213.627.431.975-.027-.513-.173-.936-.156-1.375.01-.174.01-.348.033-.52a.238.238 0 01.234-.223c.13-.008.205.07.238.205.087.335.157.677.271 1.004 1.432 4.154 4.343 6.583 8.643 7.362.477.086.966.107 1.448.165.027.06-.01.111-.035.158-.095.2-.147.46-.306.575-.198.144-.364-.137-.552-.212-.635-.246-1.3-.232-1.96-.261-.757-.033-1.406-.268-1.93-.822a12.346 12.346 0 00-.55-.533c-.299-.282-.62-.51-1.036-.618-.74-.192-1.28-.677-1.759-1.248-.507-.605-.933-1.275-1.525-1.808a7.332 7.332 0 00-.427-.36c-.126-.099-.25-.232-.361.036-.076.187-.188 0-.288-.008-.09-.006-.188-.046-.264.03-.095.106.036.163.078.232.13.212.27.427.359.67.086.243.105.412-.239.36-.075-.01-.152.009-.27.015.213.39.532.639.833.93-.14.095-.315 0-.455.131.235.232.506.415.809.538.058.025.108.053.167.059.365.036.037.368.214.494.115.083.465.059.18.366-.08.086-.036.224.105.275.087.03.176.061.267.083.219.062.372.128.08.324-.154.099-.09.173.042.242.285.16.6.232.98.311-.198.133-.344.232-.539.358.994.584 2.05.917 3.1 1.26.01.07.003.104-.077.076zm4.942 2.87c-.202.036-.303.156-.431.227-.17.1-.33.222-.532.243-.095.012-.227.069-.287-.039-.041-.08.035-.173.087-.252.286-.45.743-.605 1.234-.686.62-.102 1.254-.07 1.876-.075.513-.006 1.029-.008 1.514-.182.303-.109.721-.128.683-.629-.002-.07.075-.075.125-.099.075-.03.192-.061.204-.115.11-.44.468-.342.756-.346.954-.016 1.894.178 2.847.209.204.007.186.131.153.264-.106.44-.709.666-1.14.425-.093-.047-.171-.112-.29-.193l-.08.451c-.07.356-.284.463-.605.3-.436-.223-.44-.223-.655.193-.066.123-.131.264-.287.277-.204.017-.24-.176-.346-.357-.11.144-.196.272-.3.39-.187.21-.387.348-.628.057-.139-.166-.224-.11-.344.05-.282.39-.456.377-.675-.028-.086-.166-.153-.16-.222.003-.063.14-.128.274-.263.36-.121.077-.252.128-.393.072-.166-.072-.09-.218-.086-.338 0-.075.06-.157-.044-.246-.18.114-.294.301-.449.45-.12.11-.257.25-.425.173-.163-.068-.053-.243-.06-.375-.005-.077.02-.16-.056-.258-.14.152-.265.311-.406.454-.105.108-.24.23-.395.169-.156-.068-.078-.244-.08-.38-.004-.047 0-.093 0-.17z" fill="#FDC40C"/><path fill-rule="evenodd" clip-rule="evenodd" d="M36.92 17.155c.581.295 1.16.582 1.666.984.282.224.282.513.039.743-.24.23-.513.21-.74-.087-.384-.504-.665-1.074-.966-1.64z" fill="#FCC40D"/><path fill-rule="evenodd" clip-rule="evenodd" d="M34.426 21.843c.6-.024 1.2-.056 1.793-.068.224-.004.447.056.536.309a.518.518 0 01-.113.548c-.177.188-.404.146-.615.062a7.05 7.05 0 01-1.6-.851z" fill="#FBC40D"/><path fill-rule="evenodd" clip-rule="evenodd" d="M49.97 17.178a8.225 8.225 0 01-.956 1.653c-.214.273-.486.273-.719.041-.23-.23-.23-.503.035-.72.495-.403 1.068-.683 1.64-.974zm-4.715-2.526a8.23 8.23 0 01.121 1.901c-.021.335-.261.513-.568.455-.328-.06-.486-.309-.376-.646.2-.603.515-1.148.823-1.71zm-3.585.024c.338.569.664 1.137.845 1.773.076.295-.115.519-.42.563-.31.046-.529-.134-.547-.482a8.368 8.368 0 01.121-1.854zm-1.746.563c.463.47.915.949 1.235 1.526.146.264.012.527-.276.645-.287.113-.541-.01-.64-.341a8.57 8.57 0 01-.32-1.83zm-4.133 3.331c.625.168 1.247.338 1.822.639.297.159.35.434.168.704-.179.263-.452.316-.713.089-.484-.42-.881-.915-1.277-1.432zm15.449-.056c-.469.556-.866 1.037-1.331 1.46-.285.257-.575.215-.765-.078-.179-.283-.109-.546.227-.711.566-.28 1.169-.466 1.87-.671zm-7.775-4.178c.201.698.398 1.313.478 1.957.043.366-.141.582-.47.582-.334.003-.524-.211-.48-.572.078-.645.28-1.26.471-1.967zm3.592.808c-.095.605-.176 1.215-.29 1.812-.08.432-.353.576-.698.423-.319-.14-.393-.402-.187-.75.32-.532.718-1.014 1.175-1.485z" fill="#FCC40D"/><path fill-rule="evenodd" clip-rule="evenodd" d="M34.943 20.176a7.887 7.887 0 011.918.264c.315.087.413.338.303.63-.12.312-.37.424-.669.264-.566-.313-1.054-.738-1.552-1.158zm17.049-.003c-.487.43-.992.84-1.552 1.161-.297.162-.549.045-.669-.267-.114-.288-.014-.535.304-.627a8.015 8.015 0 011.917-.267zm.531 1.754a14.49 14.49 0 01-1.652.782c-.202.075-.42.102-.582-.08a.522.522 0 01-.115-.549c.084-.237.288-.305.501-.303.61.01 1.216.042 1.827.063.013.03.015.056.02.087zm.19 1.764c-.622.216-1.25.411-1.903.492-.306.04-.51-.171-.518-.473-.01-.308.176-.509.493-.489.664.042 1.285.285 1.928.47z" fill="#FBC40D"/><path fill-rule="evenodd" clip-rule="evenodd" d="M38.345 31.428c.134-.618.332-1.22.591-1.798.171-.362.437-.445.728-.261.303.184.327.478.06.79a3.16 3.16 0 01-.294.296c-.36.33-.72.65-1.085.973zm-2.66-2.533a17.71 17.71 0 011.306-1.442c.16-.156.348-.251.566-.162a.514.514 0 01.322.462c.018.26-.16.401-.37.49-.563.247-1.149.43-1.824.652zm15.496-.083a8.678 8.678 0 01-1.793-.58c-.374-.175-.45-.503-.21-.79.191-.237.466-.246.728-.009.177.152.333.322.488.497.267.29.525.587.787.882zm.838-1.574a12.814 12.814 0 01-1.83-.243c-.219-.051-.404-.146-.451-.381a.518.518 0 01.204-.524c.203-.161.42-.093.611.033.524.323.994.71 1.466 1.115zm-2.026 2.987c-.56-.284-1.109-.56-1.6-.931-.319-.236-.348-.517-.106-.766.202-.206.484-.23.67-.014.443.51.728 1.116 1.036 1.711z" fill="#FCC40D"/><path fill-rule="evenodd" clip-rule="evenodd" d="M34.229 23.653c.545-.14 1.091-.287 1.642-.41.461-.103.708.03.763.364.053.348-.16.619-.51.576-.652-.077-1.278-.276-1.895-.53z" fill="#FBC40D"/><path fill-rule="evenodd" clip-rule="evenodd" d="M48.67 31.477a17.458 17.458 0 01-1.45-1.309c-.148-.155-.255-.342-.154-.564a.52.52 0 01.458-.324c.249-.017.383.146.473.342.265.575.452 1.183.673 1.855zM36.978 30.19a8.512 8.512 0 01.902-1.574c.231-.309.534-.331.767-.093.198.204.242.45.03.645-.494.451-1.1.728-1.699 1.021zm4.726 2.593a8.428 8.428 0 01-.153-1.857c.018-.372.183-.547.495-.535.372.013.565.271.459.644a2.664 2.664 0 01-.18.445c-.204.434-.418.868-.62 1.303zm3.588.087c-.326-.64-.612-1.18-.83-1.754-.078-.206-.107-.414.067-.581a.52.52 0 01.58-.115c.224.084.276.297.28.516.013.613-.035 1.22-.097 1.934zM34.92 27.24c.463-.403.93-.784 1.438-1.106.194-.123.4-.204.615-.06a.509.509 0 01.23.516c-.04.267-.252.36-.499.416-.585.127-1.182.181-1.785.235zm3.377-11.176c.01-.006.022-.018.027-.018a4.67 4.67 0 011.53 1.42c.161.234-.013.466-.256.594-.27.143-.478.045-.616-.198-.22-.395-.34-.832-.496-1.256-.066-.182-.124-.362-.19-.542zm10.272-.009c-.151.633-.328 1.255-.631 1.824-.149.28-.42.317-.68.138-.26-.181-.315-.457-.096-.718.406-.474.897-.86 1.407-1.244zm-8.637 15.948a11.79 11.79 0 01.237-1.577c.09-.404.348-.552.68-.42.327.123.419.423.198.769a11.39 11.39 0 01-1.1 1.468c-.052-.078-.041-.158-.015-.24zm12.686-6.491a11.3 11.3 0 01-1.979.096c-.369-.02-.542-.247-.472-.569.065-.336.297-.48.64-.367.611.199 1.17.51 1.81.84zm-18.302.006c.632-.335 1.18-.619 1.757-.833.215-.08.418-.093.573.093a.51.51 0 01.102.547c-.09.236-.286.285-.507.289-.643.01-1.286-.023-1.925-.096zm12.673 6.726c-.398-.45-.749-.938-1.082-1.44-.125-.185-.21-.397-.063-.611a.521.521 0 01.548-.219c.262.054.342.266.38.485.087.513.157 1.028.23 1.544.03.082.041.162-.014.24zm-3.519.81c-.201-.692-.375-1.28-.47-1.89-.036-.21-.034-.426.176-.558a.541.541 0 01.563-.013c.233.128.23.359.196.582-.095.61-.277 1.2-.466 1.879z" fill="#FCC40D"/><path fill-rule="evenodd" clip-rule="evenodd" d="M42.709 37.743c.19-.058.395.024.581-.07.404.012.819-.053 1.216.087-.598.05-1.2.044-1.797-.017z" fill="#E1C221"/><path fill-rule="evenodd" clip-rule="evenodd" d="M55.112 30.607c.814-.666 1.568-1.384 2.158-2.262.07-.105.173-.213.03-.33-.12-.106-.262-.09-.39-.012-.068.042-.114.11-.173.171-.348.34-.689.69-1.049 1.018a2.216 2.216 0 01-.739.487c.124-.14.174-.202.232-.26a12.643 12.643 0 001.79-2.52c.102-.182.232-.4-.003-.557-.231-.153-.445-.029-.61.163-.044.053-.08.116-.124.17-.356.468-.644.996-1.042 1.435-.075.084-.129.223-.294.208.165-.342.33-.667.479-.998.316-.717.56-1.454.534-2.249-.01-.212-.033-.45-.316-.464-.257-.01-.254.216-.31.39-.249.81-.352 1.66-.766 2.414-.081.027-.103-.005-.079-.078.052-.53.219-1.048.098-1.59-.034-.155-.079-.279-.253-.271-.156.009-.224.111-.26.271-.959 4.36-4.432 7.662-8.822 8.262-.975.134-1.696.46-2.272 1.235-.404.538-.954.908-1.607 1.117-.305.102-.623.182-.899.366-.191.125-.36.261-.35.519-.259.114-.457.272-.47.582-.004.072.004.212.092.176.174-.075.359-.034.497-.065.837-.162 1.676-.137 2.511-.19.199 0 .407.113.582-.07-.37-.06-.734-.16-1.114-.081-.084.018-.208.018-.25-.074-.04-.087.066-.132.102-.202.045-.08.247-.163-.008-.25-.058-.02.031-.082.07-.123.055-.06.167-.075.173-.216-.336.062-.661.121-.99.176-.05.025-.135.037-.144.076-.057.15-.054.358-.246.374a1.225 1.225 0 01-.646-.112c.16.033.27-.104.407-.144.114.03.155-.07.219-.128.134-.05.255-.153.412-.145.793-.437 1.56-.91 2.227-1.536.23-.222.523-.33.832-.411.866-.23 1.762-.278 2.643-.426.327-.056.61-.149.832-.434.266-.342.622-.594 1.008-.795a96.671 96.671 0 012.108-1.068.744.744 0 00.374-.342c.39-.798.995-1.392 1.721-1.876.296-.194.618-.315.977-.33.24-.009.332.058.254.319-.095.33-.309.588-.52.9.131-.033.218-.058.308-.078.129-.03.297-.153.384-.023.095.145-.033.31-.136.435-.142.173-.301.332-.452.495.102.118.306.02.4.194-.398.304-.873.483-1.244.814.032.095.178.057.187.197-.173.081-.344.186-.526.246-.258.083-.23.286-.255.485-.003.036-.087.07-.14.092-.118.051-.241.087-.359.138-.092.04-.222.09-.11.22.177.2-.007.234-.124.278-.13.048-.279.067-.42.096.04.208.134.396-.087.55-.635.44-1.294.819-2.064.965.02.165.129.075.207.069 1.088.021 2.044-.37 2.937-.94.048-.027.115-.05.115-.12 0-.084-.077-.074-.126-.098-.16-.08-.357-.09-.498-.261.51-.335 1.133-.185 1.672-.423-.26-.208-.58-.034-.824-.232.532-.179 1.107-.162 1.614-.508-.322-.167-.642 0-.92-.173.195-.11.386-.147.578-.196.331-.093.67-.185.97-.368.07-.04.163-.08.14-.177-.02-.112-.124-.075-.203-.077-.126 0-.255.012-.38.012-.066-.003-.153.025-.18-.062-.026-.09.063-.113.119-.144.333-.211.668-.418 1-.633.306-.192.597-.408.813-.703.113-.15.3-.35.152-.518-.123-.14-.311.059-.455.129-.136.066-.258.165-.39.23-.164.08-.335.162-.523.088-.005-.02-.01-.037-.005-.043.072-.057.14-.116.21-.176z" fill="#FBC40E"/><path fill-rule="evenodd" clip-rule="evenodd" d="M49.09 35.925c.07.024.137.049.207.069a.38.38 0 01-.268.027c-.037-.01-.104-.018-.065-.077.015-.024.082-.015.127-.019z" fill="#FDC40C"/><path fill-rule="evenodd" clip-rule="evenodd" d="M40.861 36.97c-.023.084.045.197-.053.25-.1.047-.134-.045-.165-.116a.296.296 0 01.218-.134z" fill="#FBC40E"/><path fill-rule="evenodd" clip-rule="evenodd" d="M13.684 36.733c.115-.24.229-.483.287-.747.195-.86-.169-1.47-.982-1.655-.194-.065-.396-.014-.595-.028-.514-.065-.9.164-1.205.576-.306-.413-.653-.669-1.164-.576-.182-.021-.372.044-.552-.038l-.09.008c-.029.1-.133.093-.206.124-.543.235-.8.646-.77 1.233.017.372.142.712.303 1.042.651 1.344 1.294 2.694 1.947 4.038.11.225.168.456.159.703-.014.368-.28.648-.663.71-.317.052-.7-.18-.797-.506-.077-.257-.05-.512.124-.725.127-.16.305-.174.497-.136.173.033.255.139.257.303.002.096-.012.204-.141.222-.193.023-.2-.134-.245-.258-.005-.014-.038-.017-.06-.026-.092.047-.068.181-.111.211-.37.245.094.402.06.61-.003.027.102.068.116.016.045-.185.194-.1.297-.127.262-.076.416-.233.427-.519.023-.49-.233-.762-.83-.866.153-.223-.139-.457.017-.684.013-.015-.02-.067-.07-.046-.34.127-.21-.125-.207-.265.008-.471-.325-.851-.767-.851.226.338.338.698.307 1.104a5.96 5.96 0 01-.199 1.112c-.156.58-.2 1.15.329 1.59-.46.32-.457.355.017.637-.461.478-.567.813-.389 1.486.214.807.427 1.604-.143 2.399.616-.121.895-.459.872-.992-.002-.08-.083-.23.094-.177.219.066.162-.056.137-.161-.016-.067-.043-.133-.066-.201.4-.072.061-.25.046-.401a.843.843 0 00.777-.37c.053-.162.104-.326.07-.5-.055-.279-.192-.469-.511-.46-.075.006-.18.07-.21-.06-.05-.244-.159-.103-.153-.007.01.21-.194.19-.283.331.181.09.312.229.307.457a.047.047 0 00.02.009c.057-.025.081-.03.083-.04.029-.142.023-.313.238-.29.094.01.153.075.153.174.006.184-.095.295-.273.332-.27.054-.48-.044-.597-.296-.144-.308-.055-.677.194-.855.283-.202.788-.218 1.032-.021.299.238.264.55.164.865-.041.124-.06.26-.157.36-.17.428-.343.855-.509 1.284-.106.273-.139.552.119.77.247.212.532.224.817.085.143-.071.254-.082.402-.006.294.152.593.134.844-.099.244-.226.19-.505.085-.776-.153-.397-.312-.788-.469-1.18-.126-.186-.176-.397-.23-.609-.075-.318-.002-.583.293-.749.3-.169.84-.083 1.052.164.216.252.2.539.063.817-.11.223-.32.288-.558.246-.173-.029-.283-.137-.292-.319-.005-.115.072-.186.179-.193.217-.016.171.189.24.325.204-.098.096-.444.399-.433-.046-.06-.068-.114-.09-.114-.244-.002-.224-.447-.304-.343-.124.168-.225.159-.378.175-.258.028-.45.34-.401.643.021.13.078.253.12.379a.962.962 0 00.796.3c-.369.26.097.514-.083.752.02.007.043.027.06.024.323-.103.164.151.17.245.018.494.312.82.864.889-.519-.752-.366-1.516-.144-2.294.163-.58.17-1.153-.392-1.57.487-.269.487-.269.059-.653.444-.489.505-.796.312-1.548-.197-.764-.381-1.525.122-2.293a.913.913 0 00-.665.427c-.164.236-.15.5-.083.751-.125.074-.226-.068-.37.046.305.195-.186.444.108.67-.317.043-.586.105-.75.372-.287.47-.054.798.435 1.052.467.24.307-.294.525-.291-.099-.156-.196-.315-.31-.497-.095.144-.068.372-.295.323-.118-.024-.14-.123-.136-.226.014-.213.153-.286.343-.308.2-.022.362.038.463.219.164.287.18.585-.028.855-.191.244-.44.378-.768.287-.338-.093-.552-.303-.59-.66-.026-.263.053-.501.169-.736.633-1.322 1.272-2.646 1.91-3.971zm-1.641 5.89c-.287.123-.555.201-.736.422-.072.086-.127.076-.197-.01-.184-.219-.453-.297-.756-.418.327-.095.584-.225.768-.463.057-.075.11-.09.169-.011.177.25.449.36.752.48zm-.734-2.16c-.024.052-.06.1-.113.184l-1.988-4.211c-.12-.252-.235-.506-.245-.795a.715.715 0 01.427-.703.766.766 0 01.86.079.533.533 0 01.225.439c0 .155-.072.292-.245.315-.172.022-.314-.043-.363-.23-.019-.077-.017-.159-.024-.26-.316.126-.273.567-.615.637-.014.002-.018.057-.025.088.368.07.291.55.641.688-.028-.812.74-.29 1.032-.63 0 .304-.004.61.003.912.01.52-.083.61-.619.569-.046-.006-.094-.016-.144-.023.081.411.154.47.782.626-.315.397-.132.742.109 1.08.126.182.245.2.398.015.293-.353.343-.696.125-1.117.35-.042.675-.125.777-.527-.022-.016-.039-.038-.058-.038-.74-.038-.737-.038-.72-.777.008-.23.003-.461.046-.721.272.325.989-.162.987.607.19-.017.266-.147.31-.308.016-.057.016-.153.05-.163.485-.178.262-.293-.008-.475-.134-.093-.096-.378-.355-.43-.005.09-.005.17-.018.248-.027.185-.167.235-.322.232-.168-.002-.256-.113-.271-.282-.027-.28.22-.566.547-.632a.784.784 0 01.948.823 1.41 1.41 0 01-.129.528c-.666 1.42-1.334 2.835-2.005 4.252z" fill="#FDC40C"/></svg>