<svg width="294" height="283" viewBox="0 0 294 283" fill="none" xmlns="http://www.w3.org/2000/svg"><g clip-path="url(#clip0)"><path d="M238.335 279.527V99.04h-43.46V55.39H86.219v210.23" stroke="#0B2867" stroke-width="7" stroke-miterlimit="10" stroke-linecap="round" stroke-linejoin="round"/><path d="M86.219 265.619l16.893 13.908 16.894-13.908 16.893 13.908 16.894-13.908 16.893 13.908 16.893-13.908 16.909 13.908 16.923-13.908 16.924 13.908" stroke="#0B2867" stroke-width="7" stroke-miterlimit="10" stroke-linecap="round" stroke-linejoin="round"/><path d="M194.875 99.04h43.46l-43.46-43.438V99.04z" fill="#84AACB"/><path d="M194.875 99.04h43.46l-43.46-43.438V99.04zm58.503-58.489l15.058-15.036m-15.058 15.036l7.537-7.518" stroke="#0B2867" stroke-width="7" stroke-miterlimit="10" stroke-linecap="round" stroke-linejoin="round"/><path d="M224.751 24.027l2.753-10.27" stroke="#84AACB" stroke-width="7" stroke-miterlimit="10" stroke-linecap="round" stroke-linejoin="round"/><path d="M191.686 24.027l-5.505-20.554m5.505 20.554l-2.752-10.27m80.976 88.455l20.564 5.518m-20.564-5.518l10.29 2.767" stroke="#0B2867" stroke-width="7" stroke-miterlimit="10" stroke-linecap="round" stroke-linejoin="round"/><path d="M269.91 69.179l10.29-2.752" stroke="#84AACB" stroke-width="7" stroke-miterlimit="10" stroke-linecap="round" stroke-linejoin="round"/><path d="M86.46 12.164c36.013 0 65.196 29.169 65.196 65.15 0 35.994-29.183 65.163-65.197 65.163-35.998 0-65.182-29.169-65.182-65.164 0-35.98 29.184-65.15 65.182-65.15z" fill="#fff"/><path d="M86.46 12.164c36.013 0 65.196 29.169 65.196 65.15 0 35.994-29.183 65.163-65.197 65.163-35.998 0-65.182-29.169-65.182-65.164 0-35.98 29.184-65.15 65.182-65.15z" stroke="#84AACB" stroke-width="7" stroke-miterlimit="10" stroke-linecap="round" stroke-linejoin="round"/><path d="M34.982 117.263L5.918 146.311c-3.189 3.188-3.189 8.345 0 11.518 3.174 3.187 8.334 3.187 11.523 0l29.064-29.049c-2.122-1.654-4.182-3.428-6.138-5.383a68.545 68.545 0 01-5.385-6.134zm7.311-58.233c4.693-11.292 13.69-20.81 25.874-25.846" stroke="#84AACB" stroke-width="7" stroke-miterlimit="10" stroke-linecap="round" stroke-linejoin="round"/><path d="M86.219 125.081v-69.69h42.692" stroke="#0B2867" stroke-width="7" stroke-miterlimit="10" stroke-linecap="round" stroke-linejoin="round"/><path d="M34.981 117.263l-8.59 8.585 11.524 11.517 8.59-8.585c-2.122-1.654-4.183-3.428-6.138-5.383a68.546 68.546 0 01-5.386-6.134z" stroke="#84AACB" stroke-width="7" stroke-miterlimit="10" stroke-linecap="round" stroke-linejoin="round"/><path d="M124.346 197.221h7.06v-20.596l-7.06 20.596zm7.06 18.779v-11.865h-14.267v-7.676l12.334-29.063h9.785v29.825h5.039v6.914h-5.039V216h-7.852zm38.877-3.193c-2.168 2.578-5.293 3.867-9.375 3.867s-7.207-1.289-9.375-3.867c-2.168-2.578-3.252-6.016-3.252-10.313v-21.357c0-4.434 1.045-7.92 3.135-10.459 2.109-2.559 5.273-3.838 9.492-3.838 4.18 0 7.324 1.279 9.434 3.838 2.129 2.558 3.193 6.045 3.193 10.459v21.357c0 4.297-1.084 7.735-3.252 10.313zm-13.594-10.43c0 4.766 1.407 7.148 4.219 7.148 2.813 0 4.219-2.382 4.219-7.148v-21.094c0-.625-.02-1.191-.059-1.699a18.363 18.363 0 00-.205-1.67c-.078-.586-.224-1.094-.439-1.523-.195-.45-.44-.86-.733-1.231a2.675 2.675 0 00-1.171-.879c-.469-.195-1.006-.293-1.612-.293-.722 0-1.357.157-1.904.469-.527.293-.938.664-1.231 1.113-.293.45-.527 1.026-.703 1.729a15.444 15.444 0 00-.322 1.933c-.039.586-.059 1.27-.059 2.051v21.094zm28.829-5.156h7.06v-20.596l-7.06 20.596zm7.06 18.779v-11.865h-14.267v-7.676l12.334-29.063h9.785v29.825h5.039v6.914h-5.039V216h-7.852z" fill="#0B2867"/></g><defs><clipPath id="clip0"><path fill="#fff" d="M0 0h294v283H0z"/></clipPath></defs></svg>